<?xml version="1.0" encoding="UTF-8"?>
<!DOCTYPE svg PUBLIC "-//W3C//DTD SVG 1.1//EN" "http://www.w3.org/Graphics/SVG/1.1/DTD/svg11.dtd">
<svg xmlns="http://www.w3.org/2000/svg" version="1.1" width="900px" height="700px" style="shape-rendering:geometricPrecision; text-rendering:geometricPrecision; image-rendering:optimizeQuality; fill-rule:evenodd; clip-rule:evenodd" xmlns:xlink="http://www.w3.org/1999/xlink">
<g><path style="opacity:0.947" fill="#fcfcfc" d="M 660.5,11.5 C 660.384,14.8599 660.051,18.1933 659.5,21.5C 658.833,21.5 658.167,21.5 657.5,21.5C 657.5,18.5 657.5,15.5 657.5,12.5C 574.326,20.2029 491.326,28.2029 408.5,36.5C 392.576,38.7974 376.576,40.7974 360.5,42.5C 407.941,31.9101 455.607,21.7434 503.5,12C 555.504,11.0043 607.504,10.3376 659.5,10C 660.056,10.3826 660.389,10.8826 660.5,11.5 Z"/></g>
<g><path style="opacity:1" fill="#595959" d="M 657.5,21.5 C 654.94,35.1352 652.44,48.8019 650,62.5C 649.617,63.056 649.117,63.3893 648.5,63.5C 647.374,57.9576 645.541,52.6242 643,47.5C 628.988,107.881 614.821,168.214 600.5,228.5C 590.107,223.465 580.107,217.632 570.5,211C 547.293,200.379 524.293,189.379 501.5,178C 500.5,177.333 499.5,177.333 498.5,178C 532.477,194.988 566.143,212.488 599.5,230.5C 603.043,232.438 606.71,234.105 610.5,235.5C 613.773,238.144 617.44,240.311 621.5,242C 671.908,259.136 722.241,276.469 772.5,294C 773.578,294.674 774.245,295.674 774.5,297C 774.057,298.825 773.723,300.658 773.5,302.5C 772.27,304.297 771.604,306.297 771.5,308.5C 769.05,308.702 766.717,308.369 764.5,307.5C 742.399,298.462 720.066,289.796 697.5,281.5C 675.899,274.3 654.233,267.3 632.5,260.5C 623.924,257.529 615.257,254.529 606.5,251.5C 588.347,242.259 570.68,232.259 553.5,221.5C 543.898,215.358 534.231,209.191 524.5,203C 493.02,186.76 461.353,170.76 429.5,155C 420.614,152.029 411.614,149.529 402.5,147.5C 397.523,145.623 392.357,143.956 387,142.5C 385.251,142.748 384.418,143.748 384.5,145.5C 378.776,153.26 373.276,161.26 368,169.5C 368.186,173.484 368.186,177.484 368,181.5C 364.391,190.374 360.558,199.041 356.5,207.5C 338.114,203.937 319.781,200.27 301.5,196.5C 319.065,169.718 336.898,143.052 355,116.5C 355.483,115.552 355.649,114.552 355.5,113.5C 359.594,115.173 363.427,114.84 367,112.5C 382.751,87.9955 398.751,63.6621 415,39.5C 415.483,38.552 415.649,37.552 415.5,36.5C 413.167,36.5 410.833,36.5 408.5,36.5C 491.326,28.2029 574.326,20.2029 657.5,12.5C 657.5,15.5 657.5,18.5 657.5,21.5 Z"/></g>
<g><path style="opacity:0.996" fill="#7f7f7f" d="M 660.5,11.5 C 691.497,51.4913 722.497,91.4913 753.5,131.5C 757.325,137.795 761.658,143.795 766.5,149.5C 766.333,149.833 766.167,150.167 766,150.5C 760.017,145.351 754.184,140.018 748.5,134.5C 747.333,170.162 747.167,205.829 748,241.5C 758.006,252.672 768.506,263.339 779.5,273.5C 779.833,274.167 780.167,274.833 780.5,275.5C 759.716,260.931 739.049,246.097 718.5,231C 697.5,220.167 676.5,209.333 655.5,198.5C 646.433,210.955 637.6,223.621 629,236.5C 638.741,164.813 648.908,93.146 659.5,21.5C 660.051,18.1933 660.384,14.8599 660.5,11.5 Z"/></g>
<g><path style="opacity:0.999" fill="#a7a7a7" d="M 657.5,21.5 C 658.167,21.5 658.833,21.5 659.5,21.5C 648.908,93.146 638.741,164.813 629,236.5C 637.6,223.621 646.433,210.955 655.5,198.5C 676.5,209.333 697.5,220.167 718.5,231C 739.049,246.097 759.716,260.931 780.5,275.5C 781.558,276.6 782.392,277.934 783,279.5C 783.831,285.859 783.664,292.193 782.5,298.5C 779.356,299.573 776.356,300.907 773.5,302.5C 773.723,300.658 774.057,298.825 774.5,297C 774.245,295.674 773.578,294.674 772.5,294C 722.241,276.469 671.908,259.136 621.5,242C 617.44,240.311 613.773,238.144 610.5,235.5C 615.382,237.238 620.382,238.571 625.5,239.5C 633.407,180.858 641.073,122.191 648.5,63.5C 649.117,63.3893 649.617,63.056 650,62.5C 652.44,48.8019 654.94,35.1352 657.5,21.5 Z"/></g>
<g><path style="opacity:0.999" fill="#4a4a4a" d="M 408.5,36.5 C 410.833,36.5 413.167,36.5 415.5,36.5C 415.649,37.552 415.483,38.552 415,39.5C 398.751,63.6621 382.751,87.9955 367,112.5C 363.427,114.84 359.594,115.173 355.5,113.5C 345.179,112.251 334.845,111.417 324.5,111C 318.258,113.705 312.092,116.538 306,119.5C 301.5,127.833 297,136.167 292.5,144.5C 279.833,145.167 267.167,145.833 254.5,146.5C 252.712,147.283 251.712,148.616 251.5,150.5C 247.5,153.167 246.833,152.5 249.5,148.5C 255.303,141.184 260.97,133.684 266.5,126C 284.666,116.386 303.666,108.719 323.5,103C 331,96.8333 338.5,90.6667 346,84.5C 346.667,79.1667 346.667,73.8333 346,68.5C 341.412,65.4563 336.912,62.2897 332.5,59C 336.67,53.9977 341.004,49.1644 345.5,44.5C 350.269,43.111 355.269,42.4443 360.5,42.5C 376.576,40.7974 392.576,38.7974 408.5,36.5 Z"/></g>
<g><path style="opacity:1" fill="#fbfbfb" d="M 648.5,63.5 C 641.073,122.191 633.407,180.858 625.5,239.5C 620.382,238.571 615.382,237.238 610.5,235.5C 606.71,234.105 603.043,232.438 599.5,230.5C 599.833,229.833 600.167,229.167 600.5,228.5C 614.821,168.214 628.988,107.881 643,47.5C 645.541,52.6242 647.374,57.9576 648.5,63.5 Z"/></g>
<g><path style="opacity:0.984" fill="#a7a7a7" d="M 345.5,44.5 C 341.004,49.1644 336.67,53.9977 332.5,59C 336.912,62.2897 341.412,65.4563 346,68.5C 346.667,73.8333 346.667,79.1667 346,84.5C 338.5,90.6667 331,96.8333 323.5,103C 303.666,108.719 284.666,116.386 266.5,126C 260.97,133.684 255.303,141.184 249.5,148.5C 249.297,146.956 248.63,145.622 247.5,144.5C 278.984,111.182 310.651,78.0152 342.5,45C 343.448,44.5172 344.448,44.3505 345.5,44.5 Z"/></g>
<g><path style="opacity:1" fill="#a5a5a5" d="M 601.5,86.5 C 602.586,86.62 603.253,87.2867 603.5,88.5C 595.768,117.528 587.935,146.528 580,175.5C 585.014,146.761 590.681,118.094 597,89.5C 598.652,88.6006 600.152,87.6006 601.5,86.5 Z"/></g>
<g><path style="opacity:0.998" fill="#a7a6a6" d="M 355.5,113.5 C 355.649,114.552 355.483,115.552 355,116.5C 336.898,143.052 319.065,169.718 301.5,196.5C 301.167,196.5 300.833,196.5 300.5,196.5C 271.686,190.671 243.02,184.338 214.5,177.5C 214.611,176.883 214.944,176.383 215.5,176C 226.239,174.082 236.906,172.749 247.5,172C 249.962,166.908 252.295,161.741 254.5,156.5C 253.441,154.466 252.441,152.466 251.5,150.5C 251.712,148.616 252.712,147.283 254.5,146.5C 267.167,145.833 279.833,145.167 292.5,144.5C 297,136.167 301.5,127.833 306,119.5C 312.092,116.538 318.258,113.705 324.5,111C 334.845,111.417 345.179,112.251 355.5,113.5 Z"/></g>
<g><path style="opacity:0.984" fill="#a7a7a7" d="M 753.5,131.5 C 759.469,138.31 765.302,145.31 771,152.5C 774.165,192.812 776.999,233.145 779.5,273.5C 768.506,263.339 758.006,252.672 748,241.5C 747.167,205.829 747.333,170.162 748.5,134.5C 754.184,140.018 760.017,145.351 766,150.5C 766.167,150.167 766.333,149.833 766.5,149.5C 761.658,143.795 757.325,137.795 753.5,131.5 Z"/></g>
<g><path style="opacity:1" fill="#fefbfc" d="M 402.5,147.5 C 407.865,150.514 413.199,153.514 418.5,156.5C 418.062,156.435 417.728,156.601 417.5,157C 420.5,160 423.5,163 426.5,166C 440.208,172.518 453.542,179.518 466.5,187C 465.976,189.413 464.976,191.58 463.5,193.5C 447.337,184.586 431.337,175.42 415.5,166C 406.573,164.284 397.573,163.617 388.5,164C 383.515,165.939 378.515,167.772 373.5,169.5C 377.545,161.709 381.212,153.709 384.5,145.5C 384.418,143.748 385.251,142.748 387,142.5C 392.357,143.956 397.523,145.623 402.5,147.5 Z"/></g>
<g><path style="opacity:1" fill="#a9a8a8" d="M 402.5,147.5 C 411.614,149.529 420.614,152.029 429.5,155C 461.353,170.76 493.02,186.76 524.5,203C 534.231,209.191 543.898,215.358 553.5,221.5C 541.5,216.5 529.5,211.5 517.5,206.5C 512.375,204.438 507.375,202.104 502.5,199.5C 474.534,185.183 446.534,170.85 418.5,156.5C 413.199,153.514 407.865,150.514 402.5,147.5 Z"/></g>
<g><path style="opacity:1" fill="#fd6589" d="M 418.5,156.5 C 446.534,170.85 474.534,185.183 502.5,199.5C 495.99,197.943 489.49,196.276 483,194.5C 482.228,194.645 481.561,194.978 481,195.5C 479.711,197.055 479.044,198.721 479,200.5C 494.741,215.413 510.907,229.746 527.5,243.5C 528.234,244.708 528.567,246.041 528.5,247.5C 527.22,248.931 525.553,249.598 523.5,249.5C 523.5,248.167 523.5,246.833 523.5,245.5C 522.5,245.5 521.5,245.5 520.5,245.5C 517.721,245.279 515.054,245.612 512.5,246.5C 511.599,245.71 510.932,244.71 510.5,243.5C 510.567,242.041 510.234,240.708 509.5,239.5C 510.167,239.5 510.833,239.5 511.5,239.5C 514.021,239.44 516.354,240.106 518.5,241.5C 520.812,240.313 520.646,238.98 518,237.5C 517.667,237.833 517.333,238.167 517,238.5C 515.259,237.242 513.426,236.242 511.5,235.5C 504.286,228.788 496.619,222.621 488.5,217C 469.939,204.561 451.272,192.394 432.5,180.5C 430.087,178.113 427.42,175.946 424.5,174C 415.943,173.781 407.609,174.614 399.5,176.5C 390.184,177.646 380.85,178.646 371.5,179.5C 371.54,176.012 372.207,172.679 373.5,169.5C 378.515,167.772 383.515,165.939 388.5,164C 397.573,163.617 406.573,164.284 415.5,166C 431.337,175.42 447.337,184.586 463.5,193.5C 464.976,191.58 465.976,189.413 466.5,187C 453.542,179.518 440.208,172.518 426.5,166C 423.5,163 420.5,160 417.5,157C 417.728,156.601 418.062,156.435 418.5,156.5 Z"/></g>
<g><path style="opacity:0.243" fill="#f03863" d="M 214.5,177.5 C 213.833,178.5 213.167,179.5 212.5,180.5C 212.167,180.5 211.833,180.5 211.5,180.5C 175.871,172.578 140.204,164.578 104.5,156.5C 105.5,156.167 106.5,155.833 107.5,155.5C 143.325,162.282 178.991,169.615 214.5,177.5 Z"/></g>
<g><path style="opacity:1" fill="#cf6a8b" d="M 432.5,180.5 C 429.91,179.872 427.577,178.705 425.5,177C 416.84,176.5 408.173,176.334 399.5,176.5C 407.609,174.614 415.943,173.781 424.5,174C 427.42,175.946 430.087,178.113 432.5,180.5 Z"/></g>
<g><path style="opacity:1" fill="#cbc9c9" d="M 384.5,145.5 C 381.212,153.709 377.545,161.709 373.5,169.5C 372.207,172.679 371.54,176.012 371.5,179.5C 380.85,178.646 390.184,177.646 399.5,176.5C 408.173,176.334 416.84,176.5 425.5,177C 427.577,178.705 429.91,179.872 432.5,180.5C 451.272,192.394 469.939,204.561 488.5,217C 496.619,222.621 504.286,228.788 511.5,235.5C 511.5,236.833 511.5,238.167 511.5,239.5C 510.833,239.5 510.167,239.5 509.5,239.5C 509.5,238.833 509.167,238.5 508.5,238.5C 495.799,232.929 482.799,227.929 469.5,223.5C 468.486,222.326 467.153,221.66 465.5,221.5C 463.883,220.962 462.216,220.629 460.5,220.5C 457.203,218.399 453.537,217.065 449.5,216.5C 441.983,213.324 434.316,210.324 426.5,207.5C 424.283,206.631 421.95,206.298 419.5,206.5C 408.18,205.445 396.847,204.945 385.5,205C 382.899,205.92 380.232,206.587 377.5,207C 376.418,208.33 375.751,209.83 375.5,211.5C 369.252,210.036 362.919,209.036 356.5,208.5C 356.5,208.167 356.5,207.833 356.5,207.5C 360.558,199.041 364.391,190.374 368,181.5C 368.186,177.484 368.186,173.484 368,169.5C 373.276,161.26 378.776,153.26 384.5,145.5 Z"/></g>
<g><path style="opacity:0.999" fill="#9c9c9c" d="M 211.5,180.5 C 211.833,180.5 212.167,180.5 212.5,180.5C 241.509,186.001 270.509,191.668 299.5,197.5C 299.5,197.833 299.5,198.167 299.5,198.5C 296.571,202.694 293.905,207.027 291.5,211.5C 287.736,210.119 284.069,208.453 280.5,206.5C 280.167,206.833 279.833,207.167 279.5,207.5C 281.667,211.833 283.833,216.167 286,220.5C 286.667,221.833 286.667,223.167 286,224.5C 264.5,261.5 243,298.5 221.5,335.5C 242.839,305.848 263.672,275.181 284,243.5C 288.066,242.536 292.233,242.203 296.5,242.5C 297.167,242.5 297.5,242.833 297.5,243.5C 304.785,253.291 312.285,262.958 320,272.5C 321.559,274.217 322.392,276.217 322.5,278.5C 306.68,310.14 290.847,341.807 275,373.5C 258.662,396.663 242.162,419.663 225.5,442.5C 215.816,437.138 206.15,431.805 196.5,426.5C 200.676,406.458 205.176,386.458 210,366.5C 210.808,364.421 210.641,362.421 209.5,360.5C 176.731,345.478 144.065,330.478 111.5,315.5C 130.497,289.534 149.997,263.867 170,238.5C 184.077,219.27 197.911,199.936 211.5,180.5 Z"/></g>
<g><path style="opacity:1" fill="#d76789" d="M 214.5,177.5 C 243.02,184.338 271.686,190.671 300.5,196.5C 300.5,197.167 300.167,197.5 299.5,197.5C 270.509,191.668 241.509,186.001 212.5,180.5C 213.167,179.5 213.833,178.5 214.5,177.5 Z"/></g>
<g><path style="opacity:1" fill="#9e9e9e" d="M 600.5,228.5 C 600.167,229.167 599.833,229.833 599.5,230.5C 566.143,212.488 532.477,194.988 498.5,178C 499.5,177.333 500.5,177.333 501.5,178C 524.293,189.379 547.293,200.379 570.5,211C 580.107,217.632 590.107,223.465 600.5,228.5 Z"/></g>
<g><path style="opacity:1" fill="#fdfcfd" d="M 502.5,199.5 C 507.375,202.104 512.375,204.438 517.5,206.5C 539.789,218.127 561.456,229.793 582.5,241.5C 575.78,240.755 569.114,239.755 562.5,238.5C 561.87,242.048 560.87,245.381 559.5,248.5C 554.814,247.963 550.147,247.296 545.5,246.5C 543.565,245.85 541.565,245.517 539.5,245.5C 535.574,244.448 531.574,243.782 527.5,243.5C 510.907,229.746 494.741,215.413 479,200.5C 479.044,198.721 479.711,197.055 481,195.5C 481.561,194.978 482.228,194.645 483,194.5C 489.49,196.276 495.99,197.943 502.5,199.5 Z"/></g>
<g><path style="opacity:1" fill="#5b5959" d="M 299.5,198.5 C 318.222,202.111 336.888,206.111 355.5,210.5C 351.5,220.5 347.5,230.5 343.5,240.5C 342.596,241.209 342.263,242.209 342.5,243.5C 340.902,241.143 339.902,238.477 339.5,235.5C 326.021,228.595 312.354,221.928 298.5,215.5C 296.351,214.264 294.018,213.264 291.5,212.5C 291.5,212.167 291.5,211.833 291.5,211.5C 293.905,207.027 296.571,202.694 299.5,198.5 Z"/></g>
<g><path style="opacity:1" fill="#ca3549" d="M 300.5,196.5 C 300.833,196.5 301.167,196.5 301.5,196.5C 319.781,200.27 338.114,203.937 356.5,207.5C 356.5,207.833 356.5,208.167 356.5,208.5C 356.5,209.167 356.5,209.833 356.5,210.5C 356.167,210.5 355.833,210.5 355.5,210.5C 336.888,206.111 318.222,202.111 299.5,198.5C 299.5,198.167 299.5,197.833 299.5,197.5C 300.167,197.5 300.5,197.167 300.5,196.5 Z"/></g>
<g><path style="opacity:1" fill="#9f0326" d="M 419.5,206.5 C 419.25,207.922 418.417,208.922 417,209.5C 416.501,213.152 416.335,216.818 416.5,220.5C 402.692,217.74 389.026,214.74 375.5,211.5C 375.751,209.83 376.418,208.33 377.5,207C 380.232,206.587 382.899,205.92 385.5,205C 396.847,204.945 408.18,205.445 419.5,206.5 Z"/></g>
<g><path style="opacity:1" fill="#f968a1" d="M 291.5,211.5 C 291.5,211.833 291.5,212.167 291.5,212.5C 291.334,220.507 291.5,228.507 292,236.5C 293.332,238.66 294.832,240.66 296.5,242.5C 292.233,242.203 288.066,242.536 284,243.5C 263.672,275.181 242.839,305.848 221.5,335.5C 243,298.5 264.5,261.5 286,224.5C 286.667,223.167 286.667,221.833 286,220.5C 283.833,216.167 281.667,211.833 279.5,207.5C 279.833,207.167 280.167,206.833 280.5,206.5C 284.069,208.453 287.736,210.119 291.5,211.5 Z"/></g>
<g><path style="opacity:1" fill="#a80e2e" d="M 426.5,207.5 C 434.316,210.324 441.983,213.324 449.5,216.5C 443.272,215.148 437.106,213.481 431,211.5C 429.739,211.759 428.739,212.426 428,213.5C 427.517,225.088 426.017,224.921 423.5,213C 424.741,211.269 425.741,209.436 426.5,207.5 Z"/></g>
<g><path style="opacity:1" fill="#f072a6" d="M 356.5,208.5 C 362.919,209.036 369.252,210.036 375.5,211.5C 375.5,211.833 375.5,212.167 375.5,212.5C 374.662,212.842 374.328,213.508 374.5,214.5C 368.351,213.754 362.351,212.42 356.5,210.5C 356.5,209.833 356.5,209.167 356.5,208.5 Z"/></g>
<g><path style="opacity:1" fill="#c9c9c9" d="M 517.5,206.5 C 529.5,211.5 541.5,216.5 553.5,221.5C 570.68,232.259 588.347,242.259 606.5,251.5C 606.5,251.833 606.5,252.167 606.5,252.5C 600.995,250.497 595.828,247.831 591,244.5C 590.79,246.058 590.29,247.391 589.5,248.5C 589.785,246.712 589.452,245.045 588.5,243.5C 586.343,242.95 584.343,242.283 582.5,241.5C 561.456,229.793 539.789,218.127 517.5,206.5 Z"/></g>
<g><path style="opacity:1" fill="#cbcaca" d="M 355.5,210.5 C 355.833,210.5 356.167,210.5 356.5,210.5C 362.351,212.42 368.351,213.754 374.5,214.5C 372.857,216.708 373.19,218.541 375.5,220C 389.1,222.954 402.767,225.454 416.5,227.5C 423.944,229.69 431.611,231.357 439.5,232.5C 442.439,234.313 445.439,235.98 448.5,237.5C 440.429,235.816 432.429,233.816 424.5,231.5C 423.614,232.325 423.281,233.325 423.5,234.5C 405.46,230.323 387.46,226.156 369.5,222C 379.413,232.074 388.746,242.574 397.5,253.5C 390.858,252.038 384.191,250.705 377.5,249.5C 370.056,247.476 362.39,245.809 354.5,244.5C 350.636,243.327 346.969,241.993 343.5,240.5C 347.5,230.5 351.5,220.5 355.5,210.5 Z"/></g>
<g><path style="opacity:1" fill="#973d63" d="M 291.5,212.5 C 294.018,213.264 296.351,214.264 298.5,215.5C 297.262,215.81 297.262,216.31 298.5,217C 310.083,225.612 321.417,234.445 332.5,243.5C 321.548,237.018 310.881,230.018 300.5,222.5C 300.144,229.881 299.144,236.881 297.5,243.5C 297.5,242.833 297.167,242.5 296.5,242.5C 294.832,240.66 293.332,238.66 292,236.5C 291.5,228.507 291.334,220.507 291.5,212.5 Z"/></g>
<g><path style="opacity:1" fill="#a3182e" d="M 375.5,212.5 C 375.414,213.496 375.748,214.329 376.5,215C 389.788,218.15 403.121,220.983 416.5,223.5C 416.5,224.833 416.5,226.167 416.5,227.5C 402.767,225.454 389.1,222.954 375.5,220C 373.19,218.541 372.857,216.708 374.5,214.5C 374.328,213.508 374.662,212.842 375.5,212.5 Z"/></g>
<g><path style="opacity:1" fill="#e4001e" d="M 375.5,211.5 C 389.026,214.74 402.692,217.74 416.5,220.5C 416.5,221.5 416.5,222.5 416.5,223.5C 403.121,220.983 389.788,218.15 376.5,215C 375.748,214.329 375.414,213.496 375.5,212.5C 375.5,212.167 375.5,211.833 375.5,211.5 Z"/></g>
<g><path style="opacity:1" fill="#fa585b" d="M 298.5,215.5 C 312.354,221.928 326.021,228.595 339.5,235.5C 339.5,239.833 339.5,244.167 339.5,248.5C 336.865,247.189 334.531,245.522 332.5,243.5C 321.417,234.445 310.083,225.612 298.5,217C 297.262,216.31 297.262,215.81 298.5,215.5 Z"/></g>
<g><path style="opacity:1" fill="#a6062a" d="M 460.5,220.5 C 462.216,220.629 463.883,220.962 465.5,221.5C 465.5,224.167 465.5,226.833 465.5,229.5C 464.325,229.719 463.325,229.386 462.5,228.5C 461.215,225.979 460.548,223.313 460.5,220.5 Z"/></g>
<g><path style="opacity:1" fill="#fefdfd" d="M 423.5,234.5 C 423.5,235.167 423.833,235.5 424.5,235.5C 424.724,239.204 424.89,242.871 425,246.5C 422.49,250.195 419.99,253.862 417.5,257.5C 417.167,257.5 416.833,257.5 416.5,257.5C 410.134,256.325 403.8,254.992 397.5,253.5C 388.746,242.574 379.413,232.074 369.5,222C 387.46,226.156 405.46,230.323 423.5,234.5 Z"/></g>
<g><path style="opacity:1" fill="#a50d2a" d="M 469.5,223.5 C 482.799,227.929 495.799,232.929 508.5,238.5C 496.61,237.277 484.943,234.944 473.5,231.5C 473.015,228.431 471.681,225.764 469.5,223.5 Z"/></g>
<g><path style="opacity:1" fill="#f72754" d="M 419.5,206.5 C 421.95,206.298 424.283,206.631 426.5,207.5C 425.741,209.436 424.741,211.269 423.5,213C 426.017,224.921 427.517,225.088 428,213.5C 428.739,212.426 429.739,211.759 431,211.5C 437.106,213.481 443.272,215.148 449.5,216.5C 453.537,217.065 457.203,218.399 460.5,220.5C 460.548,223.313 461.215,225.979 462.5,228.5C 463.325,229.386 464.325,229.719 465.5,229.5C 465.5,226.833 465.5,224.167 465.5,221.5C 467.153,221.66 468.486,222.326 469.5,223.5C 471.681,225.764 473.015,228.431 473.5,231.5C 473.5,232.833 473.5,234.167 473.5,235.5C 472.523,238.287 472.19,241.287 472.5,244.5C 470.784,244.371 469.117,244.038 467.5,243.5C 466.41,242.143 465.076,241.143 463.5,240.5C 464.5,240.5 465.5,240.5 466.5,240.5C 466.5,238.167 466.5,235.833 466.5,233.5C 465.5,233.5 464.5,233.5 463.5,233.5C 463.5,234.5 463.5,235.5 463.5,236.5C 459.5,235.833 455.5,235.167 451.5,234.5C 447.382,234.47 443.382,233.803 439.5,232.5C 431.611,231.357 423.944,229.69 416.5,227.5C 416.5,226.167 416.5,224.833 416.5,223.5C 416.5,222.5 416.5,221.5 416.5,220.5C 416.335,216.818 416.501,213.152 417,209.5C 418.417,208.922 419.25,207.922 419.5,206.5 Z"/></g>
<g><path style="opacity:1" fill="#f40029" d="M 433.5,223.5 C 438.827,224.599 444.16,225.766 449.5,227C 450.337,228.011 450.67,229.178 450.5,230.5C 445.106,230.122 439.773,229.288 434.5,228C 433.62,226.644 433.286,225.144 433.5,223.5 Z"/></g>
<g><path style="opacity:1" fill="#ce90aa" d="M 448.5,237.5 C 449.429,238.315 450.429,239.148 451.5,240C 450.748,240.671 450.414,241.504 450.5,242.5C 450.167,242.5 449.833,242.5 449.5,242.5C 441.399,239.722 433.066,237.388 424.5,235.5C 423.833,235.5 423.5,235.167 423.5,234.5C 423.281,233.325 423.614,232.325 424.5,231.5C 432.429,233.816 440.429,235.816 448.5,237.5 Z"/></g>
<g><path style="opacity:1" fill="#e9001e" d="M 473.5,231.5 C 484.943,234.944 496.61,237.277 508.5,238.5C 509.167,238.5 509.5,238.833 509.5,239.5C 510.234,240.708 510.567,242.041 510.5,243.5C 498.275,241.032 485.941,238.699 473.5,236.5C 473.5,236.167 473.5,235.833 473.5,235.5C 473.5,234.167 473.5,232.833 473.5,231.5 Z"/></g>
<g><path style="opacity:1" fill="#636262" d="M 332.5,243.5 C 334.531,245.522 336.865,247.189 339.5,248.5C 341.437,249.931 343.27,251.598 345,253.5C 362.722,279.715 380.222,306.049 397.5,332.5C 376.167,319.167 354.833,305.833 333.5,292.5C 330.565,287.235 326.899,282.568 322.5,278.5C 322.392,276.217 321.559,274.217 320,272.5C 312.285,262.958 304.785,253.291 297.5,243.5C 299.144,236.881 300.144,229.881 300.5,222.5C 310.881,230.018 321.548,237.018 332.5,243.5 Z"/></g>
<g><path style="opacity:1" fill="#a6042a" d="M 463.5,240.5 C 459.5,238.5 455.5,236.5 451.5,234.5C 455.5,235.167 459.5,235.833 463.5,236.5C 463.5,235.5 463.5,234.5 463.5,233.5C 464.5,233.5 465.5,233.5 466.5,233.5C 466.5,235.833 466.5,238.167 466.5,240.5C 465.5,240.5 464.5,240.5 463.5,240.5 Z"/></g>
<g><path style="opacity:1" fill="#fe8fa9" d="M 424.5,235.5 C 433.066,237.388 441.399,239.722 449.5,242.5C 448.072,245.012 447.572,247.678 448,250.5C 450.513,255.527 453.013,260.527 455.5,265.5C 442.836,262.834 430.169,260.167 417.5,257.5C 419.99,253.862 422.49,250.195 425,246.5C 424.89,242.871 424.724,239.204 424.5,235.5 Z"/></g>
<g><path style="opacity:1" fill="#9f0426" d="M 473.5,236.5 C 485.941,238.699 498.275,241.032 510.5,243.5C 510.932,244.71 511.599,245.71 512.5,246.5C 512.67,247.822 512.337,248.989 511.5,250C 508.787,251.275 505.953,252.109 503,252.5C 493.079,251.283 483.579,248.617 474.5,244.5C 473.52,241.914 473.187,239.247 473.5,236.5 Z"/></g>
<g><path style="opacity:1" fill="#d47f9c" d="M 511.5,235.5 C 513.426,236.242 515.259,237.242 517,238.5C 517.333,238.167 517.667,237.833 518,237.5C 520.646,238.98 520.812,240.313 518.5,241.5C 516.354,240.106 514.021,239.44 511.5,239.5C 511.5,238.167 511.5,236.833 511.5,235.5 Z"/></g>
<g><path style="opacity:1" fill="#dc8699" d="M 439.5,232.5 C 443.382,233.803 447.382,234.47 451.5,234.5C 455.5,236.5 459.5,238.5 463.5,240.5C 465.076,241.143 466.41,242.143 467.5,243.5C 461.458,240.737 455.125,238.737 448.5,237.5C 445.439,235.98 442.439,234.313 439.5,232.5 Z"/></g>
<g><path style="opacity:1" fill="#767373" d="M 582.5,241.5 C 584.343,242.283 586.343,242.95 588.5,243.5C 589.452,245.045 589.785,246.712 589.5,248.5C 589.5,251.167 589.5,253.833 589.5,256.5C 579.76,253.232 569.76,251.232 559.5,250.5C 559.5,249.833 559.5,249.167 559.5,248.5C 560.87,245.381 561.87,242.048 562.5,238.5C 569.114,239.755 575.78,240.755 582.5,241.5 Z"/></g>
<g><path style="opacity:1" fill="#fefdfe" d="M 449.5,242.5 C 449.833,242.5 450.167,242.5 450.5,242.5C 472.771,247.984 495.104,253.317 517.5,258.5C 516.243,264.454 515.243,270.454 514.5,276.5C 512.833,276.5 511.167,276.5 509.5,276.5C 491.39,273.473 473.39,269.807 455.5,265.5C 453.013,260.527 450.513,255.527 448,250.5C 447.572,247.678 448.072,245.012 449.5,242.5 Z"/></g>
<g><path style="opacity:1" fill="#cacaca" d="M 339.5,235.5 C 339.902,238.477 340.902,241.143 342.5,243.5C 353.002,246.474 363.669,248.807 374.5,250.5C 383.582,252.309 392.582,254.309 401.5,256.5C 407.792,263.962 414.292,271.295 421,278.5C 421.667,280.167 421.667,281.833 421,283.5C 417.229,298.154 413.896,312.821 411,327.5C 413.275,321.955 415.775,316.622 418.5,311.5C 416.971,318.615 414.971,325.615 412.5,332.5C 415.167,332.833 417.833,333.167 420.5,333.5C 430.828,332.899 441.162,332.399 451.5,332C 453.577,331.808 455.577,331.308 457.5,330.5C 461.606,322.622 465.439,314.622 469,306.5C 469.65,298.972 468.15,291.972 464.5,285.5C 464.5,285.167 464.5,284.833 464.5,284.5C 476.832,284.132 489.165,283.798 501.5,283.5C 501.966,292.059 502.966,300.559 504.5,309C 503.815,313.559 502.815,318.059 501.5,322.5C 502.095,324.761 503.429,326.428 505.5,327.5C 506.091,330.614 507.758,333.114 510.5,335C 522.5,345 534.5,355 546.5,365C 550.187,366.99 554.187,367.823 558.5,367.5C 566.155,366.856 573.822,366.523 581.5,366.5C 583.382,355.304 586.049,344.304 589.5,333.5C 589.335,330.15 589.502,326.817 590,323.5C 607.846,340.012 625.012,357.179 641.5,375C 634.908,393.984 628.242,412.818 621.5,431.5C 608.91,436.789 596.243,442.122 583.5,447.5C 583.666,442.821 583.499,438.155 583,433.5C 578.75,427.335 574.75,421.002 571,414.5C 563.525,409.181 555.691,404.514 547.5,400.5C 547.53,399.503 547.03,398.836 546,398.5C 533.864,395.345 522.198,391.011 511,385.5C 510.617,386.056 510.117,386.389 509.5,386.5C 506.185,385.671 502.852,384.838 499.5,384C 488.167,383.333 476.833,383.333 465.5,384C 455.33,390.252 444.997,396.252 434.5,402C 438.587,402.762 442.587,402.596 446.5,401.5C 446.5,402.167 446.833,402.5 447.5,402.5C 464.626,406.779 481.96,410.779 499.5,414.5C 495.833,428.5 492.167,442.5 488.5,456.5C 482.424,454.632 476.424,452.466 470.5,450C 451.6,438.392 432.933,426.559 414.5,414.5C 417.877,407.26 421.544,400.094 425.5,393C 424.685,391.02 423.352,389.52 421.5,388.5C 424.216,382.067 427.216,375.734 430.5,369.5C 429.675,368.614 428.675,368.281 427.5,368.5C 429.637,365.89 430.97,362.89 431.5,359.5C 431.89,357.018 430.89,355.685 428.5,355.5C 427.5,354.833 426.5,354.167 425.5,353.5C 417.735,348.108 409.735,342.942 401.5,338C 399.536,336.549 398.203,334.716 397.5,332.5C 380.222,306.049 362.722,279.715 345,253.5C 343.27,251.598 341.437,249.931 339.5,248.5C 339.5,244.167 339.5,239.833 339.5,235.5 Z"/></g>
<g><path style="opacity:1" fill="#ff74c5" d="M 527.5,243.5 C 531.574,243.782 535.574,244.448 539.5,245.5C 539.5,246.5 539.5,247.5 539.5,248.5C 537.5,248.5 535.5,248.5 533.5,248.5C 531.958,247.699 530.292,247.366 528.5,247.5C 528.567,246.041 528.234,244.708 527.5,243.5 Z"/></g>
<g><path style="opacity:1" fill="#d2cdce" d="M 473.5,235.5 C 473.5,235.833 473.5,236.167 473.5,236.5C 473.187,239.247 473.52,241.914 474.5,244.5C 483.579,248.617 493.079,251.283 503,252.5C 505.953,252.109 508.787,251.275 511.5,250C 512.337,248.989 512.67,247.822 512.5,246.5C 515.054,245.612 517.721,245.279 520.5,245.5C 521.278,246.156 521.944,246.989 522.5,248C 521.119,251.557 519.953,255.057 519,258.5C 520.668,255.79 521.501,255.957 521.5,259C 520.642,263.795 520.309,268.628 520.5,273.5C 525.713,273.041 529.046,275.208 530.5,280C 528.512,280.18 526.512,280.014 524.5,279.5C 519.273,279.022 514.273,278.022 509.5,276.5C 511.167,276.5 512.833,276.5 514.5,276.5C 515.243,270.454 516.243,264.454 517.5,258.5C 495.104,253.317 472.771,247.984 450.5,242.5C 450.414,241.504 450.748,240.671 451.5,240C 450.429,239.148 449.429,238.315 448.5,237.5C 455.125,238.737 461.458,240.737 467.5,243.5C 469.117,244.038 470.784,244.371 472.5,244.5C 472.19,241.287 472.523,238.287 473.5,235.5 Z"/></g>
<g><path style="opacity:1" fill="#fcf9fb" d="M 606.5,252.5 C 608.592,255.088 609.925,258.088 610.5,261.5C 603.625,259.659 596.625,258.325 589.5,257.5C 589.5,257.167 589.5,256.833 589.5,256.5C 589.5,253.833 589.5,251.167 589.5,248.5C 590.29,247.391 590.79,246.058 591,244.5C 595.828,247.831 600.995,250.497 606.5,252.5 Z"/></g>
<g><path style="opacity:1" fill="#d8a8bd" d="M 343.5,240.5 C 346.969,241.993 350.636,243.327 354.5,244.5C 362.39,245.809 370.056,247.476 377.5,249.5C 376.209,249.263 375.209,249.596 374.5,250.5C 363.669,248.807 353.002,246.474 342.5,243.5C 342.263,242.209 342.596,241.209 343.5,240.5 Z"/></g>
<g><path style="opacity:1" fill="#ff82c9" d="M 545.5,246.5 C 550.147,247.296 554.814,247.963 559.5,248.5C 559.5,249.167 559.5,249.833 559.5,250.5C 558.89,251.391 558.557,252.391 558.5,253.5C 556.708,253.634 555.042,253.301 553.5,252.5C 550.833,250.5 548.167,248.5 545.5,246.5 Z"/></g>
<g><path style="opacity:1" fill="#ea3f66" d="M 539.5,245.5 C 541.565,245.517 543.565,245.85 545.5,246.5C 548.167,248.5 550.833,250.5 553.5,252.5C 549.382,252.47 545.382,251.803 541.5,250.5C 538.572,250.435 535.905,249.768 533.5,248.5C 535.5,248.5 537.5,248.5 539.5,248.5C 539.5,247.5 539.5,246.5 539.5,245.5 Z"/></g>
<g><path style="opacity:1" fill="#df3d5c" d="M 559.5,250.5 C 569.76,251.232 579.76,253.232 589.5,256.5C 589.5,256.833 589.5,257.167 589.5,257.5C 589.5,258.5 589.5,259.5 589.5,260.5C 580.023,258.772 570.523,257.105 561,255.5C 559.624,255.316 558.791,254.649 558.5,253.5C 558.557,252.391 558.89,251.391 559.5,250.5 Z"/></g>
<g><path style="opacity:1" fill="#e287a1" d="M 520.5,245.5 C 521.5,245.5 522.5,245.5 523.5,245.5C 523.5,246.833 523.5,248.167 523.5,249.5C 525.553,249.598 527.22,248.931 528.5,247.5C 530.292,247.366 531.958,247.699 533.5,248.5C 535.905,249.768 538.572,250.435 541.5,250.5C 542.867,256.236 545.533,261.236 549.5,265.5C 549.5,272.167 549.5,278.833 549.5,285.5C 543.999,284.233 538.499,282.899 533,281.5C 530.422,281.682 529.922,282.682 531.5,284.5C 528.311,284.142 525.311,283.475 522.5,282.5C 524.857,282.663 527.19,282.497 529.5,282C 527.509,281.626 525.842,280.793 524.5,279.5C 526.512,280.014 528.512,280.18 530.5,280C 529.046,275.208 525.713,273.041 520.5,273.5C 520.309,268.628 520.642,263.795 521.5,259C 521.501,255.957 520.668,255.79 519,258.5C 519.953,255.057 521.119,251.557 522.5,248C 521.944,246.989 521.278,246.156 520.5,245.5 Z"/></g>
<g><path style="opacity:1" fill="#767374" d="M 541.5,250.5 C 545.382,251.803 549.382,252.47 553.5,252.5C 555.042,253.301 556.708,253.634 558.5,253.5C 558.791,254.649 559.624,255.316 561,255.5C 570.523,257.105 580.023,258.772 589.5,260.5C 589.5,260.833 589.5,261.167 589.5,261.5C 589.5,263.167 589.5,264.833 589.5,266.5C 594.117,265.513 598.784,264.846 603.5,264.5C 610.918,265.01 618.251,266.01 625.5,267.5C 625.611,268.117 625.944,268.617 626.5,269C 636.089,270.238 645.423,272.071 654.5,274.5C 643.163,273.262 631.829,271.928 620.5,270.5C 610.124,272.043 599.791,273.709 589.5,275.5C 589.5,281.5 589.5,287.5 589.5,293.5C 576.677,290.004 563.677,287.338 550.5,285.5C 551.277,279.178 551.444,272.845 551,266.5C 550.617,265.944 550.117,265.611 549.5,265.5C 545.533,261.236 542.867,256.236 541.5,250.5 Z"/></g>
<g><path style="opacity:1" fill="#797273" d="M 606.5,252.5 C 606.5,252.167 606.5,251.833 606.5,251.5C 615.257,254.529 623.924,257.529 632.5,260.5C 636.639,263.072 640.973,265.405 645.5,267.5C 648.696,268.929 651.696,270.595 654.5,272.5C 644.992,270.79 635.659,268.456 626.5,265.5C 621.118,264.714 615.784,263.714 610.5,262.5C 610.5,262.167 610.5,261.833 610.5,261.5C 609.925,258.088 608.592,255.088 606.5,252.5 Z"/></g>
<g><path style="opacity:1" fill="#f2a2cc" d="M 374.5,250.5 C 375.209,249.596 376.209,249.263 377.5,249.5C 384.191,250.705 390.858,252.038 397.5,253.5C 403.8,254.992 410.134,256.325 416.5,257.5C 416.5,257.833 416.5,258.167 416.5,258.5C 416.167,258.5 415.833,258.5 415.5,258.5C 410.784,258.154 406.117,257.487 401.5,256.5C 392.582,254.309 383.582,252.309 374.5,250.5 Z"/></g>
<g><path style="opacity:1" fill="#ff89cf" d="M 589.5,257.5 C 596.625,258.325 603.625,259.659 610.5,261.5C 610.5,261.833 610.5,262.167 610.5,262.5C 608.139,262.674 605.806,263.007 603.5,263.5C 598.799,263.043 594.132,262.376 589.5,261.5C 589.5,261.167 589.5,260.833 589.5,260.5C 589.5,259.5 589.5,258.5 589.5,257.5 Z"/></g>
<g><path style="opacity:1" fill="#fe8fa9" d="M 415.5,258.5 C 415.833,258.5 416.167,258.5 416.5,258.5C 429.732,262.806 443.065,265.806 456.5,267.5C 457.791,267.263 458.791,267.596 459.5,268.5C 458.503,268.47 457.836,268.97 457.5,270C 459.711,274.921 462.044,279.754 464.5,284.5C 464.5,284.833 464.5,285.167 464.5,285.5C 452.834,285.939 441.167,286.439 429.5,287C 427.328,290.847 425.328,294.681 423.5,298.5C 424.218,293.677 425.551,289.01 427.5,284.5C 422.5,277.833 417.5,271.167 412.5,264.5C 413.559,262.466 414.559,260.466 415.5,258.5 Z"/></g>
<g><path style="opacity:1" fill="#ff5c90" d="M 416.5,257.5 C 416.833,257.5 417.167,257.5 417.5,257.5C 430.169,260.167 442.836,262.834 455.5,265.5C 455.328,266.492 455.662,267.158 456.5,267.5C 443.065,265.806 429.732,262.806 416.5,258.5C 416.5,258.167 416.5,257.833 416.5,257.5 Z"/></g>
<g><path style="opacity:1" fill="#faf7f8" d="M 589.5,261.5 C 594.132,262.376 598.799,263.043 603.5,263.5C 603.5,263.833 603.5,264.167 603.5,264.5C 598.784,264.846 594.117,265.513 589.5,266.5C 589.5,264.833 589.5,263.167 589.5,261.5 Z"/></g>
<g><path style="opacity:0.976" fill="#8b8b8b" d="M -0.5,264.5 C 36.8384,281.501 74.1717,298.501 111.5,315.5C 144.065,330.478 176.731,345.478 209.5,360.5C 210.641,362.421 210.808,364.421 210,366.5C 205.176,386.458 200.676,406.458 196.5,426.5C 193.697,437.712 190.864,449.045 188,460.5C 187.257,462.441 187.424,464.274 188.5,466C 214.086,475.806 239.753,485.306 265.5,494.5C 267.139,495.473 268.473,496.806 269.5,498.5C 241.935,489.399 214.435,480.066 187,470.5C 185.408,472.491 183.908,474.491 182.5,476.5C 188.117,445.468 193.95,414.468 200,383.5C 201.766,376.245 202.433,368.912 202,361.5C 134.528,334.732 67.0277,308.065 -0.5,281.5C -0.5,275.833 -0.5,270.167 -0.5,264.5 Z"/></g>
<g><path style="opacity:1" fill="#e23b5c" d="M 610.5,262.5 C 615.784,263.714 621.118,264.714 626.5,265.5C 628.031,266.925 627.698,267.591 625.5,267.5C 618.251,266.01 610.918,265.01 603.5,264.5C 603.5,264.167 603.5,263.833 603.5,263.5C 605.806,263.007 608.139,262.674 610.5,262.5 Z"/></g>
<g><path style="opacity:1" fill="#e9e7e8" d="M 549.5,265.5 C 550.117,265.611 550.617,265.944 551,266.5C 551.444,272.845 551.277,279.178 550.5,285.5C 550.167,285.5 549.833,285.5 549.5,285.5C 549.5,278.833 549.5,272.167 549.5,265.5 Z"/></g>
<g><path style="opacity:1" fill="#c64c63" d="M 626.5,265.5 C 635.659,268.456 644.992,270.79 654.5,272.5C 662.499,275.14 662.499,275.806 654.5,274.5C 645.423,272.071 636.089,270.238 626.5,269C 625.944,268.617 625.611,268.117 625.5,267.5C 627.698,267.591 628.031,266.925 626.5,265.5 Z"/></g>
<g><path style="opacity:1" fill="#fdfcfd" d="M 459.5,268.5 C 477.415,271.767 495.082,275.767 512.5,280.5C 511.172,285.463 510.339,290.463 510,295.5C 511.333,290.833 512.667,286.167 514,281.5C 512.011,296.949 509.178,312.282 505.5,327.5C 503.429,326.428 502.095,324.761 501.5,322.5C 502.815,318.059 503.815,313.559 504.5,309C 502.966,300.559 501.966,292.059 501.5,283.5C 489.165,283.798 476.832,284.132 464.5,284.5C 462.044,279.754 459.711,274.921 457.5,270C 457.836,268.97 458.503,268.47 459.5,268.5 Z"/></g>
<g><path style="opacity:1" fill="#fcfbfc" d="M 645.5,267.5 C 645.56,266.957 645.893,266.624 646.5,266.5C 663.461,272.376 680.461,278.043 697.5,283.5C 699.285,283.926 700.285,285.092 700.5,287C 698.677,296.104 697.344,305.271 696.5,314.5C 695.167,314.5 693.833,314.5 692.5,314.5C 692.055,309.663 690.888,304.996 689,300.5C 682.747,296.289 676.247,292.455 669.5,289C 652.912,285.987 636.246,283.487 619.5,281.5C 613.134,282.087 606.801,282.921 600.5,284C 599.418,285.33 598.751,286.83 598.5,288.5C 598.5,290.5 598.5,292.5 598.5,294.5C 595.455,294.492 592.455,294.159 589.5,293.5C 589.5,287.5 589.5,281.5 589.5,275.5C 599.791,273.709 610.124,272.043 620.5,270.5C 631.829,271.928 643.163,273.262 654.5,274.5C 662.499,275.806 662.499,275.14 654.5,272.5C 651.696,270.595 648.696,268.929 645.5,267.5 Z"/></g>
<g><path style="opacity:1" fill="#fe8fcf" d="M 455.5,265.5 C 473.39,269.807 491.39,273.473 509.5,276.5C 514.273,278.022 519.273,279.022 524.5,279.5C 525.842,280.793 527.509,281.626 529.5,282C 527.19,282.497 524.857,282.663 522.5,282.5C 519.456,280.989 516.122,280.322 512.5,280.5C 495.082,275.767 477.415,271.767 459.5,268.5C 458.791,267.596 457.791,267.263 456.5,267.5C 455.662,267.158 455.328,266.492 455.5,265.5 Z"/></g>
<g><path style="opacity:1" fill="#cdcdcd" d="M 632.5,260.5 C 654.233,267.3 675.899,274.3 697.5,281.5C 697.5,282.167 697.5,282.833 697.5,283.5C 680.461,278.043 663.461,272.376 646.5,266.5C 645.893,266.624 645.56,266.957 645.5,267.5C 640.973,265.405 636.639,263.072 632.5,260.5 Z"/></g>
<g><path style="opacity:1" fill="#5c5c5c" d="M 322.5,278.5 C 326.899,282.568 330.565,287.235 333.5,292.5C 301.925,345.99 268.592,398.324 233.5,449.5C 249.955,461.234 266.622,472.734 283.5,484C 284.759,484.982 286.092,485.315 287.5,485C 312.46,441.581 337.293,398.081 362,354.5C 368.049,347.452 373.716,340.119 379,332.5C 352.26,383.972 324.926,435.305 297,486.5C 297.469,491.105 299.302,495.105 302.5,498.5C 304.234,502.3 306.234,505.966 308.5,509.5C 294.036,504.679 279.702,499.679 265.5,494.5C 239.753,485.306 214.086,475.806 188.5,466C 187.424,464.274 187.257,462.441 188,460.5C 190.864,449.045 193.697,437.712 196.5,426.5C 206.15,431.805 215.816,437.138 225.5,442.5C 242.162,419.663 258.662,396.663 275,373.5C 290.847,341.807 306.68,310.14 322.5,278.5 Z"/></g>
<g><path style="opacity:1" fill="#fbf9fa" d="M 401.5,256.5 C 406.117,257.487 410.784,258.154 415.5,258.5C 414.559,260.466 413.559,262.466 412.5,264.5C 417.5,271.167 422.5,277.833 427.5,284.5C 425.551,289.01 424.218,293.677 423.5,298.5C 421.634,302.766 419.967,307.099 418.5,311.5C 415.775,316.622 413.275,321.955 411,327.5C 413.896,312.821 417.229,298.154 421,283.5C 421.667,281.833 421.667,280.167 421,278.5C 414.292,271.295 407.792,263.962 401.5,256.5 Z"/></g>
<g><path style="opacity:1" fill="#cbcaca" d="M 692.5,314.5 C 684.582,313.633 676.915,311.799 669.5,309C 665.187,308.265 660.853,307.765 656.5,307.5C 655.391,307.443 654.391,307.11 653.5,306.5C 645.967,301.569 638.301,296.902 630.5,292.5C 627.567,290.355 624.567,288.188 621.5,286C 613.885,285.401 606.552,286.234 599.5,288.5C 599.167,288.5 598.833,288.5 598.5,288.5C 598.751,286.83 599.418,285.33 600.5,284C 606.801,282.921 613.134,282.087 619.5,281.5C 636.246,283.487 652.912,285.987 669.5,289C 676.247,292.455 682.747,296.289 689,300.5C 690.888,304.996 692.055,309.663 692.5,314.5 Z"/></g>
<g><path style="opacity:1" fill="#240008" d="M -0.5,281.5 C 67.0277,308.065 134.528,334.732 202,361.5C 202.433,368.912 201.766,376.245 200,383.5C 193.95,414.468 188.117,445.468 182.5,476.5C 182.5,477.167 182.5,477.833 182.5,478.5C 168.008,551.966 154.008,625.633 140.5,699.5C 93.5,699.5 46.5,699.5 -0.5,699.5C -0.5,560.167 -0.5,420.833 -0.5,281.5 Z"/></g>
<g><path style="opacity:1" fill="#e3e2e2" d="M 512.5,280.5 C 516.122,280.322 519.456,280.989 522.5,282.5C 525.311,283.475 528.311,284.142 531.5,284.5C 531.66,286.199 531.494,287.866 531,289.5C 527.73,295.04 524.73,300.707 522,306.5C 521.299,310.971 520.133,315.304 518.5,319.5C 518.833,320.167 519.167,320.833 519.5,321.5C 528.711,317.432 538.044,313.765 547.5,310.5C 547.187,306.958 547.521,303.625 548.5,300.5C 548.183,304.702 548.517,308.702 549.5,312.5C 547.981,313.41 546.315,314.243 544.5,315C 549.375,320.043 554.375,324.876 559.5,329.5C 555.267,340.031 551.767,350.698 549,361.5C 556.641,351.025 564.475,340.691 572.5,330.5C 577.651,329.833 582.651,329.166 587.5,328.5C 588.167,330.167 588.833,331.833 589.5,333.5C 586.049,344.304 583.382,355.304 581.5,366.5C 573.822,366.523 566.155,366.856 558.5,367.5C 554.187,367.823 550.187,366.99 546.5,365C 534.5,355 522.5,345 510.5,335C 507.758,333.114 506.091,330.614 505.5,327.5C 509.178,312.282 512.011,296.949 514,281.5C 512.667,286.167 511.333,290.833 510,295.5C 510.339,290.463 511.172,285.463 512.5,280.5 Z"/></g>
<g><path style="opacity:0.994" fill="#aaa9a9" d="M 697.5,281.5 C 720.066,289.796 742.399,298.462 764.5,307.5C 755.997,312.584 747.664,317.917 739.5,323.5C 739.167,323.5 738.833,323.5 738.5,323.5C 725.763,321.378 713.096,319.044 700.5,316.5C 699.167,315.833 697.833,315.167 696.5,314.5C 697.344,305.271 698.677,296.104 700.5,287C 700.285,285.092 699.285,283.926 697.5,283.5C 697.5,282.833 697.5,282.167 697.5,281.5 Z"/></g>
<g><path style="opacity:1" fill="#f74a85" d="M 549.5,285.5 C 549.833,285.5 550.167,285.5 550.5,285.5C 550.5,286.167 550.5,286.833 550.5,287.5C 544.097,286.886 537.764,285.886 531.5,284.5C 529.922,282.682 530.422,281.682 533,281.5C 538.499,282.899 543.999,284.233 549.5,285.5 Z"/></g>
<g><path style="opacity:1" fill="#cb8fa9" d="M 464.5,285.5 C 468.15,291.972 469.65,298.972 469,306.5C 465.439,314.622 461.606,322.622 457.5,330.5C 455.577,331.308 453.577,331.808 451.5,332C 441.162,332.399 430.828,332.899 420.5,333.5C 417.833,333.167 415.167,332.833 412.5,332.5C 414.971,325.615 416.971,318.615 418.5,311.5C 419.967,307.099 421.634,302.766 423.5,298.5C 425.328,294.681 427.328,290.847 429.5,287C 441.167,286.439 452.834,285.939 464.5,285.5 Z"/></g>
<g><path style="opacity:1" fill="#e289a3" d="M 531.5,284.5 C 537.764,285.886 544.097,286.886 550.5,287.5C 550.5,287.833 550.5,288.167 550.5,288.5C 548.586,291.684 547.92,295.351 548.5,299.5C 548.5,299.833 548.5,300.167 548.5,300.5C 547.521,303.625 547.187,306.958 547.5,310.5C 538.044,313.765 528.711,317.432 519.5,321.5C 519.167,320.833 518.833,320.167 518.5,319.5C 520.133,315.304 521.299,310.971 522,306.5C 524.73,300.707 527.73,295.04 531,289.5C 531.494,287.866 531.66,286.199 531.5,284.5 Z"/></g>
<g><path style="opacity:1" fill="#a3132e" d="M 630.5,292.5 C 626.992,291.496 623.826,289.829 621,287.5C 621.584,292.982 619.417,296.649 614.5,298.5C 610.84,297.327 607.007,296.327 603,295.5C 602.235,295.57 601.735,295.903 601.5,296.5C 600.883,296.389 600.383,296.056 600,295.5C 599.503,293.19 599.337,290.857 599.5,288.5C 606.552,286.234 613.885,285.401 621.5,286C 624.567,288.188 627.567,290.355 630.5,292.5 Z"/></g>
<g><path style="opacity:1" fill="#f8305d" d="M 630.5,292.5 C 638.301,296.902 645.967,301.569 653.5,306.5C 652.25,306.577 651.417,307.244 651,308.5C 650.517,307.552 650.351,306.552 650.5,305.5C 645.309,304.096 639.976,302.929 634.5,302C 633.663,300.989 633.33,299.822 633.5,298.5C 629.493,297.996 625.493,297.83 621.5,298C 618.944,299.055 617.277,300.888 616.5,303.5C 614.181,303.008 612.181,302.008 610.5,300.5C 612.062,300.267 613.395,299.6 614.5,298.5C 619.417,296.649 621.584,292.982 621,287.5C 623.826,289.829 626.992,291.496 630.5,292.5 Z"/></g>
<g><path style="opacity:1" fill="#757474" d="M 550.5,288.5 C 563.419,291.311 576.419,293.978 589.5,296.5C 589.5,296.833 589.5,297.167 589.5,297.5C 589.408,307.884 588.408,317.884 586.5,327.5C 574.082,322.694 561.748,317.694 549.5,312.5C 548.517,308.702 548.183,304.702 548.5,300.5C 548.5,300.167 548.5,299.833 548.5,299.5C 549.402,296.003 550.069,292.337 550.5,288.5 Z"/></g>
<g><path style="opacity:1" fill="#d8425e" d="M 550.5,285.5 C 563.677,287.338 576.677,290.004 589.5,293.5C 589.5,294.5 589.5,295.5 589.5,296.5C 576.419,293.978 563.419,291.311 550.5,288.5C 550.5,288.167 550.5,287.833 550.5,287.5C 550.5,286.833 550.5,286.167 550.5,285.5 Z"/></g>
<g><path style="opacity:1" fill="#9b9b9b" d="M 333.5,292.5 C 354.833,305.833 376.167,319.167 397.5,332.5C 398.203,334.716 399.536,336.549 401.5,338C 409.735,342.942 417.735,348.108 425.5,353.5C 416.786,351.04 408.119,348.373 399.5,345.5C 395.32,350.543 391.653,355.877 388.5,361.5C 380.144,371.703 372.31,382.37 365,393.5C 362,396.5 359,399.5 356,402.5C 351,412.5 346,422.5 341,432.5C 336.634,437.201 331.967,441.534 327,445.5C 323.861,454.415 321.028,463.415 318.5,472.5C 317.833,474.167 317.167,475.833 316.5,477.5C 311.833,484.5 307.167,491.5 302.5,498.5C 299.302,495.105 297.469,491.105 297,486.5C 324.926,435.305 352.26,383.972 379,332.5C 373.716,340.119 368.049,347.452 362,354.5C 337.293,398.081 312.46,441.581 287.5,485C 286.092,485.315 284.759,484.982 283.5,484C 266.622,472.734 249.955,461.234 233.5,449.5C 268.592,398.324 301.925,345.99 333.5,292.5 Z"/></g>
<g><path style="opacity:1" fill="#dad2d5" d="M 550.5,288.5 C 550.069,292.337 549.402,296.003 548.5,299.5C 547.92,295.351 548.586,291.684 550.5,288.5 Z"/></g>
<g><path style="opacity:1" fill="#f26ea9" d="M 598.5,288.5 C 598.833,288.5 599.167,288.5 599.5,288.5C 599.337,290.857 599.503,293.19 600,295.5C 600.383,296.056 600.883,296.389 601.5,296.5C 604.032,297.596 606.365,298.929 608.5,300.5C 603.53,299.647 598.53,298.98 593.5,298.5C 592.432,297.566 591.099,297.232 589.5,297.5C 589.5,297.167 589.5,296.833 589.5,296.5C 589.5,295.5 589.5,294.5 589.5,293.5C 592.455,294.159 595.455,294.492 598.5,294.5C 598.5,292.5 598.5,290.5 598.5,288.5 Z"/></g>
<g><path style="opacity:1" fill="#df0525" d="M 601.5,296.5 C 601.735,295.903 602.235,295.57 603,295.5C 607.007,296.327 610.84,297.327 614.5,298.5C 613.395,299.6 612.062,300.267 610.5,300.5C 609.833,300.5 609.167,300.5 608.5,300.5C 606.365,298.929 604.032,297.596 601.5,296.5 Z"/></g>
<g><path style="opacity:1" fill="#cbcaca" d="M 593.5,298.5 C 598.53,298.98 603.53,299.647 608.5,300.5C 609.167,300.5 609.833,300.5 610.5,300.5C 612.181,302.008 614.181,303.008 616.5,303.5C 621.879,307.858 627.879,311.192 634.5,313.5C 638.806,317.321 643.473,320.655 648.5,323.5C 648.5,324.167 648.833,324.5 649.5,324.5C 656.084,328.747 662.084,333.747 667.5,339.5C 652.337,342.86 637.004,345.027 621.5,346C 611.243,338.288 601.076,330.454 591,322.5C 590.855,314.379 591.688,306.379 593.5,298.5 Z"/></g>
<g><path style="opacity:1" fill="#ed113b" d="M 653.5,306.5 C 654.391,307.11 655.391,307.443 656.5,307.5C 658.5,309.167 660.5,310.833 662.5,312.5C 661.167,312.5 659.833,312.5 658.5,312.5C 656.912,308.518 654.579,307.851 651.5,310.5C 646.357,309.104 641.19,307.771 636,306.5C 632.874,308.621 632.374,310.955 634.5,313.5C 627.879,311.192 621.879,307.858 616.5,303.5C 617.277,300.888 618.944,299.055 621.5,298C 625.493,297.83 629.493,297.996 633.5,298.5C 633.33,299.822 633.663,300.989 634.5,302C 639.976,302.929 645.309,304.096 650.5,305.5C 650.351,306.552 650.517,307.552 651,308.5C 651.417,307.244 652.25,306.577 653.5,306.5 Z"/></g>
<g><path style="opacity:1" fill="#f369a3" d="M 656.5,307.5 C 660.853,307.765 665.187,308.265 669.5,309C 676.915,311.799 684.582,313.633 692.5,314.5C 693.833,314.5 695.167,314.5 696.5,314.5C 697.833,315.167 699.167,315.833 700.5,316.5C 698.833,316.5 697.167,316.5 695.5,316.5C 695.5,317.5 695.5,318.5 695.5,319.5C 694.833,319.5 694.167,319.5 693.5,319.5C 684.022,317.004 674.356,315.004 664.5,313.5C 663.833,313.167 663.167,312.833 662.5,312.5C 660.5,310.833 658.5,309.167 656.5,307.5 Z"/></g>
<g><path style="opacity:1" fill="#f7335e" d="M 658.5,312.5 C 656.262,317.071 653.262,321.071 649.5,324.5C 648.833,324.5 648.5,324.167 648.5,323.5C 647.71,322.206 646.71,321.039 645.5,320C 646.863,317.871 646.529,317.371 644.5,318.5C 641.133,316.775 637.8,315.108 634.5,313.5C 632.374,310.955 632.874,308.621 636,306.5C 641.19,307.771 646.357,309.104 651.5,310.5C 654.579,307.851 656.912,308.518 658.5,312.5 Z"/></g>
<g><path style="opacity:1" fill="#9f0a29" d="M 658.5,312.5 C 659.833,312.5 661.167,312.5 662.5,312.5C 663.167,312.833 663.833,313.167 664.5,313.5C 669.5,320.833 674.5,328.167 679.5,335.5C 679.586,336.496 679.252,337.329 678.5,338C 674.855,338.719 671.188,339.219 667.5,339.5C 662.084,333.747 656.084,328.747 649.5,324.5C 653.262,321.071 656.262,317.071 658.5,312.5 Z"/></g>
<g><path style="opacity:1" fill="#cbc9ca" d="M 664.5,313.5 C 674.356,315.004 684.022,317.004 693.5,319.5C 686.795,341.248 679.795,362.915 672.5,384.5C 672.863,385.183 673.196,385.85 673.5,386.5C 672.29,386.932 671.29,387.599 670.5,388.5C 669.833,388.5 669.167,388.5 668.5,388.5C 672.461,371.825 677.128,355.325 682.5,339C 681.629,337.636 680.629,336.47 679.5,335.5C 674.5,328.167 669.5,320.833 664.5,313.5 Z"/></g>
<g><path style="opacity:1" fill="#e290aa" d="M 549.5,312.5 C 561.748,317.694 574.082,322.694 586.5,327.5C 586.5,328.167 586.833,328.5 587.5,328.5C 582.651,329.166 577.651,329.833 572.5,330.5C 564.475,340.691 556.641,351.025 549,361.5C 551.767,350.698 555.267,340.031 559.5,329.5C 554.375,324.876 549.375,320.043 544.5,315C 546.315,314.243 547.981,313.41 549.5,312.5 Z"/></g>
<g><path style="opacity:1" fill="#ee5385" d="M 700.5,316.5 C 713.096,319.044 725.763,321.378 738.5,323.5C 737.308,325.113 736.308,326.78 735.5,328.5C 722.282,325.741 708.949,322.741 695.5,319.5C 695.5,318.5 695.5,317.5 695.5,316.5C 697.167,316.5 698.833,316.5 700.5,316.5 Z"/></g>
<g><path style="opacity:1" fill="#b02e46" d="M 634.5,313.5 C 637.8,315.108 641.133,316.775 644.5,318.5C 646.529,317.371 646.863,317.871 645.5,320C 646.71,321.039 647.71,322.206 648.5,323.5C 643.473,320.655 638.806,317.321 634.5,313.5 Z"/></g>
<g><path style="opacity:0.994" fill="#a8a7a8" d="M 693.5,319.5 C 694.167,319.5 694.833,319.5 695.5,319.5C 708.949,322.741 722.282,325.741 735.5,328.5C 735.5,328.833 735.5,329.167 735.5,329.5C 728.268,344.19 722.601,359.524 718.5,375.5C 717.325,375.281 716.325,375.614 715.5,376.5C 714.211,379.58 712.545,382.414 710.5,385C 698.171,385.674 685.838,386.174 673.5,386.5C 673.196,385.85 672.863,385.183 672.5,384.5C 679.795,362.915 686.795,341.248 693.5,319.5 Z"/></g>
<g><path style="opacity:0.847" fill="#ef3863" d="M 738.5,323.5 C 738.833,323.5 739.167,323.5 739.5,323.5C 781.031,332.607 822.365,342.607 863.5,353.5C 862.333,353.833 861.167,354.167 860,354.5C 818.277,347.075 776.777,338.742 735.5,329.5C 735.5,329.167 735.5,328.833 735.5,328.5C 736.308,326.78 737.308,325.113 738.5,323.5 Z"/></g>
<g><path style="opacity:1" fill="#ca6286" d="M 425.5,353.5 C 426.5,354.167 427.5,354.833 428.5,355.5C 426.783,360.602 424.783,365.602 422.5,370.5C 415.546,372.393 408.546,374.226 401.5,376C 399.601,378.988 397.601,381.821 395.5,384.5C 392.499,381.507 389.165,378.841 385.5,376.5C 383.443,378.269 381.61,380.269 380,382.5C 379.493,383.996 379.993,385.163 381.5,386C 384.691,388.426 388.025,390.593 391.5,392.5C 389.833,395.167 388.167,397.833 386.5,400.5C 382.354,397.922 378.354,395.089 374.5,392C 373.551,391.383 372.718,391.549 372,392.5C 370.699,394.402 370.032,396.402 370,398.5C 373.709,401.715 377.542,404.715 381.5,407.5C 380.59,410.992 378.924,413.992 376.5,416.5C 373.062,413.565 369.729,410.399 366.5,407C 365.668,406.312 365.002,406.479 364.5,407.5C 362.749,409.972 361.915,412.639 362,415.5C 365.271,418.216 368.771,420.549 372.5,422.5C 371.696,425.442 370.362,428.109 368.5,430.5C 364.852,427.858 361.185,425.191 357.5,422.5C 355.443,424.269 353.61,426.269 352,428.5C 351.493,429.996 351.993,431.163 353.5,432C 356.986,433.996 360.319,436.163 363.5,438.5C 349.749,462.34 335.749,486.006 321.5,509.5C 319.268,500.685 317.268,491.685 315.5,482.5C 316.046,480.865 316.38,479.199 316.5,477.5C 317.167,475.833 317.833,474.167 318.5,472.5C 342.08,435.677 365.414,398.677 388.5,361.5C 391.653,355.877 395.32,350.543 399.5,345.5C 408.119,348.373 416.786,351.04 425.5,353.5 Z"/></g>
<g><path style="opacity:1" fill="#9e9e9e" d="M 428.5,355.5 C 430.89,355.685 431.89,357.018 431.5,359.5C 430.97,362.89 429.637,365.89 427.5,368.5C 425.972,369.309 424.306,369.976 422.5,370.5C 424.783,365.602 426.783,360.602 428.5,355.5 Z"/></g>
<g><path style="opacity:1" fill="#fefdfd" d="M 427.5,368.5 C 428.675,368.281 429.675,368.614 430.5,369.5C 427.216,375.734 424.216,382.067 421.5,388.5C 406.264,418.64 391.264,448.974 376.5,479.5C 372.442,485.605 370.108,492.272 369.5,499.5C 369.665,503.182 369.499,506.848 369,510.5C 366.822,514.855 364.656,519.189 362.5,523.5C 361.263,524.965 360.263,526.632 359.5,528.5C 349.845,525.17 340.178,521.837 330.5,518.5C 326.721,517.442 323.054,516.109 319.5,514.5C 319.893,512.716 320.559,511.05 321.5,509.5C 335.749,486.006 349.749,462.34 363.5,438.5C 365.653,436.206 367.32,433.54 368.5,430.5C 370.362,428.109 371.696,425.442 372.5,422.5C 374.326,420.853 375.66,418.853 376.5,416.5C 378.924,413.992 380.59,410.992 381.5,407.5C 383.522,405.469 385.189,403.135 386.5,400.5C 388.167,397.833 389.833,395.167 391.5,392.5C 392.847,389.807 394.18,387.14 395.5,384.5C 397.601,381.821 399.601,378.988 401.5,376C 408.546,374.226 415.546,372.393 422.5,370.5C 424.306,369.976 425.972,369.309 427.5,368.5 Z"/></g>
<g><path style="opacity:1" fill="#9d6186" d="M 388.5,361.5 C 365.414,398.677 342.08,435.677 318.5,472.5C 321.028,463.415 323.861,454.415 327,445.5C 331.967,441.534 336.634,437.201 341,432.5C 346,422.5 351,412.5 356,402.5C 359,399.5 362,396.5 365,393.5C 372.31,382.37 380.144,371.703 388.5,361.5 Z"/></g>
<g><path style="opacity:0.989" fill="#f4f4f4" d="M 718.5,375.5 C 721.884,377.443 725.551,378.943 729.5,380C 731.293,382.795 733.46,385.295 736,387.5C 738.343,399.735 739.009,412.068 738,424.5C 735.057,440.494 732.223,456.494 729.5,472.5C 724.573,497.041 719.74,521.708 715,546.5C 714.517,545.552 714.351,544.552 714.5,543.5C 720.9,503.098 727.734,462.765 735,422.5C 735.667,411.5 735.667,400.5 735,389.5C 734.085,388.672 733.419,387.672 733,386.5C 733.529,393.112 734.029,399.778 734.5,406.5C 713.1,400.699 691.767,394.699 670.5,388.5C 671.29,387.599 672.29,386.932 673.5,386.5C 685.838,386.174 698.171,385.674 710.5,385C 712.545,382.414 714.211,379.58 715.5,376.5C 716.325,375.614 717.325,375.281 718.5,375.5 Z"/></g>
<g><path style="opacity:1" fill="#0c0c0c" d="M 395.5,384.5 C 394.18,387.14 392.847,389.807 391.5,392.5C 388.025,390.593 384.691,388.426 381.5,386C 379.993,385.163 379.493,383.996 380,382.5C 381.61,380.269 383.443,378.269 385.5,376.5C 389.165,378.841 392.499,381.507 395.5,384.5 Z"/></g>
<g><path style="opacity:1" fill="#f489a2" d="M 547.5,400.5 C 543.395,403.27 540.395,406.937 538.5,411.5C 529.012,410.215 520.012,407.548 511.5,403.5C 509.408,402.106 507.742,400.272 506.5,398C 507.894,394.255 508.894,390.422 509.5,386.5C 510.117,386.389 510.617,386.056 511,385.5C 522.198,391.011 533.864,395.345 546,398.5C 547.03,398.836 547.53,399.503 547.5,400.5 Z"/></g>
<g><path style="opacity:1" fill="#9e9e9e" d="M 421.5,388.5 C 423.352,389.52 424.685,391.02 425.5,393C 421.544,400.094 417.877,407.26 414.5,414.5C 413.115,415.574 411.949,416.907 411,418.5C 400.242,437.741 389.742,457.074 379.5,476.5C 378.728,477.694 377.728,478.694 376.5,479.5C 391.264,448.974 406.264,418.64 421.5,388.5 Z"/></g>
<g><path style="opacity:1" fill="#0c0c0c" d="M 714.5,543.5 C 708.538,573.932 703.205,604.599 698.5,635.5C 697.662,635.842 697.328,636.508 697.5,637.5C 697.41,639.696 697.077,641.863 696.5,644C 696.316,645.376 695.649,646.209 694.5,646.5C 692.784,646.371 691.117,646.038 689.5,645.5C 702.842,574.288 716.509,503.122 730.5,432C 730.333,430.833 730.167,429.667 730,428.5C 729.282,427.549 728.449,427.383 727.5,428C 720.974,436.359 714.641,444.859 708.5,453.5C 706.955,454.452 705.288,454.785 703.5,454.5C 703.5,453.833 703.167,453.5 702.5,453.5C 701.32,450.46 699.653,447.794 697.5,445.5C 688.104,441.557 678.438,438.057 668.5,435C 665.953,432.946 663.286,431.113 660.5,429.5C 659.833,429.167 659.167,428.833 658.5,428.5C 673.073,432.397 687.74,437.064 702.5,442.5C 703.735,445.301 705.235,447.968 707,450.5C 713.452,442.557 719.285,434.223 724.5,425.5C 724.154,424.151 723.821,422.817 723.5,421.5C 723.5,418.5 723.5,415.5 723.5,412.5C 717.483,410.827 711.483,409.16 705.5,407.5C 694.696,403.279 683.696,399.279 672.5,395.5C 670.812,396.521 669.479,397.855 668.5,399.5C 667.363,400.789 666.03,401.789 664.5,402.5C 664.5,398.833 664.5,395.167 664.5,391.5C 665.833,390.5 667.167,389.5 668.5,388.5C 669.167,388.5 669.833,388.5 670.5,388.5C 691.767,394.699 713.1,400.699 734.5,406.5C 734.029,399.778 733.529,393.112 733,386.5C 733.419,387.672 734.085,388.672 735,389.5C 735.667,400.5 735.667,411.5 735,422.5C 727.734,462.765 720.9,503.098 714.5,543.5 Z"/></g>
<g><path style="opacity:1" fill="#0c0c0c" d="M 386.5,400.5 C 385.189,403.135 383.522,405.469 381.5,407.5C 377.542,404.715 373.709,401.715 370,398.5C 370.032,396.402 370.699,394.402 372,392.5C 372.718,391.549 373.551,391.383 374.5,392C 378.354,395.089 382.354,397.922 386.5,400.5 Z"/></g>
<g><path style="opacity:1" fill="#e7e7e7" d="M 705.5,407.5 C 694.742,404.915 684.075,401.915 673.5,398.5C 671.813,398.76 670.313,399.427 669,400.5C 668.601,400.272 668.435,399.938 668.5,399.5C 669.479,397.855 670.812,396.521 672.5,395.5C 683.696,399.279 694.696,403.279 705.5,407.5 Z"/></g>
<g><path style="opacity:1" fill="#c5c5c5" d="M 664.5,391.5 C 664.5,395.167 664.5,398.833 664.5,402.5C 662.56,406.28 660.393,409.946 658,413.5C 657.31,414.738 656.81,414.738 656.5,413.5C 657.091,410.06 658.091,406.727 659.5,403.5C 659.376,402.893 659.043,402.56 658.5,402.5C 661.312,399.204 663.312,395.537 664.5,391.5 Z"/></g>
<g><path style="opacity:1" fill="#949494" d="M 705.5,407.5 C 711.483,409.16 717.483,410.827 723.5,412.5C 723.5,415.5 723.5,418.5 723.5,421.5C 722.683,419.031 722.183,416.365 722,413.5C 721.867,416.525 720.867,419.192 719,421.5C 713.286,428.375 707.786,435.375 702.5,442.5C 687.74,437.064 673.073,432.397 658.5,428.5C 656.014,427.538 656.014,426.705 658.5,426C 656.372,425.345 654.372,424.511 652.5,423.5C 653.045,420.14 654.379,416.807 656.5,413.5C 656.81,414.738 657.31,414.738 658,413.5C 660.393,409.946 662.56,406.28 664.5,402.5C 666.03,401.789 667.363,400.789 668.5,399.5C 668.435,399.938 668.601,400.272 669,400.5C 670.313,399.427 671.813,398.76 673.5,398.5C 684.075,401.915 694.742,404.915 705.5,407.5 Z"/></g>
<g><path style="opacity:1" fill="#f9f9f9" d="M 509.5,386.5 C 508.894,390.422 507.894,394.255 506.5,398C 507.742,400.272 509.408,402.106 511.5,403.5C 502.891,401.41 494.224,399.91 485.5,399C 500.623,402.316 514.957,407.483 528.5,414.5C 526.929,416.635 525.596,418.968 524.5,421.5C 524.44,422.043 524.107,422.376 523.5,422.5C 515.528,418.731 507.528,416.064 499.5,414.5C 481.96,410.779 464.626,406.779 447.5,402.5C 459.662,399.696 471.995,398.196 484.5,398C 480.179,397.102 475.845,396.269 471.5,395.5C 463.051,397.096 454.718,399.096 446.5,401.5C 442.587,402.596 438.587,402.762 434.5,402C 444.997,396.252 455.33,390.252 465.5,384C 476.833,383.333 488.167,383.333 499.5,384C 502.852,384.838 506.185,385.671 509.5,386.5 Z"/></g>
<g><path style="opacity:1" fill="#101010" d="M 447.5,402.5 C 446.833,402.5 446.5,402.167 446.5,401.5C 454.718,399.096 463.051,397.096 471.5,395.5C 475.845,396.269 480.179,397.102 484.5,398C 471.995,398.196 459.662,399.696 447.5,402.5 Z"/></g>
<g><path style="opacity:1" fill="#0b0b0b" d="M 511.5,403.5 C 520.012,407.548 529.012,410.215 538.5,411.5C 551.411,416.258 562.911,423.258 573,432.5C 575.267,435.701 576.934,439.034 578,442.5C 566.302,430.638 552.469,422.305 536.5,417.5C 533.993,416.108 531.327,415.108 528.5,414.5C 514.957,407.483 500.623,402.316 485.5,399C 494.224,399.91 502.891,401.41 511.5,403.5 Z"/></g>
<g><path style="opacity:1" fill="#fafafa" d="M 547.5,400.5 C 555.691,404.514 563.525,409.181 571,414.5C 574.75,421.002 578.75,427.335 583,433.5C 583.499,438.155 583.666,442.821 583.5,447.5C 583.665,450.85 583.498,454.183 583,457.5C 581.741,454.644 580.241,451.977 578.5,449.5C 577.554,447.11 576.221,444.944 574.5,443C 562.563,437.195 550.563,431.695 538.5,426.5C 538.5,425.833 538.167,425.5 537.5,425.5C 536.883,423.771 535.883,422.271 534.5,421C 535.305,419.887 535.972,418.721 536.5,417.5C 552.469,422.305 566.302,430.638 578,442.5C 576.934,439.034 575.267,435.701 573,432.5C 562.911,423.258 551.411,416.258 538.5,411.5C 540.395,406.937 543.395,403.27 547.5,400.5 Z"/></g>
<g><path style="opacity:1" fill="#0c0c0c" d="M 376.5,416.5 C 375.66,418.853 374.326,420.853 372.5,422.5C 368.771,420.549 365.271,418.216 362,415.5C 361.915,412.639 362.749,409.972 364.5,407.5C 365.002,406.479 365.668,406.312 366.5,407C 369.729,410.399 373.062,413.565 376.5,416.5 Z"/></g>
<g><path style="opacity:1" fill="#777777" d="M 658.5,402.5 C 659.043,402.56 659.376,402.893 659.5,403.5C 658.091,406.727 657.091,410.06 656.5,413.5C 654.379,416.807 653.045,420.14 652.5,423.5C 647.19,426.83 641.524,428.997 635.5,430C 638.5,427.833 641.5,425.667 644.5,423.5C 649.193,416.482 653.859,409.482 658.5,402.5 Z"/></g>
<g><path style="opacity:1" fill="#f8f8f8" d="M 723.5,421.5 C 723.821,422.817 724.154,424.151 724.5,425.5C 719.285,434.223 713.452,442.557 707,450.5C 705.235,447.968 703.735,445.301 702.5,442.5C 707.786,435.375 713.286,428.375 719,421.5C 720.867,419.192 721.867,416.525 722,413.5C 722.183,416.365 722.683,419.031 723.5,421.5 Z"/></g>
<g><path style="opacity:1" fill="#f38aa3" d="M 528.5,414.5 C 531.327,415.108 533.993,416.108 536.5,417.5C 535.972,418.721 535.305,419.887 534.5,421C 535.883,422.271 536.883,423.771 537.5,425.5C 533.193,425.072 528.86,423.739 524.5,421.5C 525.596,418.968 526.929,416.635 528.5,414.5 Z"/></g>
<g><path style="opacity:1" fill="#797979" d="M 414.5,414.5 C 432.933,426.559 451.6,438.392 470.5,450C 476.424,452.466 482.424,454.632 488.5,456.5C 496.427,460.622 504.76,463.956 513.5,466.5C 519.229,464.985 524.896,463.318 530.5,461.5C 546.679,458.122 562.679,454.122 578.5,449.5C 580.241,451.977 581.741,454.644 583,457.5C 583.498,454.183 583.665,450.85 583.5,447.5C 596.243,442.122 608.91,436.789 621.5,431.5C 620.317,434.827 619.484,438.161 619,441.5C 623.333,438.5 627.667,435.5 632,432.5C 632.78,434.387 632.613,436.054 631.5,437.5C 630.671,436.668 629.838,437.001 629,438.5C 622.713,447.122 616.047,455.455 609,463.5C 594.885,498.398 580.218,533.064 565,567.5C 559.889,576.06 555.056,584.726 550.5,593.5C 550.167,593.5 549.833,593.5 549.5,593.5C 548.942,592.21 547.942,591.377 546.5,591C 539.03,588.428 531.697,585.595 524.5,582.5C 527.228,571.691 529.061,560.691 530,549.5C 532.604,527.521 534.604,505.521 536,483.5C 533.667,480.833 531.333,478.167 529,475.5C 526.333,480.833 523.667,486.167 521,491.5C 520.275,492.059 519.442,492.392 518.5,492.5C 509.636,488.768 500.636,485.435 491.5,482.5C 490.254,477.351 488.921,472.185 487.5,467C 484.522,464.022 481.522,461.022 478.5,458C 477.668,457.312 477.002,457.479 476.5,458.5C 467.901,485.797 459.401,513.131 451,540.5C 446.618,543.722 442.118,546.722 437.5,549.5C 422.627,543.651 407.627,537.985 392.5,532.5C 386.304,529.358 385.304,530.358 389.5,535.5C 389.5,536.167 389.5,536.833 389.5,537.5C 385.018,536.01 380.684,534.343 376.5,532.5C 372.997,529.967 368.664,527.8 363.5,526C 362.748,525.329 362.414,524.496 362.5,523.5C 364.656,519.189 366.822,514.855 369,510.5C 369.499,506.848 369.665,503.182 369.5,499.5C 373.207,492.063 376.54,484.397 379.5,476.5C 389.742,457.074 400.242,437.741 411,418.5C 411.949,416.907 413.115,415.574 414.5,414.5 Z"/></g>
<g><path style="opacity:1" fill="#ca88a2" d="M 524.5,421.5 C 528.86,423.739 533.193,425.072 537.5,425.5C 538.167,425.5 538.5,425.833 538.5,426.5C 535.675,438.132 533.009,449.799 530.5,461.5C 524.896,463.318 519.229,464.985 513.5,466.5C 504.76,463.956 496.427,460.622 488.5,456.5C 492.167,442.5 495.833,428.5 499.5,414.5C 507.528,416.064 515.528,418.731 523.5,422.5C 524.107,422.376 524.44,422.043 524.5,421.5 Z"/></g>
<g><path style="opacity:1" fill="#0b0b0b" d="M 368.5,430.5 C 367.32,433.54 365.653,436.206 363.5,438.5C 360.319,436.163 356.986,433.996 353.5,432C 351.993,431.163 351.493,429.996 352,428.5C 353.61,426.269 355.443,424.269 357.5,422.5C 361.185,425.191 364.852,427.858 368.5,430.5 Z"/></g>
<g><path style="opacity:1" fill="#fbfbfb" d="M 589.5,297.5 C 591.099,297.232 592.432,297.566 593.5,298.5C 591.688,306.379 590.855,314.379 591,322.5C 601.076,330.454 611.243,338.288 621.5,346C 637.004,345.027 652.337,342.86 667.5,339.5C 671.188,339.219 674.855,338.719 678.5,338C 679.252,337.329 679.586,336.496 679.5,335.5C 680.629,336.47 681.629,337.636 682.5,339C 677.128,355.325 672.461,371.825 668.5,388.5C 667.167,389.5 665.833,390.5 664.5,391.5C 663.312,395.537 661.312,399.204 658.5,402.5C 653.859,409.482 649.193,416.482 644.5,423.5C 641.5,425.667 638.5,427.833 635.5,430C 641.524,428.997 647.19,426.83 652.5,423.5C 654.372,424.511 656.372,425.345 658.5,426C 656.014,426.705 656.014,427.538 658.5,428.5C 659.167,428.833 659.833,429.167 660.5,429.5C 657.948,434.158 656.615,439.158 656.5,444.5C 665.077,446.811 673.744,448.811 682.5,450.5C 687.605,449.112 692.605,447.446 697.5,445.5C 699.653,447.794 701.32,450.46 702.5,453.5C 697.033,454.98 691.367,456.146 685.5,457C 691.749,457.226 697.749,456.393 703.5,454.5C 705.288,454.785 706.955,454.452 708.5,453.5C 714.641,444.859 720.974,436.359 727.5,428C 728.449,427.383 729.282,427.549 730,428.5C 730.167,429.667 730.333,430.833 730.5,432C 716.509,503.122 702.842,574.288 689.5,645.5C 674.236,639.863 659.236,633.863 644.5,627.5C 651.595,594.862 658.762,562.195 666,529.5C 670.428,505.343 672.928,481.009 673.5,456.5C 660.09,452.308 646.757,447.808 633.5,443C 632.027,442.29 631.36,441.124 631.5,439.5C 631.5,438.833 631.5,438.167 631.5,437.5C 632.613,436.054 632.78,434.387 632,432.5C 627.667,435.5 623.333,438.5 619,441.5C 619.484,438.161 620.317,434.827 621.5,431.5C 628.242,412.818 634.908,393.984 641.5,375C 625.012,357.179 607.846,340.012 590,323.5C 589.502,326.817 589.335,330.15 589.5,333.5C 588.833,331.833 588.167,330.167 587.5,328.5C 586.833,328.5 586.5,328.167 586.5,327.5C 588.408,317.884 589.408,307.884 589.5,297.5 Z"/></g>
<g><path style="opacity:1" fill="#cacaca" d="M 538.5,426.5 C 550.563,431.695 562.563,437.195 574.5,443C 576.221,444.944 577.554,447.11 578.5,449.5C 562.679,454.122 546.679,458.122 530.5,461.5C 533.009,449.799 535.675,438.132 538.5,426.5 Z"/></g>
<g><path style="opacity:1" fill="#949494" d="M 660.5,429.5 C 663.286,431.113 665.953,432.946 668.5,435C 678.438,438.057 688.104,441.557 697.5,445.5C 692.605,447.446 687.605,449.112 682.5,450.5C 673.744,448.811 665.077,446.811 656.5,444.5C 656.615,439.158 657.948,434.158 660.5,429.5 Z"/></g>
<g><path style="opacity:1" fill="#777777" d="M 631.5,439.5 C 631.36,441.124 632.027,442.29 633.5,443C 646.757,447.808 660.09,452.308 673.5,456.5C 672.928,481.009 670.428,505.343 666,529.5C 658.762,562.195 651.595,594.862 644.5,627.5C 638.438,625.702 632.438,623.702 626.5,621.5C 631.36,596.393 636.694,571.393 642.5,546.5C 646.81,547.08 651.143,547.414 655.5,547.5C 655.5,544.833 655.5,542.167 655.5,539.5C 652.041,539.469 648.708,538.802 645.5,537.5C 644.386,534.003 645.219,531.003 648,528.5C 651.717,529.869 655.55,530.536 659.5,530.5C 659.5,527.5 659.5,524.5 659.5,521.5C 655.302,521.323 651.302,520.323 647.5,518.5C 648.5,516.5 649.5,514.5 650.5,512.5C 654.154,512.27 657.821,511.937 661.5,511.5C 662.577,509.271 663.244,506.937 663.5,504.5C 659.5,504.167 655.5,503.833 651.5,503.5C 651.5,500.833 651.5,498.167 651.5,495.5C 655.5,495.5 659.5,495.5 663.5,495.5C 663.5,492.833 663.5,490.167 663.5,487.5C 660.455,487.492 657.455,487.159 654.5,486.5C 654.817,483.428 654.484,480.428 653.5,477.5C 647.04,474.736 640.54,472.069 634,469.5C 632.415,470.044 630.915,470.711 629.5,471.5C 626.979,469.981 624.479,468.314 622,466.5C 621.616,464.803 621.782,463.137 622.5,461.5C 624.428,455.548 626.261,449.548 628,443.5C 629.032,441.973 630.199,440.64 631.5,439.5 Z"/></g>
<g><path style="opacity:1" fill="#202020" d="M 631.5,437.5 C 631.5,438.167 631.5,438.833 631.5,439.5C 630.199,440.64 629.032,441.973 628,443.5C 626.261,449.548 624.428,455.548 622.5,461.5C 619.812,462.024 618.312,463.691 618,466.5C 609.667,503.167 601.333,539.833 593,576.5C 588,579.833 583,583.167 578,586.5C 575.863,591.084 574.029,595.75 572.5,600.5C 565.152,599.055 557.819,596.721 550.5,593.5C 555.056,584.726 559.889,576.06 565,567.5C 580.218,533.064 594.885,498.398 609,463.5C 616.047,455.455 622.713,447.122 629,438.5C 629.838,437.001 630.671,436.668 631.5,437.5 Z"/></g>
<g><path style="opacity:1" fill="#808080" d="M 702.5,453.5 C 703.167,453.5 703.5,453.833 703.5,454.5C 697.749,456.393 691.749,457.226 685.5,457C 691.367,456.146 697.033,454.98 702.5,453.5 Z"/></g>
<g><path style="opacity:1" fill="#aeaeae" d="M 491.5,482.5 C 489.037,482.219 486.87,481.219 485,479.5C 478.414,497.592 472.414,515.925 467,534.5C 465.326,538.524 463.159,542.191 460.5,545.5C 460.167,546.167 459.833,546.833 459.5,547.5C 457.885,550.45 455.885,553.116 453.5,555.5C 448.579,553.536 443.579,551.87 438.5,550.5C 437.833,550.5 437.5,550.167 437.5,549.5C 442.118,546.722 446.618,543.722 451,540.5C 459.401,513.131 467.901,485.797 476.5,458.5C 477.002,457.479 477.668,457.312 478.5,458C 481.522,461.022 484.522,464.022 487.5,467C 488.921,472.185 490.254,477.351 491.5,482.5 Z"/></g>
<g><path style="opacity:1" fill="#303030" d="M 687.5,580.5 C 686.833,580.5 686.5,580.167 686.5,579.5C 691.501,540.82 696.501,502.153 701.5,463.5C 696.149,464.037 690.816,464.704 685.5,465.5C 678.779,499.781 671.446,533.781 663.5,567.5C 666.848,545.768 670.682,524.101 675,502.5C 675.333,491.833 675.667,481.167 676,470.5C 677.62,468.759 679.12,466.925 680.5,465C 688.678,462.748 696.845,460.581 705,458.5C 705.667,463.833 705.667,469.167 705,474.5C 702.015,491.745 699.681,509.078 698,526.5C 694.049,544.42 690.549,562.42 687.5,580.5 Z"/></g>
<g><path style="opacity:1" fill="#fcfbfc" d="M 622.5,461.5 C 621.782,463.137 621.616,464.803 622,466.5C 624.479,468.314 626.979,469.981 629.5,471.5C 628.711,471.783 628.044,472.283 627.5,473C 631.489,474.331 635.489,475.665 639.5,477C 640.097,478.062 640.43,479.228 640.5,480.5C 633.188,526.37 625.521,572.037 617.5,617.5C 602.959,613.375 588.626,608.542 574.5,603C 573.244,602.583 572.577,601.75 572.5,600.5C 574.029,595.75 575.863,591.084 578,586.5C 583,583.167 588,579.833 593,576.5C 601.333,539.833 609.667,503.167 618,466.5C 618.312,463.691 619.812,462.024 622.5,461.5 Z"/></g>
<g><path style="opacity:1" fill="#050505" d="M 626.5,621.5 C 623.256,620.537 620.256,619.204 617.5,617.5C 625.521,572.037 633.188,526.37 640.5,480.5C 640.43,479.228 640.097,478.062 639.5,477C 635.489,475.665 631.489,474.331 627.5,473C 628.044,472.283 628.711,471.783 629.5,471.5C 630.915,470.711 632.415,470.044 634,469.5C 640.54,472.069 647.04,474.736 653.5,477.5C 654.484,480.428 654.817,483.428 654.5,486.5C 657.455,487.159 660.455,487.492 663.5,487.5C 663.5,490.167 663.5,492.833 663.5,495.5C 659.5,495.5 655.5,495.5 651.5,495.5C 651.5,498.167 651.5,500.833 651.5,503.5C 655.5,503.833 659.5,504.167 663.5,504.5C 663.244,506.937 662.577,509.271 661.5,511.5C 657.821,511.937 654.154,512.27 650.5,512.5C 649.5,514.5 648.5,516.5 647.5,518.5C 651.302,520.323 655.302,521.323 659.5,521.5C 659.5,524.5 659.5,527.5 659.5,530.5C 655.55,530.536 651.717,529.869 648,528.5C 645.219,531.003 644.386,534.003 645.5,537.5C 648.708,538.802 652.041,539.469 655.5,539.5C 655.5,542.167 655.5,544.833 655.5,547.5C 651.143,547.414 646.81,547.08 642.5,546.5C 636.694,571.393 631.36,596.393 626.5,621.5 Z"/></g>
<g><path style="opacity:1" fill="#c3babc" d="M 269.5,498.5 C 271.062,498.733 272.395,499.4 273.5,500.5C 284.833,510.167 296.167,519.833 307.5,529.5C 266.112,513.703 224.779,497.703 183.5,481.5C 182.614,480.675 182.281,479.675 182.5,478.5C 182.5,477.833 182.5,477.167 182.5,476.5C 183.908,474.491 185.408,472.491 187,470.5C 214.435,480.066 241.935,489.399 269.5,498.5 Z"/></g>
<g><path style="opacity:1" fill="#ccc9ca" d="M 316.5,477.5 C 316.38,479.199 316.046,480.865 315.5,482.5C 317.268,491.685 319.268,500.685 321.5,509.5C 320.559,511.05 319.893,512.716 319.5,514.5C 315.677,513.011 312.01,511.344 308.5,509.5C 306.234,505.966 304.234,502.3 302.5,498.5C 307.167,491.5 311.833,484.5 316.5,477.5 Z"/></g>
<g><path style="opacity:1" fill="#c5c4c5" d="M 524.5,582.5 C 524.167,582.5 523.833,582.5 523.5,582.5C 520.838,581.501 518.172,580.501 515.5,579.5C 516.227,577.046 517.227,574.713 518.5,572.5C 519.895,568.409 520.728,564.076 521,559.5C 523.133,538.872 524.633,518.206 525.5,497.5C 525.38,496.414 524.713,495.747 523.5,495.5C 521.199,496.396 518.866,496.562 516.5,496C 507.786,491.98 499.453,487.48 491.5,482.5C 500.636,485.435 509.636,488.768 518.5,492.5C 519.442,492.392 520.275,492.059 521,491.5C 523.667,486.167 526.333,480.833 529,475.5C 531.333,478.167 533.667,480.833 536,483.5C 534.604,505.521 532.604,527.521 530,549.5C 529.061,560.691 527.228,571.691 524.5,582.5 Z"/></g>
<g><path style="opacity:1" fill="#af88a2" d="M 491.5,482.5 C 499.453,487.48 507.786,491.98 516.5,496C 518.866,496.562 521.199,496.396 523.5,495.5C 524.713,495.747 525.38,496.414 525.5,497.5C 524.207,498.842 523.374,500.509 523,502.5C 522.275,503.059 521.442,503.392 520.5,503.5C 509.623,499.597 498.789,495.597 488,491.5C 487.5,491.833 487,492.167 486.5,492.5C 481.222,509.502 475.055,526.169 468,542.5C 465.886,544.3 463.386,545.3 460.5,545.5C 463.159,542.191 465.326,538.524 467,534.5C 472.414,515.925 478.414,497.592 485,479.5C 486.87,481.219 489.037,482.219 491.5,482.5 Z"/></g>
<g><path style="opacity:1" fill="#8b8b8b" d="M 182.5,478.5 C 182.281,479.675 182.614,480.675 183.5,481.5C 224.779,497.703 266.112,513.703 307.5,529.5C 308.833,530.167 310.167,530.833 311.5,531.5C 328.091,539.097 344.924,546.43 362,553.5C 365.407,575.084 367.74,596.75 369,618.5C 355.641,635.691 342.475,653.025 329.5,670.5C 314.102,680.191 298.769,689.858 283.5,699.5C 235.833,699.5 188.167,699.5 140.5,699.5C 154.008,625.633 168.008,551.966 182.5,478.5 Z"/></g>
<g><path style="opacity:1" fill="#303030" d="M 379.5,476.5 C 376.54,484.397 373.207,492.063 369.5,499.5C 370.108,492.272 372.442,485.605 376.5,479.5C 377.728,478.694 378.728,477.694 379.5,476.5 Z"/></g>
<g><path style="opacity:0.869" fill="#b0b0b0" d="M 729.5,472.5 C 725.751,501.489 722.085,530.489 718.5,559.5C 716.54,558.862 714.707,558.862 713,559.5C 708.602,585.626 703.769,610.959 698.5,635.5C 703.205,604.599 708.538,573.932 714.5,543.5C 714.351,544.552 714.517,545.552 715,546.5C 719.74,521.708 724.573,497.041 729.5,472.5 Z"/></g>
<g><path style="opacity:1" fill="#ca88a2" d="M 525.5,497.5 C 524.633,518.206 523.133,538.872 521,559.5C 520.728,564.076 519.895,568.409 518.5,572.5C 498.238,565.095 478.571,556.761 459.5,547.5C 459.833,546.833 460.167,546.167 460.5,545.5C 463.386,545.3 465.886,544.3 468,542.5C 475.055,526.169 481.222,509.502 486.5,492.5C 487,492.167 487.5,491.833 488,491.5C 498.789,495.597 509.623,499.597 520.5,503.5C 521.442,503.392 522.275,503.059 523,502.5C 523.374,500.509 524.207,498.842 525.5,497.5 Z"/></g>
<g><path style="opacity:1" fill="#fe9cb5" d="M 273.5,500.5 C 282.606,504.035 291.94,506.868 301.5,509C 309.575,512.915 317.908,516.249 326.5,519C 328.066,519.765 329.399,519.598 330.5,518.5C 340.178,521.837 349.845,525.17 359.5,528.5C 361.784,528.975 363.784,529.975 365.5,531.5C 372.114,533.872 378.614,536.538 385,539.5C 386.814,545.718 387.981,552.051 388.5,558.5C 388.631,559.376 388.298,560.043 387.5,560.5C 362.146,550.82 336.812,541.153 311.5,531.5C 310.167,530.833 308.833,530.167 307.5,529.5C 296.167,519.833 284.833,510.167 273.5,500.5 Z"/></g>
<g><path style="opacity:1" fill="#eb6282" d="M 265.5,494.5 C 279.702,499.679 294.036,504.679 308.5,509.5C 312.01,511.344 315.677,513.011 319.5,514.5C 323.054,516.109 326.721,517.442 330.5,518.5C 329.399,519.598 328.066,519.765 326.5,519C 317.908,516.249 309.575,512.915 301.5,509C 291.94,506.868 282.606,504.035 273.5,500.5C 272.395,499.4 271.062,498.733 269.5,498.5C 268.473,496.806 267.139,495.473 265.5,494.5 Z"/></g>
<g><path style="opacity:1" fill="#bbb6b7" d="M 362.5,523.5 C 362.414,524.496 362.748,525.329 363.5,526C 368.664,527.8 372.997,529.967 376.5,532.5C 373.844,531.842 371.178,531.175 368.5,530.5C 367.274,530.52 366.274,530.853 365.5,531.5C 363.784,529.975 361.784,528.975 359.5,528.5C 360.263,526.632 361.263,524.965 362.5,523.5 Z"/></g>
<g><path style="opacity:1" fill="#2d0811" d="M 365.5,531.5 C 366.274,530.853 367.274,530.52 368.5,530.5C 371.178,531.175 373.844,531.842 376.5,532.5C 380.684,534.343 385.018,536.01 389.5,537.5C 390.492,537.328 391.158,537.662 391.5,538.5C 391.334,544.842 391.5,551.175 392,557.5C 394.183,559.907 396.35,562.24 398.5,564.5C 398.5,567.167 398.5,569.833 398.5,572.5C 389.164,614.846 379.831,657.179 370.5,699.5C 370.167,699.5 369.833,699.5 369.5,699.5C 377.83,656.181 386.164,612.848 394.5,569.5C 392.75,565.665 390.75,561.998 388.5,558.5C 387.981,552.051 386.814,545.718 385,539.5C 378.614,536.538 372.114,533.872 365.5,531.5 Z"/></g>
<g><path style="opacity:1" fill="#fd9cb4" d="M 389.5,535.5 C 398.449,538.705 407.449,541.705 416.5,544.5C 426.317,547.982 436.15,551.649 446,555.5C 446.5,555.333 447,555.167 447.5,555C 444.177,553.96 441.177,552.46 438.5,550.5C 443.579,551.87 448.579,553.536 453.5,555.5C 453.5,555.833 453.5,556.167 453.5,556.5C 453.062,556.435 452.728,556.601 452.5,557C 454.291,557.415 455.624,558.415 456.5,560C 474.91,566.47 493.243,573.136 511.5,580C 512.749,580.74 513.749,580.573 514.5,579.5C 514.833,579.5 515.167,579.5 515.5,579.5C 518.172,580.501 520.838,581.501 523.5,582.5C 523.577,583.75 524.244,584.583 525.5,585C 533.486,587.939 541.486,590.773 549.5,593.5C 549.833,593.5 550.167,593.5 550.5,593.5C 557.819,596.721 565.152,599.055 572.5,600.5C 572.577,601.75 573.244,602.583 574.5,603C 588.626,608.542 602.959,613.375 617.5,617.5C 620.256,619.204 623.256,620.537 626.5,621.5C 632.438,623.702 638.438,625.702 644.5,627.5C 659.236,633.863 674.236,639.863 689.5,645.5C 691.117,646.038 692.784,646.371 694.5,646.5C 695.209,647.404 696.209,647.737 697.5,647.5C 697.5,648.167 697.833,648.5 698.5,648.5C 697.378,649.156 696.045,649.489 694.5,649.5C 685.843,648.577 677.176,647.743 668.5,647C 603.508,623.656 538.508,600.656 473.5,578C 482.218,587.263 491.052,596.429 500,605.5C 500.49,606.793 500.657,608.127 500.5,609.5C 468.485,597.438 436.485,585.272 404.5,573C 402.508,572.426 401.008,571.259 400,569.5C 399.768,570.737 399.268,571.737 398.5,572.5C 398.5,569.833 398.5,567.167 398.5,564.5C 397.172,557.523 395.838,550.523 394.5,543.5C 394.229,541.307 393.229,539.641 391.5,538.5C 391.158,537.662 390.492,537.328 389.5,537.5C 389.5,536.833 389.5,536.167 389.5,535.5 Z"/></g>
<g><path style="opacity:1" fill="#e85275" d="M 391.5,538.5 C 393.229,539.641 394.229,541.307 394.5,543.5C 395.838,550.523 397.172,557.523 398.5,564.5C 396.35,562.24 394.183,559.907 392,557.5C 391.5,551.175 391.334,544.842 391.5,538.5 Z"/></g>
<g><path style="opacity:1" fill="#f0577a" d="M 392.5,532.5 C 392.47,533.497 392.97,534.164 394,534.5C 401.727,537.566 409.227,540.899 416.5,544.5C 407.449,541.705 398.449,538.705 389.5,535.5C 385.304,530.358 386.304,529.358 392.5,532.5 Z"/></g>
<g><path style="opacity:1" fill="#5c1f2d" d="M 392.5,532.5 C 407.627,537.985 422.627,543.651 437.5,549.5C 437.5,550.167 437.833,550.5 438.5,550.5C 441.177,552.46 444.177,553.96 447.5,555C 447,555.167 446.5,555.333 446,555.5C 436.15,551.649 426.317,547.982 416.5,544.5C 409.227,540.899 401.727,537.566 394,534.5C 392.97,534.164 392.47,533.497 392.5,532.5 Z"/></g>
<g><path style="opacity:1" fill="#fd597f" d="M 311.5,531.5 C 336.812,541.153 362.146,550.82 387.5,560.5C 388.298,560.043 388.631,559.376 388.5,558.5C 390.75,561.998 392.75,565.665 394.5,569.5C 386.164,612.848 377.83,656.181 369.5,699.5C 340.833,699.5 312.167,699.5 283.5,699.5C 298.769,689.858 314.102,680.191 329.5,670.5C 342.475,653.025 355.641,635.691 369,618.5C 367.74,596.75 365.407,575.084 362,553.5C 344.924,546.43 328.091,539.097 311.5,531.5 Z"/></g>
<g><path style="opacity:1" fill="#b087a2" d="M 459.5,547.5 C 478.571,556.761 498.238,565.095 518.5,572.5C 517.227,574.713 516.227,577.046 515.5,579.5C 515.167,579.5 514.833,579.5 514.5,579.5C 494.563,571.042 474.229,563.375 453.5,556.5C 453.5,556.167 453.5,555.833 453.5,555.5C 455.885,553.116 457.885,550.45 459.5,547.5 Z"/></g>
<g><path style="opacity:0.995" fill="#404040" d="M 718.5,559.5 C 778.911,578.971 839.245,598.637 899.5,618.5C 899.5,645.5 899.5,672.5 899.5,699.5C 878.833,699.5 858.167,699.5 837.5,699.5C 791.342,682.265 745.009,665.265 698.5,648.5C 697.833,648.5 697.5,648.167 697.5,647.5C 698.444,644.001 698.444,640.668 697.5,637.5C 697.328,636.508 697.662,635.842 698.5,635.5C 703.769,610.959 708.602,585.626 713,559.5C 714.707,558.862 716.54,558.862 718.5,559.5 Z"/></g>
<g><path style="opacity:1" fill="#f55791" d="M 453.5,556.5 C 474.229,563.375 494.563,571.042 514.5,579.5C 513.749,580.573 512.749,580.74 511.5,580C 493.243,573.136 474.91,566.47 456.5,560C 455.624,558.415 454.291,557.415 452.5,557C 452.728,556.601 453.062,556.435 453.5,556.5 Z"/></g>
<g><path style="opacity:1" fill="#fe587f" d="M 500.5,609.5 C 500.5,609.833 500.5,610.167 500.5,610.5C 493.651,633.384 487.317,656.551 481.5,680C 487.414,686.947 493.748,693.447 500.5,699.5C 457.167,699.5 413.833,699.5 370.5,699.5C 379.831,657.179 389.164,614.846 398.5,572.5C 399.268,571.737 399.768,570.737 400,569.5C 401.008,571.259 402.508,572.426 404.5,573C 436.485,585.272 468.485,597.438 500.5,609.5 Z"/></g>
<g><path style="opacity:1" fill="#c3babc" d="M 698.5,648.5 C 745.009,665.265 791.342,682.265 837.5,699.5C 802.833,699.5 768.167,699.5 733.5,699.5C 656.221,669.036 578.555,639.369 500.5,610.5C 500.5,610.167 500.5,609.833 500.5,609.5C 500.657,608.127 500.49,606.793 500,605.5C 491.052,596.429 482.218,587.263 473.5,578C 538.508,600.656 603.508,623.656 668.5,647C 677.176,647.743 685.843,648.577 694.5,649.5C 696.045,649.489 697.378,649.156 698.5,648.5 Z"/></g>
<g><path style="opacity:1" fill="#f05074" d="M 523.5,582.5 C 523.833,582.5 524.167,582.5 524.5,582.5C 531.697,585.595 539.03,588.428 546.5,591C 547.942,591.377 548.942,592.21 549.5,593.5C 541.486,590.773 533.486,587.939 525.5,585C 524.244,584.583 523.577,583.75 523.5,582.5 Z"/></g>
<g><path style="opacity:1" fill="#6e6e6e" d="M 663.5,567.5 C 661.376,582.286 658.543,596.953 655,611.5C 656.501,596.499 659.334,581.832 663.5,567.5 Z"/></g>
<g><path style="opacity:1" fill="#888888" d="M 686.5,579.5 C 686.5,580.167 686.833,580.5 687.5,580.5C 684.607,594.465 681.774,608.465 679,622.5C 680.649,607.937 683.149,593.603 686.5,579.5 Z"/></g>
<g><path style="opacity:1" fill="#8c8c8c" d="M 500.5,610.5 C 578.555,639.369 656.221,669.036 733.5,699.5C 655.833,699.5 578.167,699.5 500.5,699.5C 493.748,693.447 487.414,686.947 481.5,680C 487.317,656.551 493.651,633.384 500.5,610.5 Z"/></g>
<g><path style="opacity:1" fill="#949393" d="M 697.5,637.5 C 698.444,640.668 698.444,644.001 697.5,647.5C 696.209,647.737 695.209,647.404 694.5,646.5C 695.649,646.209 696.316,645.376 696.5,644C 697.077,641.863 697.41,639.696 697.5,637.5 Z"/></g>
</svg>
