<?xml version="1.0" encoding="UTF-8"?>
<!DOCTYPE svg PUBLIC "-//W3C//DTD SVG 1.1//EN" "http://www.w3.org/Graphics/SVG/1.1/DTD/svg11.dtd">
<svg xmlns="http://www.w3.org/2000/svg" version="1.1" width="2080px" height="1280px" style="shape-rendering:geometricPrecision; text-rendering:geometricPrecision; image-rendering:optimizeQuality; fill-rule:evenodd; clip-rule:evenodd" xmlns:xlink="http://www.w3.org/1999/xlink">
<g><path style="opacity:1" fill="#f9faf9" d="M 2079.5,126.5 C 2079.5,126.833 2079.5,127.167 2079.5,127.5C 2063.5,127.167 2063.5,126.833 2079.5,126.5 Z"/></g>
<g><path style="opacity:1" fill="#f9faf9" d="M 2063.5,128.5 C 2058.49,128.666 2053.49,128.499 2048.5,128C 2053.68,127.184 2058.68,127.35 2063.5,128.5 Z"/></g>
<g><path style="opacity:1" fill="#0709b6" d="M 2063.5,128.5 C 2068.83,128.5 2074.17,128.5 2079.5,128.5C 2079.5,138.5 2079.5,148.5 2079.5,158.5C 1950.19,163.542 1820.86,167.709 1691.5,171C 1657.15,163.441 1622.82,155.775 1588.5,148C 1592.03,147.821 1595.36,147.321 1598.5,146.5C 1759.2,140.447 1914.2,134.447 2063.5,128.5 Z"/></g>
<g><path style="opacity:1" fill="#0025d3" d="M 1598.5,146.5 C 1595.36,147.321 1592.03,147.821 1588.5,148C 1622.82,155.775 1657.15,163.441 1691.5,171C 1820.86,167.709 1950.19,163.542 2079.5,158.5C 2079.5,324.833 2079.5,491.167 2079.5,657.5C 2078.83,657.5 2078.5,657.833 2078.5,658.5C 2065.22,666.482 2052.22,674.982 2039.5,684C 2032.74,688.369 2026.4,693.202 2020.5,698.5C 1994.46,714.848 1969.13,732.181 1944.5,750.5C 1943.24,750.461 1942.24,750.961 1941.5,752C 1931.51,752.5 1921.51,752.666 1911.5,752.5C 1863.01,750.595 1814.35,749.595 1765.5,749.5C 1755.5,742.167 1745.5,734.833 1735.5,727.5C 1726.69,546.503 1717.86,365.503 1709,184.5C 1664.02,172.427 1619.19,160.094 1574.5,147.5C 1582.46,146.597 1590.46,146.264 1598.5,146.5 Z"/></g>
<g><path style="opacity:1" fill="#0006b5" d="M 1574.5,147.5 C 1619.19,160.094 1664.02,172.427 1709,184.5C 1717.86,365.503 1726.69,546.503 1735.5,727.5C 1698.44,702.977 1661.44,678.144 1624.5,653C 1607.79,649.757 1591.12,646.59 1574.5,643.5C 1574.5,642.833 1574.5,642.167 1574.5,641.5C 1562.53,476.763 1550.53,312.597 1538.5,149C 1550.47,147.834 1562.47,147.334 1574.5,147.5 Z"/></g>
<g><path style="opacity:1" fill="#f9faf9" d="M 1524.5,159.5 C 1523.57,158.432 1523.23,157.099 1523.5,155.5C 1526.85,155.335 1530.18,155.502 1533.5,156C 1530.52,156.498 1527.52,156.665 1524.5,156.5C 1524.5,157.5 1524.5,158.5 1524.5,159.5 Z"/></g>
<g><path style="opacity:1" fill="#f9faf9" d="M 1524.5,159.5 C 1525.63,161.966 1525.8,164.633 1525,167.5C 1524.5,164.854 1524.34,162.187 1524.5,159.5 Z"/></g>
<g><path style="opacity:1" fill="#f9faf9" d="M 1526.5,176.5 C 1525.37,174.034 1525.2,171.367 1526,168.5C 1526.5,171.146 1526.66,173.813 1526.5,176.5 Z"/></g>
<g><path style="opacity:1" fill="#f9faf9" d="M 1526.5,176.5 C 1527.47,178.948 1527.81,181.615 1527.5,184.5C 1526.53,182.052 1526.19,179.385 1526.5,176.5 Z"/></g>
<g><path style="opacity:1" fill="#f9faf9" d="M 1527.5,184.5 C 1528.47,186.948 1528.81,189.615 1528.5,192.5C 1527.53,190.052 1527.19,187.385 1527.5,184.5 Z"/></g>
<g><path style="opacity:1" fill="#f9faf9" d="M 1528.5,192.5 C 1529.47,194.948 1529.81,197.615 1529.5,200.5C 1528.53,198.052 1528.19,195.385 1528.5,192.5 Z"/></g>
<g><path style="opacity:1" fill="#f9faf9" d="M 1529.5,200.5 C 1530.63,202.966 1530.8,205.633 1530,208.5C 1529.5,205.854 1529.34,203.187 1529.5,200.5 Z"/></g>
<g><path style="opacity:1" fill="#f9faf9" d="M 1531.5,217.5 C 1530.37,215.034 1530.2,212.367 1531,209.5C 1531.5,212.146 1531.66,214.813 1531.5,217.5 Z"/></g>
<g><path style="opacity:1" fill="#f9faf9" d="M 1531.5,217.5 C 1532.47,219.948 1532.81,222.615 1532.5,225.5C 1531.53,223.052 1531.19,220.385 1531.5,217.5 Z"/></g>
<g><path style="opacity:1" fill="#000000" d="M 1829.5,218.5 C 1874.5,216.04 1906.67,235.04 1926,275.5C 1937.68,308.397 1934.01,339.397 1915,368.5C 1886.99,402.612 1851.82,413.112 1809.5,400C 1771.3,382.299 1751.97,352.299 1751.5,310C 1753.62,270.754 1772.29,242.421 1807.5,225C 1814.86,222.46 1822.19,220.294 1829.5,218.5 Z"/></g>
<g><path style="opacity:1" fill="#f9faf9" d="M 1532.5,225.5 C 1533.47,227.948 1533.81,230.615 1533.5,233.5C 1532.53,231.052 1532.19,228.385 1532.5,225.5 Z"/></g>
<g><path style="opacity:1" fill="#f9faf9" d="M 1533.5,233.5 C 1534.63,235.966 1534.8,238.633 1534,241.5C 1533.5,238.854 1533.34,236.187 1533.5,233.5 Z"/></g>
<g><path style="opacity:1" fill="#f9faf9" d="M 1534.5,242.5 C 1535.63,244.628 1535.8,246.961 1535,249.5C 1534.5,247.19 1534.34,244.857 1534.5,242.5 Z"/></g>
<g><path style="opacity:1" fill="#f9faf9" d="M 1536.5,258.5 C 1535.37,256.034 1535.2,253.367 1536,250.5C 1536.5,253.146 1536.66,255.813 1536.5,258.5 Z"/></g>
<g><path style="opacity:1" fill="#f9faf9" d="M 1536.5,258.5 C 1537.47,260.948 1537.81,263.615 1537.5,266.5C 1536.53,264.052 1536.19,261.385 1536.5,258.5 Z"/></g>
<g><path style="opacity:1" fill="#d4d3d4" d="M 875.5,850.5 C 875.504,848.158 876.337,846.158 878,844.5C 878.333,838.5 878.667,832.5 879,826.5C 886.515,803.619 893.849,780.619 901,757.5C 910.468,715.682 920.468,674.015 931,632.5C 931.547,628.84 932.047,625.173 932.5,621.5C 929.625,607.998 926.125,594.665 922,581.5C 916.987,572.795 911.487,564.462 905.5,556.5C 899.35,548.85 892.683,541.683 885.5,535C 876.49,526.324 867.157,517.991 857.5,510C 842.97,502.126 828.97,493.459 815.5,484C 801.233,472.74 787.233,461.073 773.5,449C 750.109,435.299 726.443,421.966 702.5,409C 697.799,404.634 693.466,399.967 689.5,395C 688.833,394.833 688.167,394.667 687.5,394.5C 677.158,399.667 667.491,405.834 658.5,413C 643.653,415.569 628.986,418.903 614.5,423C 594.034,431.401 573.7,440.068 553.5,449C 541.402,455.757 528.735,461.257 515.5,465.5C 519.097,462.951 523.097,460.951 527.5,459.5C 528.306,444.466 529.472,429.466 531,414.5C 538.191,381.094 545.691,347.76 553.5,314.5C 561.22,306.776 569.22,299.443 577.5,292.5C 578.167,292.5 578.5,292.167 578.5,291.5C 605.454,283.7 632.454,275.867 659.5,268C 691.67,267.227 723.837,266.393 756,265.5C 793.209,268.904 830.376,272.738 867.5,277C 893.548,294.447 919.381,312.281 945,330.5C 959.667,360.5 974.333,390.5 989,420.5C 995.819,500.018 998.486,579.684 997,659.5C 999.743,696.126 1001.08,732.793 1001,769.5C 999.579,781.204 997.912,792.871 996,804.5C 958.164,843.003 919.664,880.836 880.5,918C 879.207,918.49 877.873,918.657 876.5,918.5C 876.5,895.153 876.667,871.82 877,848.5C 876.722,849.416 876.222,850.082 875.5,850.5 Z"/></g>
<g><path style="opacity:1" fill="#f9faf9" d="M 1537.5,266.5 C 1538.47,268.948 1538.81,271.615 1538.5,274.5C 1537.53,272.052 1537.19,269.385 1537.5,266.5 Z"/></g>
<g><path style="opacity:1" fill="#f9faf9" d="M 1538.5,274.5 C 1539.63,276.966 1539.8,279.633 1539,282.5C 1538.5,279.854 1538.34,277.187 1538.5,274.5 Z"/></g>
<g><path style="opacity:1" fill="#f9faf9" d="M 1540.5,291.5 C 1539.37,289.034 1539.2,286.367 1540,283.5C 1540.5,286.146 1540.66,288.813 1540.5,291.5 Z"/></g>
<g><path style="opacity:1" fill="#f9f9f9" d="M 578.5,291.5 C 577.833,291.5 577.5,291.833 577.5,292.5C 569.22,299.443 561.22,306.776 553.5,314.5C 545.691,347.76 538.191,381.094 531,414.5C 529.472,429.466 528.306,444.466 527.5,459.5C 523.097,460.951 519.097,462.951 515.5,465.5C 514.306,466.272 513.306,467.272 512.5,468.5C 504.532,477.307 496.698,486.307 489,495.5C 481.149,511.232 473.982,527.232 467.5,543.5C 465.408,546.088 464.075,549.088 463.5,552.5C 459.449,561.621 454.949,570.621 450,579.5C 449.333,584.833 449.333,590.167 450,595.5C 451.683,607.627 453.183,619.627 454.5,631.5C 460.104,645.322 464.104,659.655 466.5,674.5C 467.828,684.431 468.494,694.431 468.5,704.5C 463.526,720.395 458.859,736.395 454.5,752.5C 456.55,764.803 458.384,777.136 460,789.5C 464.241,798.982 468.741,808.315 473.5,817.5C 478.467,828.767 483.967,839.767 490,850.5C 490.822,853.117 491.322,855.784 491.5,858.5C 490.209,858.263 489.209,858.596 488.5,859.5C 475.974,865.763 463.307,872.096 450.5,878.5C 449.159,874.616 448.325,870.616 448,866.5C 445.366,841.197 443.033,815.864 441,790.5C 441.264,679.947 439.097,569.447 434.5,459C 434.667,455.833 434.833,452.667 435,449.5C 448.512,423.975 461.346,398.142 473.5,372C 484.377,362.285 495.377,352.785 506.5,343.5C 508.628,340.87 510.961,338.37 513.5,336C 529.833,323 546.167,310 562.5,297C 567.388,294.539 572.388,292.372 577.5,290.5C 578.107,290.624 578.44,290.957 578.5,291.5 Z"/></g>
<g><path style="opacity:1" fill="#f9faf9" d="M 1540.5,291.5 C 1541.47,293.948 1541.81,296.615 1541.5,299.5C 1540.53,297.052 1540.19,294.385 1540.5,291.5 Z"/></g>
<g><path style="opacity:1" fill="#f9faf9" d="M 1541.5,299.5 C 1542.47,301.948 1542.81,304.615 1542.5,307.5C 1541.53,305.052 1541.19,302.385 1541.5,299.5 Z"/></g>
<g><path style="opacity:1" fill="#f9faf9" d="M 1542.5,307.5 C 1543.47,309.948 1543.81,312.615 1543.5,315.5C 1542.53,313.052 1542.19,310.385 1542.5,307.5 Z"/></g>
<g><path style="opacity:1" fill="#f9faf9" d="M 1543.5,315.5 C 1544.63,317.966 1544.8,320.633 1544,323.5C 1543.5,320.854 1543.34,318.187 1543.5,315.5 Z"/></g>
<g><path style="opacity:1" fill="#f9faf9" d="M 1545.5,332.5 C 1544.37,330.034 1544.2,327.367 1545,324.5C 1545.5,327.146 1545.66,329.813 1545.5,332.5 Z"/></g>
<g><path style="opacity:1" fill="#f9faf9" d="M 1545.5,332.5 C 1546.47,334.948 1546.81,337.615 1546.5,340.5C 1545.53,338.052 1545.19,335.385 1545.5,332.5 Z"/></g>
<g><path style="opacity:1" fill="#f9faf9" d="M 1546.5,340.5 C 1547.47,342.948 1547.81,345.615 1547.5,348.5C 1546.53,346.052 1546.19,343.385 1546.5,340.5 Z"/></g>
<g><path style="opacity:1" fill="#f9faf9" d="M 1547.5,348.5 C 1548.63,350.966 1548.8,353.633 1548,356.5C 1547.5,353.854 1547.34,351.187 1547.5,348.5 Z"/></g>
<g><path style="opacity:1" fill="#f9faf9" d="M 1548.5,357.5 C 1549.63,359.628 1549.8,361.961 1549,364.5C 1548.5,362.19 1548.34,359.857 1548.5,357.5 Z"/></g>
<g><path style="opacity:1" fill="#f9faf9" d="M 1550.5,373.5 C 1549.37,371.034 1549.2,368.367 1550,365.5C 1550.5,368.146 1550.66,370.813 1550.5,373.5 Z"/></g>
<g><path style="opacity:1" fill="#f9faf9" d="M 1550.5,373.5 C 1551.47,375.948 1551.81,378.615 1551.5,381.5C 1550.53,379.052 1550.19,376.385 1550.5,373.5 Z"/></g>
<g><path style="opacity:1" fill="#f9faf9" d="M 1551.5,381.5 C 1552.47,383.948 1552.81,386.615 1552.5,389.5C 1551.53,387.052 1551.19,384.385 1551.5,381.5 Z"/></g>
<g><path style="opacity:1" fill="#f9faf9" d="M 1552.5,389.5 C 1553.63,391.966 1553.8,394.633 1553,397.5C 1552.5,394.854 1552.34,392.187 1552.5,389.5 Z"/></g>
<g><path style="opacity:1" fill="#f2aef9" d="M 905.5,556.5 C 903.989,558.476 903.156,560.809 903,563.5C 899.13,603.752 896.463,644.085 895,684.5C 885.291,699.419 875.457,714.253 865.5,729C 856.176,728.632 846.843,727.965 837.5,727C 812.672,721.293 788.006,714.96 763.5,708C 754.324,707.83 745.324,707.33 736.5,706.5C 747.167,706.5 757.833,706.5 768.5,706.5C 782.344,706.829 796.01,706.496 809.5,705.5C 822.363,702.943 833.863,697.609 844,689.5C 853.594,671.113 860.427,651.78 864.5,631.5C 857.326,632.048 850.159,632.715 843,633.5C 833.4,631.947 823.9,629.947 814.5,627.5C 803.26,629.873 791.926,631.707 780.5,633C 765.739,639.587 750.739,645.587 735.5,651C 722.48,657.232 710.146,664.399 698.5,672.5C 695.062,674.759 691.729,677.259 688.5,680C 687.075,681.362 686.242,682.862 686,684.5C 692.239,689.37 698.739,693.87 705.5,698C 712.874,699.419 719.874,701.586 726.5,704.5C 714.808,704.395 703.142,704.895 691.5,706C 690.062,706.219 688.729,706.719 687.5,707.5C 684.486,718.733 682.32,730.066 681,741.5C 686.626,750.584 692.126,759.75 697.5,769C 708.66,774.746 719.66,780.746 730.5,787C 750.356,789.642 770.023,793.142 789.5,797.5C 788.337,799.285 787.67,801.285 787.5,803.5C 788.756,812.809 789.256,822.142 789,831.5C 785.187,845.419 781.687,859.419 778.5,873.5C 782.497,889.869 782.331,906.203 778,922.5C 768.943,931.712 759.61,940.712 750,949.5C 743.417,957.742 737.251,966.242 731.5,975C 732.094,975.464 732.761,975.631 733.5,975.5C 720.579,980.619 707.579,985.785 694.5,991C 693.856,995.934 693.19,1000.77 692.5,1005.5C 692.5,1000.83 692.5,996.167 692.5,991.5C 687.09,993.026 681.756,994.859 676.5,997C 664.514,999.016 652.514,1000.85 640.5,1002.5C 635.067,1003.19 634.401,1002.02 638.5,999C 647.115,993.441 655.282,987.274 663,980.5C 665.504,972.987 668.004,965.487 670.5,958C 669.416,952.834 668.416,947.668 667.5,942.5C 640.693,935.548 613.693,929.382 586.5,924C 578.247,918.624 570.08,913.124 562,907.5C 556.333,898.5 550.667,889.5 545,880.5C 536.803,849.042 528.303,817.709 519.5,786.5C 529.932,782.441 540.598,778.941 551.5,776C 562.363,765.471 572.863,754.637 583,743.5C 585.708,734.532 588.874,725.865 592.5,717.5C 593.495,733.822 593.662,750.155 593,766.5C 586.259,776.122 582.259,786.789 581,798.5C 579.63,801.05 578.463,803.717 577.5,806.5C 578.467,807.984 579.8,808.984 581.5,809.5C 580.697,810.423 580.53,811.423 581,812.5C 584.167,815 587.333,817.5 590.5,820C 611.491,822.489 632.491,822.822 653.5,821C 656.999,816.998 659.999,812.665 662.5,808C 659.215,803.712 655.548,799.712 651.5,796C 642.167,791.667 632.833,787.333 623.5,783C 619.377,782.563 615.377,783.063 611.5,784.5C 612.323,774.23 612.489,763.897 612,753.5C 620.704,726.166 624.371,698.166 623,669.5C 619.245,662.991 615.745,656.324 612.5,649.5C 602.396,644.569 592.396,639.402 582.5,634C 569.607,631.184 556.607,629.018 543.5,627.5C 533.457,630.084 523.79,633.417 514.5,637.5C 506.188,636.76 497.854,636.427 489.5,636.5C 489.65,618.138 488.983,599.804 487.5,581.5C 487.748,575.766 488.415,570.1 489.5,564.5C 509.95,568.02 530.283,572.187 550.5,577C 564.862,586.51 579.195,596.01 593.5,605.5C 593.56,606.043 593.893,606.376 594.5,606.5C 595.817,600.012 595.817,593.678 594.5,587.5C 584.23,581.359 573.897,575.193 563.5,569C 552.167,564 540.833,559 529.5,554C 517.847,552.085 506.18,550.252 494.5,548.5C 493.722,547.844 493.056,547.011 492.5,546C 495.053,531.848 497.553,517.681 500,503.5C 504.18,491.812 508.347,480.146 512.5,468.5C 513.306,467.272 514.306,466.272 515.5,465.5C 528.735,461.257 541.402,455.757 553.5,449C 573.7,440.068 594.034,431.401 614.5,423C 628.986,418.903 643.653,415.569 658.5,413C 667.491,405.834 677.158,399.667 687.5,394.5C 688.167,394.667 688.833,394.833 689.5,395C 693.466,399.967 697.799,404.634 702.5,409C 726.443,421.966 750.109,435.299 773.5,449C 787.233,461.073 801.233,472.74 815.5,484C 828.97,493.459 842.97,502.126 857.5,510C 867.157,517.991 876.49,526.324 885.5,535C 892.683,541.683 899.35,548.85 905.5,556.5 Z"/></g>
<g><path style="opacity:1" fill="#f9faf9" d="M 1554.5,406.5 C 1553.37,404.034 1553.2,401.367 1554,398.5C 1554.5,401.146 1554.66,403.813 1554.5,406.5 Z"/></g>
<g><path style="opacity:1" fill="#f9faf9" d="M 1554.5,406.5 C 1555.47,408.948 1555.81,411.615 1555.5,414.5C 1554.53,412.052 1554.19,409.385 1554.5,406.5 Z"/></g>
<g><path style="opacity:1" fill="#d5d5d5" d="M 506.5,343.5 C 495.377,352.785 484.377,362.285 473.5,372C 461.346,398.142 448.512,423.975 435,449.5C 434.833,452.667 434.667,455.833 434.5,459C 439.097,569.447 441.264,679.947 441,790.5C 443.033,815.864 445.366,841.197 448,866.5C 448.325,870.616 449.159,874.616 450.5,878.5C 463.307,872.096 475.974,865.763 488.5,859.5C 488.5,860.5 488.5,861.5 488.5,862.5C 473.58,869.131 458.913,876.131 444.5,883.5C 440.959,846.546 437.959,809.546 435.5,772.5C 436.135,666.114 434.302,559.781 430,453.5C 442.534,426.099 455.867,399.099 470,372.5C 478.073,365.216 486.24,358.049 494.5,351C 498.388,348.228 502.388,345.728 506.5,343.5 Z"/></g>
<g><path style="opacity:1" fill="#f9faf9" d="M 1555.5,414.5 C 1556.47,416.948 1556.81,419.615 1556.5,422.5C 1555.53,420.052 1555.19,417.385 1555.5,414.5 Z"/></g>
<g><path style="opacity:1" fill="#000000" d="M 1838.5,418.5 C 1883.5,416.04 1915.67,435.04 1935,475.5C 1946.68,508.397 1943.01,539.397 1924,568.5C 1895.99,602.612 1860.82,613.112 1818.5,600C 1780.3,582.299 1760.97,552.299 1760.5,510C 1762.62,470.754 1781.29,442.421 1816.5,425C 1823.86,422.46 1831.19,420.294 1838.5,418.5 Z"/></g>
<g><path style="opacity:1" fill="#f9faf9" d="M 1556.5,422.5 C 1557.47,424.948 1557.81,427.615 1557.5,430.5C 1556.53,428.052 1556.19,425.385 1556.5,422.5 Z"/></g>
<g><path style="opacity:1" fill="#f9faf9" d="M 1557.5,430.5 C 1558.63,432.966 1558.8,435.633 1558,438.5C 1557.5,435.854 1557.34,433.187 1557.5,430.5 Z"/></g>
<g><path style="opacity:1" fill="#f8cdf8" d="M 512.5,468.5 C 508.347,480.146 504.18,491.812 500,503.5C 497.553,517.681 495.053,531.848 492.5,546C 493.056,547.011 493.722,547.844 494.5,548.5C 485.46,546.938 476.46,545.271 467.5,543.5C 473.982,527.232 481.149,511.232 489,495.5C 496.698,486.307 504.532,477.307 512.5,468.5 Z"/></g>
<g><path style="opacity:1" fill="#050405" d="M 467.5,543.5 C 476.46,545.271 485.46,546.938 494.5,548.5C 506.18,550.252 517.847,552.085 529.5,554C 540.833,559 552.167,564 563.5,569C 573.897,575.193 584.23,581.359 594.5,587.5C 594.823,593.69 594.49,599.69 593.5,605.5C 579.195,596.01 564.862,586.51 550.5,577C 530.283,572.187 509.95,568.02 489.5,564.5C 485.158,563.807 480.825,562.974 476.5,562C 472.462,558.326 468.129,555.159 463.5,552.5C 464.075,549.088 465.408,546.088 467.5,543.5 Z"/></g>
<g><path style="opacity:1" fill="#040304" d="M 768.5,546.5 C 784.155,547.666 799.822,548.833 815.5,550C 828.058,551.312 840.392,553.645 852.5,557C 847.003,559.168 841.336,560.835 835.5,562C 814.797,562.254 794.13,563.254 773.5,565C 763.833,570 754.167,575 744.5,580C 733.986,587.758 723.653,595.758 713.5,604C 707.129,606.068 700.796,608.235 694.5,610.5C 691.472,606.639 688.639,602.639 686,598.5C 685.383,597.551 685.549,596.718 686.5,596C 702.78,584.72 718.78,573.053 734.5,561C 746.039,556.391 757.372,551.557 768.5,546.5 Z"/></g>
<g><path style="opacity:1" fill="#f8cdf8" d="M 463.5,552.5 C 468.129,555.159 472.462,558.326 476.5,562C 480.825,562.974 485.158,563.807 489.5,564.5C 488.415,570.1 487.748,575.766 487.5,581.5C 488.983,599.804 489.65,618.138 489.5,636.5C 484.489,636.666 479.489,636.499 474.5,636C 468.5,634.167 462.5,632.333 456.5,630.5C 455.584,630.543 454.917,630.876 454.5,631.5C 453.183,619.627 451.683,607.627 450,595.5C 449.333,590.167 449.333,584.833 450,579.5C 454.949,570.621 459.449,561.621 463.5,552.5 Z"/></g>
<g><path style="opacity:1" fill="#f28ff9" d="M 905.5,556.5 C 911.487,564.462 916.987,572.795 922,581.5C 926.125,594.665 929.625,607.998 932.5,621.5C 932.047,625.173 931.547,628.84 931,632.5C 920.468,674.015 910.468,715.682 901,757.5C 893.849,780.619 886.515,803.619 879,826.5C 878.667,832.5 878.333,838.5 878,844.5C 876.337,846.158 875.504,848.158 875.5,850.5C 872.833,855.167 870.167,859.833 867.5,864.5C 865.736,865.326 864.402,866.659 863.5,868.5C 849.253,884.805 835.587,901.638 822.5,919C 798.167,935.333 773.833,951.667 749.5,968C 744.25,970.769 738.917,973.269 733.5,975.5C 732.761,975.631 732.094,975.464 731.5,975C 737.251,966.242 743.417,957.742 750,949.5C 759.61,940.712 768.943,931.712 778,922.5C 782.331,906.203 782.497,889.869 778.5,873.5C 781.687,859.419 785.187,845.419 789,831.5C 789.256,822.142 788.756,812.809 787.5,803.5C 787.67,801.285 788.337,799.285 789.5,797.5C 770.023,793.142 750.356,789.642 730.5,787C 719.66,780.746 708.66,774.746 697.5,769C 692.126,759.75 686.626,750.584 681,741.5C 682.32,730.066 684.486,718.733 687.5,707.5C 688.729,706.719 690.062,706.219 691.5,706C 703.142,704.895 714.808,704.395 726.5,704.5C 729.903,704.851 733.237,705.518 736.5,706.5C 745.324,707.33 754.324,707.83 763.5,708C 788.006,714.96 812.672,721.293 837.5,727C 846.843,727.965 856.176,728.632 865.5,729C 875.457,714.253 885.291,699.419 895,684.5C 896.463,644.085 899.13,603.752 903,563.5C 903.156,560.809 903.989,558.476 905.5,556.5 Z"/></g>
<g><path style="opacity:1" fill="#c7b6cd" d="M 594.5,587.5 C 595.817,593.678 595.817,600.012 594.5,606.5C 593.893,606.376 593.56,606.043 593.5,605.5C 594.49,599.69 594.823,593.69 594.5,587.5 Z"/></g>
<g><path style="opacity:1" fill="#fabbf9" d="M 300.5,686.5 C 299.203,697.295 299.203,707.961 300.5,718.5C 299.477,736.821 298.644,755.154 298,773.5C 297.323,783.577 296.157,793.577 294.5,803.5C 299.292,815.707 303.792,828.041 308,840.5C 308.833,841.333 309.667,842.167 310.5,843C 317.289,847.811 324.456,851.978 332,855.5C 341.613,845.887 351.279,836.221 361,826.5C 364.883,813.999 368.217,801.332 371,788.5C 375.941,781.39 381.775,775.057 388.5,769.5C 389.666,794.493 389.833,819.493 389,844.5C 386.205,854.146 383.538,863.813 381,873.5C 369.802,883.473 359.302,893.973 349.5,905C 337.691,914.136 325.857,923.302 314,932.5C 313.667,935.833 313.333,939.167 313,942.5C 309.635,946.693 306.135,950.693 302.5,954.5C 298.874,957.095 296.208,960.428 294.5,964.5C 291.891,969.383 288.557,973.716 284.5,977.5C 282.147,979.101 279.98,981.101 278,983.5C 277.517,984.448 277.351,985.448 277.5,986.5C 273.975,992.23 269.975,997.563 265.5,1002.5C 263.876,1002.64 262.71,1001.97 262,1000.5C 261.464,1002.57 261.964,1004.4 263.5,1006C 263.272,1006.4 262.938,1006.57 262.5,1006.5C 260.65,1003.31 258.65,1000.15 256.5,997C 258.686,996.396 258.852,995.23 257,993.5C 256.667,994.167 256.333,994.833 256,995.5C 251.72,988.409 247.72,981.409 244,974.5C 242.457,972.622 240.624,971.122 238.5,970C 239.056,969.617 239.389,969.117 239.5,968.5C 243.807,961.851 248.141,955.184 252.5,948.5C 252.376,947.893 252.043,947.56 251.5,947.5C 252.152,939.571 251.986,931.571 251,923.5C 249.294,919.921 247.461,916.421 245.5,913C 246.38,911.644 246.714,910.144 246.5,908.5C 249.565,896.805 252.732,885.138 256,873.5C 265.227,852.372 275.06,831.372 285.5,810.5C 285.333,810.167 285.167,809.833 285,809.5C 272.382,823.285 259.215,836.619 245.5,849.5C 244.504,849.414 243.671,849.748 243,850.5C 242.468,823.817 242.968,797.15 244.5,770.5C 244.674,761.094 244.007,751.761 242.5,742.5C 242.87,740.333 243.537,738.333 244.5,736.5C 244.5,736.167 244.5,735.833 244.5,735.5C 248.857,712.547 253.024,689.547 257,666.5C 258.67,646.435 260.837,626.435 263.5,606.5C 266.614,607.091 269.114,608.758 271,611.5C 278.782,621.43 286.782,631.097 295,640.5C 297.57,655.744 299.403,671.078 300.5,686.5 Z"/></g>
<g><path style="opacity:1" fill="#f9ccf9" d="M 611.5,784.5 C 609.586,785.185 607.586,785.685 605.5,786C 596.968,793.366 588.968,801.199 581.5,809.5C 579.8,808.984 578.467,807.984 577.5,806.5C 578.463,803.717 579.63,801.05 581,798.5C 582.259,786.789 586.259,776.122 593,766.5C 593.662,750.155 593.495,733.822 592.5,717.5C 592.5,716.833 592.5,716.167 592.5,715.5C 593.91,712.153 595.244,708.653 596.5,705C 594.291,701.711 593.957,698.211 595.5,694.5C 596.809,692.429 597.475,689.929 597.5,687C 596.386,678.606 592.719,671.439 586.5,665.5C 582.729,662.232 579.062,658.732 575.5,655C 555.882,646.514 535.548,640.68 514.5,637.5C 523.79,633.417 533.457,630.084 543.5,627.5C 556.607,629.018 569.607,631.184 582.5,634C 592.396,639.402 602.396,644.569 612.5,649.5C 615.745,656.324 619.245,662.991 623,669.5C 624.371,698.166 620.704,726.166 612,753.5C 612.489,763.897 612.323,774.23 611.5,784.5 Z"/></g>
<g><path style="opacity:1" fill="#0d0c0e" d="M 809.5,705.5 C 798.321,705.828 787.321,705.495 776.5,704.5C 796.567,702.654 816.067,698.32 835,691.5C 838.943,685.949 842.11,679.949 844.5,673.5C 847.495,668.032 849.828,662.199 851.5,656C 850.092,650.684 847.092,646.517 842.5,643.5C 836.971,641.263 831.305,639.097 825.5,637C 814.5,636.333 803.5,636.333 792.5,637C 779.617,641.567 766.95,646.401 754.5,651.5C 735.645,658.117 716.978,665.117 698.5,672.5C 710.146,664.399 722.48,657.232 735.5,651C 750.739,645.587 765.739,639.587 780.5,633C 791.926,631.707 803.26,629.873 814.5,627.5C 823.9,629.947 833.4,631.947 843,633.5C 850.159,632.715 857.326,632.048 864.5,631.5C 860.427,651.78 853.594,671.113 844,689.5C 833.863,697.609 822.363,702.943 809.5,705.5 Z"/></g>
<g><path style="opacity:1" fill="#0c0a0d" d="M 454.5,631.5 C 454.917,630.876 455.584,630.543 456.5,630.5C 462.5,632.333 468.5,634.167 474.5,636C 479.489,636.499 484.489,636.666 489.5,636.5C 497.854,636.427 506.188,636.76 514.5,637.5C 535.548,640.68 555.882,646.514 575.5,655C 579.062,658.732 582.729,662.232 586.5,665.5C 574.28,659.055 561.613,653.722 548.5,649.5C 544.327,648.956 540.327,647.79 536.5,646C 514.132,645.48 491.798,645.813 469.5,647C 467,646.115 464.667,644.948 462.5,643.5C 462.167,643.833 461.833,644.167 461.5,644.5C 466.789,654.083 471.289,664.083 475,674.5C 481.079,682.954 489.246,687.954 499.5,689.5C 499.158,690.338 498.492,690.672 497.5,690.5C 490.818,689.474 484.151,688.307 477.5,687C 473.968,682.64 470.301,678.473 466.5,674.5C 464.104,659.655 460.104,645.322 454.5,631.5 Z"/></g>
<g><path style="opacity:1" fill="#e08ef9" d="M 1558.5,638.5 C 1559.49,638.328 1560.16,638.662 1560.5,639.5C 1559.96,639.56 1559.62,639.893 1559.5,640.5C 1564.35,642.295 1569.35,643.295 1574.5,643.5C 1591.12,646.59 1607.79,649.757 1624.5,653C 1661.44,678.144 1698.44,702.977 1735.5,727.5C 1745.5,734.833 1755.5,742.167 1765.5,749.5C 1775.32,750.494 1785.32,750.827 1795.5,750.5C 1843.65,752.998 1891.98,754.165 1940.5,754C 1942.32,753.34 1943.66,752.173 1944.5,750.5C 1969.13,732.181 1994.46,714.848 2020.5,698.5C 2014.24,716.626 2008.57,734.959 2003.5,753.5C 1959,771.503 1914.67,790.003 1870.5,809C 1867.83,809.667 1865.17,809.667 1862.5,809C 1825.11,801.651 1787.77,793.985 1750.5,786C 1703.99,751.577 1657.65,716.91 1611.5,682C 1557.26,671.323 1502.92,661.156 1448.5,651.5C 1448.5,649.5 1448.5,647.5 1448.5,645.5C 1450.38,645.771 1451.71,645.104 1452.5,643.5C 1452.5,642.833 1452.83,642.5 1453.5,642.5C 1453.97,643.693 1454.97,644.36 1456.5,644.5C 1478.49,641.035 1500.49,637.702 1522.5,634.5C 1533.78,636.714 1545.12,638.714 1556.5,640.5C 1557.71,640.253 1558.38,639.586 1558.5,638.5 Z"/></g>
<g><path style="opacity:1" fill="#95ccf7" d="M 842.5,643.5 C 845.535,653.329 846.202,663.329 844.5,673.5C 842.11,679.949 838.943,685.949 835,691.5C 816.067,698.32 796.567,702.654 776.5,704.5C 775.833,704.5 775.167,704.5 774.5,704.5C 770.498,698.53 765.998,692.863 761,687.5C 758.017,678.37 755.183,669.203 752.5,660C 753.5,657.667 754.5,655.333 755.5,653C 755.43,652.235 755.097,651.735 754.5,651.5C 766.95,646.401 779.617,641.567 792.5,637C 803.5,636.333 814.5,636.333 825.5,637C 831.305,639.097 836.971,641.263 842.5,643.5 Z"/></g>
<g><path style="opacity:1" fill="#ebb6fa" d="M 1558.5,638.5 C 1558.38,639.586 1557.71,640.253 1556.5,640.5C 1545.12,638.714 1533.78,636.714 1522.5,634.5C 1500.49,637.702 1478.49,641.035 1456.5,644.5C 1454.97,644.36 1453.97,643.693 1453.5,642.5C 1476.74,639.714 1499.9,636.381 1523,632.5C 1535,634.093 1546.84,636.093 1558.5,638.5 Z"/></g>
<g><path style="opacity:1" fill="#ebb8fa" d="M 1560.5,639.5 C 1565.24,639.735 1569.91,640.402 1574.5,641.5C 1574.5,642.167 1574.5,642.833 1574.5,643.5C 1569.35,643.295 1564.35,642.295 1559.5,640.5C 1559.62,639.893 1559.96,639.56 1560.5,639.5 Z"/></g>
<g><path style="opacity:1" fill="#f7f7f7" d="M 548.5,649.5 C 545.621,656.928 542.454,664.262 539,671.5C 538.772,678.499 538.939,685.499 539.5,692.5C 526.155,691.181 512.822,690.181 499.5,689.5C 489.246,687.954 481.079,682.954 475,674.5C 471.289,664.083 466.789,654.083 461.5,644.5C 461.833,644.167 462.167,643.833 462.5,643.5C 464.667,644.948 467,646.115 469.5,647C 491.798,645.813 514.132,645.48 536.5,646C 540.327,647.79 544.327,648.956 548.5,649.5 Z"/></g>
<g><path style="opacity:1" fill="#ecc0f9" d="M 1452.5,643.5 C 1451.71,645.104 1450.38,645.771 1448.5,645.5C 1448.5,647.5 1448.5,649.5 1448.5,651.5C 1502.92,661.156 1557.26,671.323 1611.5,682C 1657.65,716.91 1703.99,751.577 1750.5,786C 1787.77,793.985 1825.11,801.651 1862.5,809C 1865.17,809.667 1867.83,809.667 1870.5,809C 1914.67,790.003 1959,771.503 2003.5,753.5C 2008.57,734.959 2014.24,716.626 2020.5,698.5C 2026.4,693.202 2032.74,688.369 2039.5,684C 2052.22,674.982 2065.22,666.482 2078.5,658.5C 2078.67,707.168 2078.5,755.834 2078,804.5C 2072.77,791.052 2066.77,778.052 2060,765.5C 2037.52,774.161 2015.35,783.495 1993.5,793.5C 2003.67,815.167 2013.83,836.833 2024,858.5C 2023.76,872.889 2022.59,887.222 2020.5,901.5C 2001.92,910.705 1983.42,920.039 1965,929.5C 1964.33,942.833 1964.33,956.167 1965,969.5C 1974.54,978.708 1983.71,988.208 1992.5,998C 1986.3,1009.56 1979.97,1021.06 1973.5,1032.5C 1959.66,1040.59 1945.66,1048.42 1931.5,1056C 1917.5,1056.33 1903.5,1056.67 1889.5,1057C 1883.57,1073.78 1878.24,1090.78 1873.5,1108C 1877.67,1117.5 1882.5,1126.67 1888,1135.5C 1887.79,1148.19 1886.96,1160.86 1885.5,1173.5C 1864.71,1177.9 1844.71,1184.56 1825.5,1193.5C 1831.5,1204.17 1838,1214.5 1845,1224.5C 1846.96,1237.11 1847.96,1249.78 1848,1262.5C 1842.88,1267.77 1838.38,1273.44 1834.5,1279.5C 1757.5,1279.5 1680.5,1279.5 1603.5,1279.5C 1599.06,1278.35 1595.23,1276.02 1592,1272.5C 1568.59,1240.41 1542.92,1210.07 1515,1181.5C 1514.42,1180 1514.92,1179 1516.5,1178.5C 1527.29,1171.55 1537.95,1164.39 1548.5,1157C 1567.17,1156.67 1585.83,1156.33 1604.5,1156C 1589,1134.5 1573.5,1113 1558,1091.5C 1557.77,1092.74 1557.27,1093.74 1556.5,1094.5C 1556.66,1092.47 1556.5,1090.47 1556,1088.5C 1554.12,1086.58 1552.62,1084.41 1551.5,1082C 1553.3,1078.59 1554.63,1075.09 1555.5,1071.5C 1557.19,1070.53 1558.69,1069.19 1560,1067.5C 1565.55,1057.4 1571.39,1047.4 1577.5,1037.5C 1579,1037.17 1580.5,1036.83 1582,1036.5C 1593.37,1039.06 1604.87,1040.23 1616.5,1040C 1622.91,1037.82 1628.91,1034.99 1634.5,1031.5C 1620.81,1012.32 1605.81,994.153 1589.5,977C 1588.91,976.536 1588.24,976.369 1587.5,976.5C 1587.61,975.883 1587.94,975.383 1588.5,975C 1572.35,957.85 1556.52,940.35 1541,922.5C 1539.67,917.833 1538.33,913.167 1537,908.5C 1536.62,907.944 1536.12,907.611 1535.5,907.5C 1532.66,895.46 1529.49,883.46 1526,871.5C 1523.71,869.946 1521.55,868.279 1519.5,866.5C 1521.5,866.5 1523.5,866.5 1525.5,866.5C 1524.99,863.159 1524.83,859.826 1525,856.5C 1529.39,852.282 1533.89,848.949 1538.5,846.5C 1539.44,850.074 1541.44,852.907 1544.5,855C 1571.44,873.612 1598.11,892.612 1624.5,912C 1650.04,919.968 1675.71,927.468 1701.5,934.5C 1688.83,935.167 1676.17,935.833 1663.5,936.5C 1652.54,946.294 1641.7,956.294 1631,966.5C 1627.68,981.445 1625.01,996.445 1623,1011.5C 1641.36,1026.02 1659.86,1040.36 1678.5,1054.5C 1681.99,1035.23 1685.16,1015.89 1688,996.5C 1695.14,981.89 1701.97,967.224 1708.5,952.5C 1744.2,950.449 1779.87,947.949 1815.5,945C 1800.44,942.38 1785.44,939.546 1770.5,936.5C 1752.5,935.833 1734.5,935.167 1716.5,934.5C 1748.51,930.141 1780.51,925.641 1812.5,921C 1794.33,917.334 1776.33,913.501 1758.5,909.5C 1767.49,910.107 1776.49,910.44 1785.5,910.5C 1790.35,911.814 1795.35,911.814 1800.5,910.5C 1797.29,909.192 1793.96,908.525 1790.5,908.5C 1783.47,907.606 1776.47,906.606 1769.5,905.5C 1764.78,903.775 1759.78,902.775 1754.5,902.5C 1748.13,900.344 1741.46,899.011 1734.5,898.5C 1728.06,898.152 1721.73,897.152 1715.5,895.5C 1690.05,875.888 1664.71,856.055 1639.5,836C 1636.5,834.333 1633.5,832.667 1630.5,831C 1622.75,827.463 1614.75,824.463 1606.5,822C 1603.76,820.974 1601.43,819.474 1599.5,817.5C 1598.65,815.907 1597.32,814.74 1595.5,814C 1585.26,811.06 1575.59,807.727 1566.5,804C 1565.96,801.891 1564.96,801.391 1563.5,802.5C 1561.88,801.885 1560.55,800.885 1559.5,799.5C 1557.67,800.282 1556.17,799.616 1555,797.5C 1553.6,798.731 1552.43,800.064 1551.5,801.5C 1531.87,791.511 1512.54,780.677 1493.5,769C 1471.19,757.225 1449.19,744.725 1427.5,731.5C 1425.5,703.538 1424.5,675.538 1424.5,647.5C 1434.02,646.812 1443.35,645.478 1452.5,643.5 Z"/></g>
<g><path style="opacity:1" fill="#eceff2" d="M 842.5,643.5 C 847.092,646.517 850.092,650.684 851.5,656C 849.828,662.199 847.495,668.032 844.5,673.5C 846.202,663.329 845.535,653.329 842.5,643.5 Z"/></g>
<g><path style="opacity:1" fill="#96cbf6" d="M 548.5,649.5 C 561.613,653.722 574.28,659.055 586.5,665.5C 592.719,671.439 596.386,678.606 597.5,687C 597.475,689.929 596.809,692.429 595.5,694.5C 583.846,695.194 572.18,695.527 560.5,695.5C 557.5,695.5 554.5,695.5 551.5,695.5C 547.539,694.316 543.539,693.316 539.5,692.5C 538.939,685.499 538.772,678.499 539,671.5C 542.454,664.262 545.621,656.928 548.5,649.5 Z"/></g>
<g><path style="opacity:1" fill="#f8f8f8" d="M 754.5,651.5 C 755.097,651.735 755.43,652.235 755.5,653C 754.5,655.333 753.5,657.667 752.5,660C 755.183,669.203 758.017,678.37 761,687.5C 765.998,692.863 770.498,698.53 774.5,704.5C 772.302,704.875 770.302,705.542 768.5,706.5C 757.833,706.5 747.167,706.5 736.5,706.5C 733.237,705.518 729.903,704.851 726.5,704.5C 719.874,701.586 712.874,699.419 705.5,698C 698.739,693.87 692.239,689.37 686,684.5C 686.242,682.862 687.075,681.362 688.5,680C 691.729,677.259 695.062,674.759 698.5,672.5C 716.978,665.117 735.645,658.117 754.5,651.5 Z"/></g>
<g><path style="opacity:1" fill="#050607" d="M 812.5,653.5 C 816.931,655.215 821.265,657.215 825.5,659.5C 826.833,668.5 826.833,677.5 825.5,686.5C 822.5,689.167 819.5,691.833 816.5,694.5C 803.62,688.223 797.62,678.056 798.5,664C 803.35,660.637 808.017,657.137 812.5,653.5 Z"/></g>
<g><path style="opacity:1" fill="#030405" d="M 568.5,664.5 C 574.707,665.957 580.54,668.29 586,671.5C 586.419,672.672 587.085,673.672 588,674.5C 588.499,679.489 588.666,684.489 588.5,689.5C 585.188,689.993 582.021,690.993 579,692.5C 576.239,691.692 573.572,690.692 571,689.5C 565.547,681.497 564.714,673.164 568.5,664.5 Z"/></g>
<g><path style="opacity:1" fill="#faa2f9" d="M 218.5,690.5 C 219.072,692.255 219.906,693.922 221,695.5C 226.623,699.955 231.789,704.955 236.5,710.5C 238.512,719.526 240.512,728.526 242.5,737.5C 243.183,737.137 243.85,736.804 244.5,736.5C 243.537,738.333 242.87,740.333 242.5,742.5C 244.007,751.761 244.674,761.094 244.5,770.5C 242.968,797.15 242.468,823.817 243,850.5C 243.671,849.748 244.504,849.414 245.5,849.5C 244.759,852.413 244.259,855.413 244,858.5C 240.346,864.139 237.513,870.139 235.5,876.5C 226.827,876.334 218.16,876.5 209.5,877C 215.871,879.068 222.204,881.235 228.5,883.5C 233.758,893.021 239.258,902.354 245,911.5C 245.232,910.263 245.732,909.263 246.5,908.5C 246.714,910.144 246.38,911.644 245.5,913C 247.461,916.421 249.294,919.921 251,923.5C 251.986,931.571 252.152,939.571 251.5,947.5C 247.501,954.156 243.001,960.489 238,966.5C 229.393,960.449 220.56,954.782 211.5,949.5C 215.291,937.771 218.124,925.771 220,913.5C 223.285,907.269 225.452,900.935 226.5,894.5C 221.918,899.991 218.085,905.991 215,912.5C 210.404,922.625 206.404,932.958 203,943.5C 196.761,938.63 190.261,934.13 183.5,930C 178.101,923.605 173.101,916.939 168.5,910C 170.516,902.797 172.683,895.631 175,888.5C 179.419,881.328 184.085,874.328 189,867.5C 195.004,871.906 201.17,875.24 207.5,877.5C 205.139,875.806 203.139,873.806 201.5,871.5C 203.249,863.921 204.416,856.255 205,848.5C 205.667,833.167 205.667,817.833 205,802.5C 201.634,796.665 197.801,791.331 193.5,786.5C 193.5,785.167 193.5,783.833 193.5,782.5C 193.897,769.169 194.23,755.835 194.5,742.5C 195.117,742.389 195.617,742.056 196,741.5C 196.641,735.472 196.474,729.472 195.5,723.5C 195.668,708.47 196.335,693.47 197.5,678.5C 198.163,676.958 198.83,675.291 199.5,673.5C 204.282,678.237 208.948,683.071 213.5,688C 215.078,689.094 216.745,689.928 218.5,690.5 Z"/></g>
<g><path style="opacity:1" fill="#fae8fa" d="M 218.5,690.5 C 216.745,689.928 215.078,689.094 213.5,688C 208.948,683.071 204.282,678.237 199.5,673.5C 198.83,675.291 198.163,676.958 197.5,678.5C 197.336,675.813 197.503,673.146 198,670.5C 199.419,671.46 200.919,672.293 202.5,673C 207.699,679.029 213.033,684.862 218.5,690.5 Z"/></g>
<g><path style="opacity:1" fill="#f5caf5" d="M 466.5,674.5 C 470.301,678.473 473.968,682.64 477.5,687C 484.151,688.307 490.818,689.474 497.5,690.5C 499.385,692.85 499.718,695.35 498.5,698C 488.467,700.106 478.467,702.273 468.5,704.5C 468.494,694.431 467.828,684.431 466.5,674.5 Z"/></g>
<g><path style="opacity:1" fill="#faeafa" d="M 300.5,686.5 C 301.833,697.167 301.833,707.833 300.5,718.5C 299.203,707.961 299.203,697.295 300.5,686.5 Z"/></g>
<g><path style="opacity:1" fill="#f38ffa" d="M 551.5,695.5 C 554.5,695.5 557.5,695.5 560.5,695.5C 569.383,696.118 578.383,696.951 587.5,698C 588.817,699.659 590.483,700.826 592.5,701.5C 592.833,702.333 593.167,703.167 593.5,704C 592.69,707.792 592.356,711.625 592.5,715.5C 592.5,716.167 592.5,716.833 592.5,717.5C 588.874,725.865 585.708,734.532 583,743.5C 572.863,754.637 562.363,765.471 551.5,776C 540.598,778.941 529.932,782.441 519.5,786.5C 519.167,786.5 518.833,786.5 518.5,786.5C 511.611,758.059 505.611,729.393 500.5,700.5C 500.833,699.5 501.167,698.5 501.5,697.5C 508.202,695.431 515.036,694.098 522,693.5C 531.823,694.378 541.657,695.045 551.5,695.5 Z"/></g>
<g><path style="opacity:1" fill="#f3affa" d="M 595.5,694.5 C 593.957,698.211 594.291,701.711 596.5,705C 595.244,708.653 593.91,712.153 592.5,715.5C 592.356,711.625 592.69,707.792 593.5,704C 593.167,703.167 592.833,702.333 592.5,701.5C 590.483,700.826 588.817,699.659 587.5,698C 578.383,696.951 569.383,696.118 560.5,695.5C 572.18,695.527 583.846,695.194 595.5,694.5 Z"/></g>
<g><path style="opacity:1" fill="#f9baf9" d="M 499.5,689.5 C 512.822,690.181 526.155,691.181 539.5,692.5C 543.539,693.316 547.539,694.316 551.5,695.5C 541.657,695.045 531.823,694.378 522,693.5C 515.036,694.098 508.202,695.431 501.5,697.5C 501.167,698.5 500.833,699.5 500.5,700.5C 505.611,729.393 511.611,758.059 518.5,786.5C 513.96,788.291 509.293,789.791 504.5,791C 495.167,799.667 485.833,808.333 476.5,817C 475.552,817.483 474.552,817.649 473.5,817.5C 468.741,808.315 464.241,798.982 460,789.5C 458.384,777.136 456.55,764.803 454.5,752.5C 458.859,736.395 463.526,720.395 468.5,704.5C 478.467,702.273 488.467,700.106 498.5,698C 499.718,695.35 499.385,692.85 497.5,690.5C 498.492,690.672 499.158,690.338 499.5,689.5 Z"/></g>
<g><path style="opacity:1" fill="#4a3a51" d="M 774.5,704.5 C 775.167,704.5 775.833,704.5 776.5,704.5C 787.321,705.495 798.321,705.828 809.5,705.5C 796.01,706.496 782.344,706.829 768.5,706.5C 770.302,705.542 772.302,704.875 774.5,704.5 Z"/></g>
<g><path style="opacity:1" fill="#f364fa" d="M 841.5,728.5 C 842.675,728.281 843.675,728.614 844.5,729.5C 849.604,738.708 854.437,748.041 859,757.5C 860.167,768 861.333,778.5 862.5,789C 860.407,801.76 859.074,814.593 858.5,827.5C 851.93,829.276 845.264,830.776 838.5,832C 836.5,832.667 834.5,832.667 832.5,832C 819.724,819.466 806.057,808.132 791.5,798C 795.812,794.84 800.479,792.173 805.5,790C 812.118,782.593 818.618,775.093 825,767.5C 831.18,754.796 836.68,741.796 841.5,728.5 Z"/></g>
<g><path style="opacity:1" fill="#fad6f9" d="M 195.5,723.5 C 196.474,729.472 196.641,735.472 196,741.5C 195.617,742.056 195.117,742.389 194.5,742.5C 194.177,735.978 194.51,729.645 195.5,723.5 Z"/></g>
<g><path style="opacity:1" fill="#fae1fa" d="M 218.5,690.5 C 225.131,696.631 231.631,702.964 238,709.5C 239.521,718.464 241.688,727.13 244.5,735.5C 244.5,735.833 244.5,736.167 244.5,736.5C 243.85,736.804 243.183,737.137 242.5,737.5C 240.512,728.526 238.512,719.526 236.5,710.5C 231.789,704.955 226.623,699.955 221,695.5C 219.906,693.922 219.072,692.255 218.5,690.5 Z"/></g>
<g><path style="opacity:1" fill="#b57ff1" d="M 1795.5,750.5 C 1834.16,751.409 1872.83,752.076 1911.5,752.5C 1921.51,752.666 1931.51,752.5 1941.5,752C 1942.24,750.961 1943.24,750.461 1944.5,750.5C 1943.66,752.173 1942.32,753.34 1940.5,754C 1891.98,754.165 1843.65,752.998 1795.5,750.5 Z"/></g>
<g><path style="opacity:1" fill="#6d5fe6" d="M 1765.5,749.5 C 1814.35,749.595 1863.01,750.595 1911.5,752.5C 1872.83,752.076 1834.16,751.409 1795.5,750.5C 1785.32,750.827 1775.32,750.494 1765.5,749.5 Z"/></g>
<g><path style="opacity:1" fill="#fac1c1" d="M 2079.5,657.5 C 2079.5,784.833 2079.5,912.167 2079.5,1039.5C 2069.17,1038.91 2058.83,1038.25 2048.5,1037.5C 2046.5,1037.83 2044.5,1038.17 2042.5,1038.5C 2054.15,1051.32 2065.98,1063.98 2078,1076.5C 2078.17,1064.99 2078.67,1053.66 2079.5,1042.5C 2079.5,1121.5 2079.5,1200.5 2079.5,1279.5C 2079.17,1279.5 2078.83,1279.5 2078.5,1279.5C 2078.5,1268.83 2078.5,1258.17 2078.5,1247.5C 2026.17,1238.67 1973.84,1230.17 1921.5,1222C 1936.3,1241.11 1950.96,1260.27 1965.5,1279.5C 1921.83,1279.5 1878.17,1279.5 1834.5,1279.5C 1838.38,1273.44 1842.88,1267.77 1848,1262.5C 1847.96,1249.78 1846.96,1237.11 1845,1224.5C 1838,1214.5 1831.5,1204.17 1825.5,1193.5C 1844.71,1184.56 1864.71,1177.9 1885.5,1173.5C 1886.96,1160.86 1887.79,1148.19 1888,1135.5C 1882.5,1126.67 1877.67,1117.5 1873.5,1108C 1878.24,1090.78 1883.57,1073.78 1889.5,1057C 1903.5,1056.67 1917.5,1056.33 1931.5,1056C 1945.66,1048.42 1959.66,1040.59 1973.5,1032.5C 1979.97,1021.06 1986.3,1009.56 1992.5,998C 1983.71,988.208 1974.54,978.708 1965,969.5C 1964.33,956.167 1964.33,942.833 1965,929.5C 1983.42,920.039 2001.92,910.705 2020.5,901.5C 2022.59,887.222 2023.76,872.889 2024,858.5C 2013.83,836.833 2003.67,815.167 1993.5,793.5C 2015.35,783.495 2037.52,774.161 2060,765.5C 2066.77,778.052 2072.77,791.052 2078,804.5C 2078.5,755.834 2078.67,707.168 2078.5,658.5C 2078.5,657.833 2078.83,657.5 2079.5,657.5 Z"/></g>
<g><path style="opacity:1" fill="#f9f7f9" d="M 193.5,782.5 C 193.5,783.833 193.5,785.167 193.5,786.5C 192.635,797.66 190.801,808.66 188,819.5C 185.454,828.772 183.121,838.105 181,847.5C 180.56,849.076 179.727,850.41 178.5,851.5C 179.567,855.921 180.4,860.254 181,864.5C 174.667,875.833 168.333,887.167 162,898.5C 159.504,903.32 157.504,908.32 156,913.5C 148.272,922.057 140.439,930.39 132.5,938.5C 133.013,935.088 133.847,931.755 135,928.5C 146.973,908.565 158.973,888.565 171,868.5C 178.893,839.749 185.726,810.749 191.5,781.5C 192.183,781.863 192.85,782.196 193.5,782.5 Z"/></g>
<g><path style="opacity:1" fill="#ed83fa" d="M 581.5,809.5 C 588.968,801.199 596.968,793.366 605.5,786C 607.586,785.685 609.586,785.185 611.5,784.5C 615.377,783.063 619.377,782.563 623.5,783C 632.833,787.333 642.167,791.667 651.5,796C 655.548,799.712 659.215,803.712 662.5,808C 659.999,812.665 656.999,816.998 653.5,821C 632.491,822.822 611.491,822.489 590.5,820C 587.333,817.5 584.167,815 581,812.5C 580.53,811.423 580.697,810.423 581.5,809.5 Z"/></g>
<g><path style="opacity:1" fill="#f9cef9" d="M 518.5,786.5 C 518.833,786.5 519.167,786.5 519.5,786.5C 528.303,817.709 536.803,849.042 545,880.5C 550.667,889.5 556.333,898.5 562,907.5C 570.08,913.124 578.247,918.624 586.5,924C 613.693,929.382 640.693,935.548 667.5,942.5C 668.416,947.668 669.416,952.834 670.5,958C 668.004,965.487 665.504,972.987 663,980.5C 655.282,987.274 647.115,993.441 638.5,999C 634.401,1002.02 635.067,1003.19 640.5,1002.5C 638.105,1003.81 635.605,1003.81 633,1002.5C 632.283,1003.04 631.783,1003.71 631.5,1004.5C 627.154,1004.67 622.821,1004.5 618.5,1004C 607.988,999.607 597.322,995.607 586.5,992C 570.45,974.072 554.284,956.239 538,938.5C 521.277,913.284 504.777,887.951 488.5,862.5C 488.5,861.5 488.5,860.5 488.5,859.5C 489.209,858.596 490.209,858.263 491.5,858.5C 491.322,855.784 490.822,853.117 490,850.5C 483.967,839.767 478.467,828.767 473.5,817.5C 474.552,817.649 475.552,817.483 476.5,817C 485.833,808.333 495.167,799.667 504.5,791C 509.293,789.791 513.96,788.291 518.5,786.5 Z"/></g>
<g><path style="opacity:1" fill="#ecbbf9" d="M 1599.5,817.5 C 1595.5,816.5 1591.5,815.5 1587.5,814.5C 1587.6,823.844 1587.93,833.177 1588.5,842.5C 1585.27,842.441 1582.94,840.941 1581.5,838C 1579.03,837.887 1577.03,836.887 1575.5,835C 1570.59,832.585 1565.42,830.752 1560,829.5C 1557.97,829.858 1556.13,830.692 1554.5,832C 1549.79,836.38 1544.79,840.38 1539.5,844C 1538.75,844.671 1538.41,845.504 1538.5,846.5C 1533.89,848.949 1529.39,852.282 1525,856.5C 1524.83,859.826 1524.99,863.159 1525.5,866.5C 1523.5,866.5 1521.5,866.5 1519.5,866.5C 1517.8,866.66 1516.13,866.494 1514.5,866C 1526.73,844.356 1539.07,822.856 1551.5,801.5C 1552.43,800.064 1553.6,798.731 1555,797.5C 1556.17,799.616 1557.67,800.282 1559.5,799.5C 1560.55,800.885 1561.88,801.885 1563.5,802.5C 1564.96,801.391 1565.96,801.891 1566.5,804C 1575.59,807.727 1585.26,811.06 1595.5,814C 1597.32,814.74 1598.65,815.907 1599.5,817.5 Z"/></g>
<g><path style="opacity:1" fill="#fa7ef3" d="M 246.5,908.5 C 245.732,909.263 245.232,910.263 245,911.5C 239.258,902.354 233.758,893.021 228.5,883.5C 222.204,881.235 215.871,879.068 209.5,877C 218.16,876.5 226.827,876.334 235.5,876.5C 237.513,870.139 240.346,864.139 244,858.5C 244.259,855.413 244.759,852.413 245.5,849.5C 259.215,836.619 272.382,823.285 285,809.5C 285.167,809.833 285.333,810.167 285.5,810.5C 275.06,831.372 265.227,852.372 256,873.5C 252.732,885.138 249.565,896.805 246.5,908.5 Z"/></g>
<g><path style="opacity:1" fill="#0a0bb6" d="M 1599.5,817.5 C 1601.43,819.474 1603.76,820.974 1606.5,822C 1614.75,824.463 1622.75,827.463 1630.5,831C 1633.5,832.667 1636.5,834.333 1639.5,836C 1664.71,856.055 1690.05,875.888 1715.5,895.5C 1721.73,897.152 1728.06,898.152 1734.5,898.5C 1735.93,899.537 1737.6,900.204 1739.5,900.5C 1739.8,903.059 1739.47,905.393 1738.5,907.5C 1723.44,907.32 1708.44,906.32 1693.5,904.5C 1692.79,902.189 1691.79,900.022 1690.5,898C 1656.54,879.201 1622.54,860.701 1588.5,842.5C 1587.93,833.177 1587.6,823.844 1587.5,814.5C 1591.5,815.5 1595.5,816.5 1599.5,817.5 Z"/></g>
<g><path style="opacity:1" fill="#e08ff9" d="M 1588.5,842.5 C 1622.54,860.701 1656.54,879.201 1690.5,898C 1691.79,900.022 1692.79,902.189 1693.5,904.5C 1708.44,906.32 1723.44,907.32 1738.5,907.5C 1745.03,908.239 1751.7,908.906 1758.5,909.5C 1776.33,913.501 1794.33,917.334 1812.5,921C 1780.51,925.641 1748.51,930.141 1716.5,934.5C 1711.45,935.72 1706.45,935.72 1701.5,934.5C 1675.71,927.468 1650.04,919.968 1624.5,912C 1598.11,892.612 1571.44,873.612 1544.5,855C 1541.44,852.907 1539.44,850.074 1538.5,846.5C 1538.41,845.504 1538.75,844.671 1539.5,844C 1544.79,840.38 1549.79,836.38 1554.5,832C 1556.13,830.692 1557.97,829.858 1560,829.5C 1565.42,830.752 1570.59,832.585 1575.5,835C 1577.03,836.887 1579.03,837.887 1581.5,838C 1582.94,840.941 1585.27,842.441 1588.5,842.5 Z"/></g>
<g><path style="opacity:1" fill="#f7e2fa" d="M 867.5,864.5 C 866.928,865.973 866.095,867.307 865,868.5C 864.828,875.013 864.328,881.347 863.5,887.5C 863.5,881.167 863.5,874.833 863.5,868.5C 864.402,866.659 865.736,865.326 867.5,864.5 Z"/></g>
<g><path style="opacity:1" fill="#e79cfa" d="M 863.5,868.5 C 863.5,874.833 863.5,881.167 863.5,887.5C 863.324,924.838 863.158,962.171 863,999.5C 866.486,1012.78 869.653,1026.11 872.5,1039.5C 869.515,1041.25 867.015,1043.59 865,1046.5C 859.358,1062.43 853.525,1078.26 847.5,1094C 803.45,1106.55 759.284,1118.39 715,1129.5C 711.588,1129.39 708.421,1128.72 705.5,1127.5C 701.177,1096.54 697.011,1065.54 693,1034.5C 692.5,1024.84 692.334,1015.17 692.5,1005.5C 693.19,1000.77 693.856,995.934 694.5,991C 707.579,985.785 720.579,980.619 733.5,975.5C 738.917,973.269 744.25,970.769 749.5,968C 773.833,951.667 798.167,935.333 822.5,919C 835.587,901.638 849.253,884.805 863.5,868.5 Z"/></g>
<g><path style="opacity:1" fill="#2ab9f8" d="M 1483.5,932.5 C 1483.75,933.922 1484.58,934.922 1486,935.5C 1485.85,940.777 1483.35,944.777 1478.5,947.5C 1474.52,944.855 1470.86,941.855 1467.5,938.5C 1463.69,934.865 1459.69,931.365 1455.5,928C 1437.32,915.818 1419.16,903.652 1401,891.5C 1389.36,900.645 1378.19,910.312 1367.5,920.5C 1363.17,924.663 1358.67,928.663 1354,932.5C 1348.52,970.057 1344.02,1007.72 1340.5,1045.5C 1338.94,1051.26 1338.28,1057.26 1338.5,1063.5C 1337.83,1073.5 1337.17,1083.5 1336.5,1093.5C 1335.19,1099.29 1334.52,1105.29 1334.5,1111.5C 1333.1,1132.18 1331.43,1152.85 1329.5,1173.5C 1331.95,1198.2 1334.61,1222.86 1337.5,1247.5C 1337.87,1255.05 1338.87,1262.39 1340.5,1269.5C 1341.41,1272.73 1341.75,1276.06 1341.5,1279.5C 1332.5,1279.5 1323.5,1279.5 1314.5,1279.5C 1314.5,1277.83 1314.5,1276.17 1314.5,1274.5C 1314.67,1267.83 1314.5,1261.16 1314,1254.5C 1313.08,1243.6 1311.58,1232.93 1309.5,1222.5C 1307.05,1205.03 1305.05,1187.36 1303.5,1169.5C 1302.85,1142.98 1301.52,1116.65 1299.5,1090.5C 1299.33,1078.16 1299.5,1065.83 1300,1053.5C 1303.39,1033.47 1306.89,1013.47 1310.5,993.5C 1312.68,987.479 1314.18,981.146 1315,974.5C 1315.8,971.304 1315.64,968.304 1314.5,965.5C 1314.94,956.8 1315.78,948.133 1317,939.5C 1323,929.833 1329,920.167 1335,910.5C 1342.58,904.581 1350.41,899.081 1358.5,894C 1362.79,889.526 1367.46,885.526 1372.5,882C 1382,878.167 1391.5,874.333 1401,870.5C 1403.84,872.017 1406.68,873.517 1409.5,875C 1434.77,893.46 1459.44,912.627 1483.5,932.5 Z"/></g>
<g><path style="opacity:1" fill="#f26286" d="M 681.5,880.5 C 669.871,881.941 658.204,883.108 646.5,884C 640.327,885.585 634.161,887.085 628,888.5C 621.219,887.684 614.719,885.851 608.5,883C 606.19,882.503 603.857,882.337 601.5,882.5C 610.842,879.952 620.342,879.952 630,882.5C 647.211,879.454 664.378,878.787 681.5,880.5 Z"/></g>
<g><path style="opacity:1" fill="#110a0c" d="M 681.5,880.5 C 691.922,880.221 702.256,881.054 712.5,883C 716.828,884.829 720.828,887.162 724.5,890C 723.161,892.016 721.328,893.183 719,893.5C 711.621,891.596 704.454,889.096 697.5,886C 692.98,885.186 688.646,885.353 684.5,886.5C 673.464,886.252 662.464,886.752 651.5,888C 645.585,891.125 639.585,893.959 633.5,896.5C 627.512,894.335 621.512,892.168 615.5,890C 608.823,889.165 602.157,888.332 595.5,887.5C 590.511,888.222 585.511,888.388 580.5,888C 586.643,883.065 593.643,881.231 601.5,882.5C 603.857,882.337 606.19,882.503 608.5,883C 614.719,885.851 621.219,887.684 628,888.5C 634.161,887.085 640.327,885.585 646.5,884C 658.204,883.108 669.871,881.941 681.5,880.5 Z"/></g>
<g><path style="opacity:1" fill="#f55e83" d="M 684.5,886.5 C 685.239,886.369 685.906,886.536 686.5,887C 669.82,895.504 652.153,900.671 633.5,902.5C 626.497,901.066 619.497,899.566 612.5,898C 607.627,895.064 602.627,892.397 597.5,890C 596.619,889.292 595.953,888.458 595.5,887.5C 602.157,888.332 608.823,889.165 615.5,890C 621.512,892.168 627.512,894.335 633.5,896.5C 639.585,893.959 645.585,891.125 651.5,888C 662.464,886.752 673.464,886.252 684.5,886.5 Z"/></g>
<g><path style="opacity:1" fill="#020202" d="M 1467.5,938.5 C 1458.08,941.373 1448.75,944.54 1439.5,948C 1412.76,949.392 1386.09,951.559 1359.5,954.5C 1361.85,943.091 1364.52,931.758 1367.5,920.5C 1378.19,910.312 1389.36,900.645 1401,891.5C 1419.16,903.652 1437.32,915.818 1455.5,928C 1459.69,931.365 1463.69,934.865 1467.5,938.5 Z"/></g>
<g><path style="opacity:1" fill="#927ee9" d="M 1734.5,898.5 C 1741.46,899.011 1748.13,900.344 1754.5,902.5C 1749.47,902.02 1744.47,901.353 1739.5,900.5C 1737.6,900.204 1735.93,899.537 1734.5,898.5 Z"/></g>
<g><path style="opacity:1" fill="#172ed6" d="M 1739.5,900.5 C 1744.47,901.353 1749.47,902.02 1754.5,902.5C 1754.92,903.222 1755.58,903.722 1756.5,904C 1760.83,904.583 1765.17,905.083 1769.5,905.5C 1776.47,906.606 1783.47,907.606 1790.5,908.5C 1790.61,909.117 1790.94,909.617 1791.5,910C 1789.53,910.495 1787.53,910.662 1785.5,910.5C 1776.49,910.44 1767.49,910.107 1758.5,909.5C 1751.7,908.906 1745.03,908.239 1738.5,907.5C 1739.47,905.393 1739.8,903.059 1739.5,900.5 Z"/></g>
<g><path style="opacity:1" fill="#7b72e8" d="M 1754.5,902.5 C 1759.78,902.775 1764.78,903.775 1769.5,905.5C 1765.17,905.083 1760.83,904.583 1756.5,904C 1755.58,903.722 1754.92,903.222 1754.5,902.5 Z"/></g>
<g><path style="opacity:1" fill="#e689f9" d="M 1535.5,907.5 C 1536.12,907.611 1536.62,907.944 1537,908.5C 1538.33,913.167 1539.67,917.833 1541,922.5C 1556.52,940.35 1572.35,957.85 1588.5,975C 1587.94,975.383 1587.61,975.883 1587.5,976.5C 1584.55,977.644 1581.89,979.311 1579.5,981.5C 1568.83,997.5 1558.17,1013.5 1547.5,1029.5C 1550.17,1043.53 1552.84,1057.53 1555.5,1071.5C 1554.63,1075.09 1553.3,1078.59 1551.5,1082C 1552.62,1084.41 1554.12,1086.58 1556,1088.5C 1556.5,1090.47 1556.66,1092.47 1556.5,1094.5C 1545.53,1104.96 1534.7,1115.63 1524,1126.5C 1520.96,1142.69 1517.79,1158.86 1514.5,1175C 1514.98,1176.3 1515.64,1177.47 1516.5,1178.5C 1514.92,1179 1514.42,1180 1515,1181.5C 1542.92,1210.07 1568.59,1240.41 1592,1272.5C 1595.23,1276.02 1599.06,1278.35 1603.5,1279.5C 1534.83,1279.5 1466.17,1279.5 1397.5,1279.5C 1380.01,1246.53 1362.51,1213.53 1345,1180.5C 1347.44,1114.52 1349.77,1048.52 1352,982.5C 1354.22,972.963 1356.72,963.629 1359.5,954.5C 1386.09,951.559 1412.76,949.392 1439.5,948C 1448.75,944.54 1458.08,941.373 1467.5,938.5C 1470.86,941.855 1474.52,944.855 1478.5,947.5C 1483.35,944.777 1485.85,940.777 1486,935.5C 1484.58,934.922 1483.75,933.922 1483.5,932.5C 1485.14,931.841 1486.8,931.174 1488.5,930.5C 1488.91,934.07 1488.91,937.736 1488.5,941.5C 1487.83,941.5 1487.5,941.833 1487.5,942.5C 1484.71,957.1 1482.05,971.767 1479.5,986.5C 1475.72,1001.25 1472.89,1016.25 1471,1031.5C 1474.11,1017.79 1477.27,1004.13 1480.5,990.5C 1488.88,970.737 1497.55,951.071 1506.5,931.5C 1506.38,930.893 1506.04,930.56 1505.5,930.5C 1506.61,929.115 1507.61,927.615 1508.5,926C 1517.38,919.613 1526.38,913.446 1535.5,907.5 Z"/></g>
<g><path style="opacity:1" fill="#696be5" d="M 1790.5,908.5 C 1793.96,908.525 1797.29,909.192 1800.5,910.5C 1795.35,911.814 1790.35,911.814 1785.5,910.5C 1787.53,910.662 1789.53,910.495 1791.5,910C 1790.94,909.617 1790.61,909.117 1790.5,908.5 Z"/></g>
<g><path style="opacity:1" fill="#c00fb5" d="M 193.5,786.5 C 197.801,791.331 201.634,796.665 205,802.5C 205.667,817.833 205.667,833.167 205,848.5C 204.416,856.255 203.249,863.921 201.5,871.5C 203.139,873.806 205.139,875.806 207.5,877.5C 201.17,875.24 195.004,871.906 189,867.5C 184.085,874.328 179.419,881.328 175,888.5C 172.683,895.631 170.516,902.797 168.5,910C 173.101,916.939 178.101,923.605 183.5,930C 190.261,934.13 196.761,938.63 203,943.5C 206.404,932.958 210.404,922.625 215,912.5C 218.085,905.991 221.918,899.991 226.5,894.5C 225.452,900.935 223.285,907.269 220,913.5C 218.124,925.771 215.291,937.771 211.5,949.5C 212.5,952.5 214.5,954.5 217.5,955.5C 217.631,956.376 217.298,957.043 216.5,957.5C 207.133,951.151 197.466,945.317 187.5,940C 175.021,936.067 163.521,937.901 153,945.5C 146.462,954.658 140.962,964.324 136.5,974.5C 135.691,976.028 135.024,977.694 134.5,979.5C 134.5,979.833 134.5,980.167 134.5,980.5C 133.425,981.562 132.425,981.562 131.5,980.5C 129.003,976.692 127.003,972.692 125.5,968.5C 127.847,958.469 130.18,948.469 132.5,938.5C 140.439,930.39 148.272,922.057 156,913.5C 157.504,908.32 159.504,903.32 162,898.5C 168.333,887.167 174.667,875.833 181,864.5C 180.4,860.254 179.567,855.921 178.5,851.5C 179.727,850.41 180.56,849.076 181,847.5C 183.121,838.105 185.454,828.772 188,819.5C 190.801,808.66 192.635,797.66 193.5,786.5 Z"/></g>
<g><path style="opacity:1" fill="#f87678" d="M 1367.5,920.5 C 1364.52,931.758 1361.85,943.091 1359.5,954.5C 1356.72,963.629 1354.22,972.963 1352,982.5C 1349.77,1048.52 1347.44,1114.52 1345,1180.5C 1362.51,1213.53 1380.01,1246.53 1397.5,1279.5C 1378.83,1279.5 1360.17,1279.5 1341.5,1279.5C 1341.75,1276.06 1341.41,1272.73 1340.5,1269.5C 1340.41,1261.91 1339.41,1254.58 1337.5,1247.5C 1334.61,1222.86 1331.95,1198.2 1329.5,1173.5C 1331.43,1152.85 1333.1,1132.18 1334.5,1111.5C 1335.95,1105.73 1336.61,1099.73 1336.5,1093.5C 1337.17,1083.5 1337.83,1073.5 1338.5,1063.5C 1339.81,1057.71 1340.48,1051.71 1340.5,1045.5C 1344.02,1007.72 1348.52,970.057 1354,932.5C 1358.67,928.663 1363.17,924.663 1367.5,920.5 Z"/></g>
<g><path style="opacity:1" fill="#0f0c0f" d="M 1505.5,930.5 C 1506.04,930.56 1506.38,930.893 1506.5,931.5C 1497.55,951.071 1488.88,970.737 1480.5,990.5C 1479.57,989.432 1479.23,988.099 1479.5,986.5C 1482.05,971.767 1484.71,957.1 1487.5,942.5C 1488.17,942.5 1488.5,942.167 1488.5,941.5C 1494.34,938.082 1500,934.416 1505.5,930.5 Z"/></g>
<g><path style="opacity:1" fill="#e7a8fa" d="M 1701.5,934.5 C 1706.45,935.72 1711.45,935.72 1716.5,934.5C 1734.5,935.167 1752.5,935.833 1770.5,936.5C 1734.83,936.5 1699.17,936.5 1663.5,936.5C 1676.17,935.833 1688.83,935.167 1701.5,934.5 Z"/></g>
<g><path style="opacity:1" fill="#e18ffa" d="M 1663.5,936.5 C 1699.17,936.5 1734.83,936.5 1770.5,936.5C 1785.44,939.546 1800.44,942.38 1815.5,945C 1779.87,947.949 1744.2,950.449 1708.5,952.5C 1701.97,967.224 1695.14,981.89 1688,996.5C 1685.16,1015.89 1681.99,1035.23 1678.5,1054.5C 1659.86,1040.36 1641.36,1026.02 1623,1011.5C 1625.01,996.445 1627.68,981.445 1631,966.5C 1641.7,956.294 1652.54,946.294 1663.5,936.5 Z"/></g>
<g><path style="opacity:1" fill="#faa2f9" d="M 217.5,955.5 C 224.575,960.367 231.908,964.7 239.5,968.5C 239.389,969.117 239.056,969.617 238.5,970C 240.624,971.122 242.457,972.622 244,974.5C 247.72,981.409 251.72,988.409 256,995.5C 256.333,994.833 256.667,994.167 257,993.5C 258.852,995.23 258.686,996.396 256.5,997C 258.65,1000.15 260.65,1003.31 262.5,1006.5C 264.363,1010.25 266.697,1013.58 269.5,1016.5C 270.906,1016.97 271.573,1017.97 271.5,1019.5C 273.694,1022.61 276.36,1025.27 279.5,1027.5C 284.18,1031.35 288.68,1035.35 293,1039.5C 292.184,1043.05 290.35,1046.21 287.5,1049C 276.833,1049.67 266.167,1049.67 255.5,1049C 251.901,1046.05 248.567,1042.88 245.5,1039.5C 244.5,1036.5 242.5,1034.5 239.5,1033.5C 237.143,1031.65 234.643,1029.98 232,1028.5C 230.594,1029.41 229.094,1030.08 227.5,1030.5C 228.703,1028.86 229.536,1027.19 230,1025.5C 226.833,1023 223.667,1020.5 220.5,1018C 214.328,1016.16 207.995,1015.16 201.5,1015C 194.105,1012.87 186.772,1010.54 179.5,1008C 169.064,1001.9 158.397,996.23 147.5,991C 143.268,987.257 138.935,983.757 134.5,980.5C 134.5,980.167 134.5,979.833 134.5,979.5C 152.052,991.609 171.052,1001.11 191.5,1008C 196.677,1009.63 201.844,1009.79 207,1008.5C 207.742,1000.22 208.909,992.058 210.5,984C 215.367,980.735 220.367,977.735 225.5,975C 229.706,974.838 233.873,975.338 238,976.5C 238.833,976.167 239.667,975.833 240.5,975.5C 236.721,971.12 232.387,967.454 227.5,964.5C 220.932,966.884 214.266,969.051 207.5,971C 203.833,975.333 200.167,979.667 196.5,984C 178.814,983.265 161.147,981.932 143.5,980C 141.5,979 139.5,978 137.5,977C 136.748,976.329 136.414,975.496 136.5,974.5C 140.962,964.324 146.462,954.658 153,945.5C 163.521,937.901 175.021,936.067 187.5,940C 197.466,945.317 207.133,951.151 216.5,957.5C 217.298,957.043 217.631,956.376 217.5,955.5 Z"/></g>
<g><path style="opacity:1" fill="#fa7ef3" d="M 132.5,938.5 C 130.18,948.469 127.847,958.469 125.5,968.5C 127.003,972.692 129.003,976.692 131.5,980.5C 132.425,981.562 133.425,981.562 134.5,980.5C 138.935,983.757 143.268,987.257 147.5,991C 158.397,996.23 169.064,1001.9 179.5,1008C 186.772,1010.54 194.105,1012.87 201.5,1015C 207.995,1015.16 214.328,1016.16 220.5,1018C 223.667,1020.5 226.833,1023 230,1025.5C 229.536,1027.19 228.703,1028.86 227.5,1030.5C 227.158,1031.34 226.492,1031.67 225.5,1031.5C 222.984,1031.76 220.65,1032.59 218.5,1034C 210.167,1039.17 201.833,1044.33 193.5,1049.5C 184.388,1041.38 174.721,1034.05 164.5,1027.5C 153.162,1018.07 141.662,1008.73 130,999.5C 127.1,991.612 123.934,983.945 120.5,976.5C 120.585,973.351 119.585,970.684 117.5,968.5C 117.312,964.936 116.312,961.603 114.5,958.5C 115.63,957.378 116.297,956.044 116.5,954.5C 117.239,954.631 117.906,954.464 118.5,954C 122.282,949.814 125.948,945.647 129.5,941.5C 129.5,939.5 130.5,938.5 132.5,938.5 Z"/></g>
<g><path style="opacity:1" fill="#fad4f9" d="M 129.5,941.5 C 125.948,945.647 122.282,949.814 118.5,954C 117.906,954.464 117.239,954.631 116.5,954.5C 119.833,949.167 124.167,944.833 129.5,941.5 Z"/></g>
<g><path style="opacity:1" fill="#faecf9" d="M 302.5,954.5 C 300.312,958.207 297.645,961.54 294.5,964.5C 296.208,960.428 298.874,957.095 302.5,954.5 Z"/></g>
<g><path style="opacity:1" fill="#fbcef9" d="M 116.5,954.5 C 116.297,956.044 115.63,957.378 114.5,958.5C 116.312,961.603 117.312,964.936 117.5,968.5C 115.798,965.584 114.465,962.417 113.5,959C 113.522,956.817 114.522,955.317 116.5,954.5 Z"/></g>
<g><path style="opacity:1" fill="#faebfa" d="M 251.5,947.5 C 252.043,947.56 252.376,947.893 252.5,948.5C 248.141,955.184 243.807,961.851 239.5,968.5C 231.908,964.7 224.575,960.367 217.5,955.5C 214.5,954.5 212.5,952.5 211.5,949.5C 220.56,954.782 229.393,960.449 238,966.5C 243.001,960.489 247.501,954.156 251.5,947.5 Z"/></g>
<g><path style="opacity:1" fill="#e910dc" d="M 134.5,979.5 C 135.024,977.694 135.691,976.028 136.5,974.5C 136.414,975.496 136.748,976.329 137.5,977C 139.5,978 141.5,979 143.5,980C 161.147,981.932 178.814,983.265 196.5,984C 200.167,979.667 203.833,975.333 207.5,971C 214.266,969.051 220.932,966.884 227.5,964.5C 232.387,967.454 236.721,971.12 240.5,975.5C 239.667,975.833 238.833,976.167 238,976.5C 233.873,975.338 229.706,974.838 225.5,975C 220.367,977.735 215.367,980.735 210.5,984C 208.909,992.058 207.742,1000.22 207,1008.5C 201.844,1009.79 196.677,1009.63 191.5,1008C 171.052,1001.11 152.052,991.609 134.5,979.5 Z"/></g>
<g><path style="opacity:1" fill="#f97676" d="M 1314.5,966.5 C 1313.28,975.514 1311.94,984.514 1310.5,993.5C 1306.89,1013.47 1303.39,1033.47 1300,1053.5C 1299.5,1065.83 1299.33,1078.16 1299.5,1090.5C 1299.83,1112.17 1300.33,1133.84 1301,1155.5C 1301.52,1160.36 1302.36,1165.03 1303.5,1169.5C 1305.05,1187.36 1307.05,1205.03 1309.5,1222.5C 1311.2,1239.98 1312.86,1257.32 1314.5,1274.5C 1314.5,1276.17 1314.5,1277.83 1314.5,1279.5C 1283.5,1279.5 1252.5,1279.5 1221.5,1279.5C 1215.19,1273.86 1209.19,1267.86 1203.5,1261.5C 1216.71,1230.74 1230.21,1200.07 1244,1169.5C 1263.94,1104.51 1283.77,1039.51 1303.5,974.5C 1307.17,971.833 1310.83,969.167 1314.5,966.5 Z"/></g>
<g><path style="opacity:1" fill="#fbd2f9" d="M 117.5,968.5 C 119.585,970.684 120.585,973.351 120.5,976.5C 118.415,974.316 117.415,971.649 117.5,968.5 Z"/></g>
<g><path style="opacity:1" fill="#9397b7" d="M 1314.5,965.5 C 1315.64,968.304 1315.8,971.304 1315,974.5C 1314.18,981.146 1312.68,987.479 1310.5,993.5C 1311.94,984.514 1313.28,975.514 1314.5,966.5C 1314.5,966.167 1314.5,965.833 1314.5,965.5 Z"/></g>
<g><path style="opacity:1" fill="#c1f2f9" d="M 1303.5,974.5 C 1283.77,1039.51 1263.94,1104.51 1244,1169.5C 1230.21,1200.07 1216.71,1230.74 1203.5,1261.5C 1187.9,1248.07 1172.74,1234.07 1158,1219.5C 1144.67,1190.83 1131.33,1162.17 1118,1133.5C 1111.67,1111.83 1105.33,1090.17 1099,1068.5C 1100.5,1115.83 1102.5,1163.17 1105,1210.5C 1117.37,1231.42 1129.87,1252.25 1142.5,1273C 1139.58,1274.95 1136.91,1277.11 1134.5,1279.5C 928.833,1279.5 723.167,1279.5 517.5,1279.5C 520.486,1255.1 523.986,1230.76 528,1206.5C 542.667,1165.17 557.333,1123.83 572,1082.5C 572.74,1081.25 572.573,1080.25 571.5,1079.5C 587.329,1074 603.329,1068.67 619.5,1063.5C 623.586,1068.66 626.92,1074.33 629.5,1080.5C 636.11,1092.8 642.776,1105.13 649.5,1117.5C 668.055,1121.49 686.721,1124.82 705.5,1127.5C 708.421,1128.72 711.588,1129.39 715,1129.5C 759.284,1118.39 803.45,1106.55 847.5,1094C 853.525,1078.26 859.358,1062.43 865,1046.5C 867.015,1043.59 869.515,1041.25 872.5,1039.5C 882.139,1033.68 891.806,1027.84 901.5,1022C 938.496,1013.77 975.496,1005.6 1012.5,997.5C 1028.17,1005.33 1043.83,1013.17 1059.5,1021C 1087.86,1022.33 1116.19,1023.5 1144.5,1024.5C 1153.51,1024.67 1162.51,1024.5 1171.5,1024C 1200.03,1013.22 1228.36,1002.39 1256.5,991.5C 1272.37,985.352 1288.04,979.686 1303.5,974.5 Z"/></g>
<g><path style="opacity:1" fill="#e7a2fa" d="M 1587.5,976.5 C 1588.24,976.369 1588.91,976.536 1589.5,977C 1605.81,994.153 1620.81,1012.32 1634.5,1031.5C 1628.91,1034.99 1622.91,1037.82 1616.5,1040C 1604.87,1040.23 1593.37,1039.06 1582,1036.5C 1580.5,1036.83 1579,1037.17 1577.5,1037.5C 1571.39,1047.4 1565.55,1057.4 1560,1067.5C 1558.69,1069.19 1557.19,1070.53 1555.5,1071.5C 1552.84,1057.53 1550.17,1043.53 1547.5,1029.5C 1558.17,1013.5 1568.83,997.5 1579.5,981.5C 1581.89,979.311 1584.55,977.644 1587.5,976.5 Z"/></g>
<g><path style="opacity:1" fill="#faecfa" d="M 284.5,977.5 C 282.518,980.81 280.185,983.81 277.5,986.5C 277.351,985.448 277.517,984.448 278,983.5C 279.98,981.101 282.147,979.101 284.5,977.5 Z"/></g>
<g><path style="opacity:1" fill="#fae0f9" d="M 120.5,976.5 C 123.934,983.945 127.1,991.612 130,999.5C 141.662,1008.73 153.162,1018.07 164.5,1027.5C 160.866,1031.41 157.699,1035.74 155,1040.5C 146.435,1057.4 137.435,1074.07 128,1090.5C 114.569,1133 100.902,1175.33 87,1217.5C 81.2345,1238.28 75.4011,1258.95 69.5,1279.5C 48.8333,1279.5 28.1667,1279.5 7.5,1279.5C 7.23794,1267.87 6.9046,1257.2 6.5,1247.5C 11.1778,1230.46 16.0112,1213.46 21,1196.5C 31.4099,1173.91 41.4099,1151.24 51,1128.5C 66.8612,1100.56 82.5279,1072.56 98,1044.5C 105.491,1023.68 113.657,1003.18 122.5,983C 121.331,980.993 120.665,978.827 120.5,976.5 Z"/></g>
<g><path style="opacity:1" fill="#f9d9f9" d="M 692.5,1005.5 C 692.334,1015.17 692.5,1024.84 693,1034.5C 697.011,1065.54 701.177,1096.54 705.5,1127.5C 686.721,1124.82 668.055,1121.49 649.5,1117.5C 642.776,1105.13 636.11,1092.8 629.5,1080.5C 634.707,1075.94 638.04,1070.11 639.5,1063C 637.502,1043.52 635.836,1024.02 634.5,1004.5C 633.5,1004.5 632.5,1004.5 631.5,1004.5C 631.783,1003.71 632.283,1003.04 633,1002.5C 635.605,1003.81 638.105,1003.81 640.5,1002.5C 652.514,1000.85 664.514,999.016 676.5,997C 681.756,994.859 687.09,993.026 692.5,991.5C 692.5,996.167 692.5,1000.83 692.5,1005.5 Z"/></g>
<g><path style="opacity:1" fill="#f97777" d="M 1256.5,991.5 C 1228.36,1002.39 1200.03,1013.22 1171.5,1024C 1162.51,1024.5 1153.51,1024.67 1144.5,1024.5C 1181.62,1013.13 1218.95,1002.13 1256.5,991.5 Z"/></g>
<g><path style="opacity:1" fill="#503954" d="M 1479.5,986.5 C 1479.23,988.099 1479.57,989.432 1480.5,990.5C 1477.27,1004.13 1474.11,1017.79 1471,1031.5C 1472.89,1016.25 1475.72,1001.25 1479.5,986.5 Z"/></g>
<g><path style="opacity:1" fill="#faddf9" d="M 265.5,1002.5 C 265.077,1003.26 264.743,1004.1 264.5,1005C 266.651,1008.62 268.317,1012.45 269.5,1016.5C 266.697,1013.58 264.363,1010.25 262.5,1006.5C 262.938,1006.57 263.272,1006.4 263.5,1006C 261.964,1004.4 261.464,1002.57 262,1000.5C 262.71,1001.97 263.876,1002.64 265.5,1002.5 Z"/></g>
<g><path style="opacity:1" fill="#fae7fa" d="M 271.5,1019.5 C 275.167,1021.17 277.833,1023.83 279.5,1027.5C 276.36,1025.27 273.694,1022.61 271.5,1019.5 Z"/></g>
<g><path style="opacity:1" fill="#faa8f9" d="M 164.5,1027.5 C 174.721,1034.05 184.388,1041.38 193.5,1049.5C 201.833,1044.33 210.167,1039.17 218.5,1034C 220.65,1032.59 222.984,1031.76 225.5,1031.5C 222.896,1033.6 220.396,1035.93 218,1038.5C 209.54,1053.26 200.706,1067.76 191.5,1082C 191.616,1083.27 191.949,1084.6 192.5,1086C 190.785,1115.16 189.452,1144.16 188.5,1173C 188.833,1175.33 189.167,1177.67 189.5,1180C 185.114,1207.17 180.947,1234.67 177,1262.5C 175.961,1268.33 174.461,1273.99 172.5,1279.5C 138.167,1279.5 103.833,1279.5 69.5,1279.5C 75.4011,1258.95 81.2345,1238.28 87,1217.5C 100.902,1175.33 114.569,1133 128,1090.5C 137.435,1074.07 146.435,1057.4 155,1040.5C 157.699,1035.74 160.866,1031.41 164.5,1027.5 Z"/></g>
<g><path style="opacity:1" fill="#fae9fa" d="M 239.5,1033.5 C 242.5,1034.5 244.5,1036.5 245.5,1039.5C 243.027,1037.94 241.027,1035.94 239.5,1033.5 Z"/></g>
<g><path style="opacity:1" fill="#edc0f9" d="M 2079.5,1039.5 C 2079.5,1040.5 2079.5,1041.5 2079.5,1042.5C 2078.67,1053.66 2078.17,1064.99 2078,1076.5C 2065.98,1063.98 2054.15,1051.32 2042.5,1038.5C 2044.5,1038.17 2046.5,1037.83 2048.5,1037.5C 2058.83,1038.25 2069.17,1038.91 2079.5,1039.5 Z"/></g>
<g><path style="opacity:1" fill="#b58aa0" d="M 1340.5,1045.5 C 1340.48,1051.71 1339.81,1057.71 1338.5,1063.5C 1338.28,1057.26 1338.94,1051.26 1340.5,1045.5 Z"/></g>
<g><path style="opacity:1" fill="#e18ffa" d="M 1697.5,1064.5 C 1737.19,1073.47 1776.86,1082.64 1816.5,1092C 1782.19,1093.88 1747.86,1095.05 1713.5,1095.5C 1698.47,1125.21 1682.64,1154.55 1666,1183.5C 1663.35,1170.89 1661.01,1158.22 1659,1145.5C 1658.3,1141.09 1658.64,1136.76 1660,1132.5C 1664.24,1118.36 1668.41,1104.19 1672.5,1090C 1681.01,1081.65 1689.35,1073.15 1697.5,1064.5 Z"/></g>
<g><path style="opacity:1" fill="#010101" d="M 1203.5,1261.5 C 1209.19,1267.86 1215.19,1273.86 1221.5,1279.5C 1192.5,1279.5 1163.5,1279.5 1134.5,1279.5C 1136.91,1277.11 1139.58,1274.95 1142.5,1273C 1129.87,1252.25 1117.37,1231.42 1105,1210.5C 1102.5,1163.17 1100.5,1115.83 1099,1068.5C 1105.33,1090.17 1111.67,1111.83 1118,1133.5C 1131.33,1162.17 1144.67,1190.83 1158,1219.5C 1172.74,1234.07 1187.9,1248.07 1203.5,1261.5 Z"/></g>
<g><path style="opacity:1" fill="#ecf9f9" d="M 571.5,1079.5 C 572.573,1080.25 572.74,1081.25 572,1082.5C 557.333,1123.83 542.667,1165.17 528,1206.5C 523.986,1230.76 520.486,1255.1 517.5,1279.5C 443.833,1279.5 370.167,1279.5 296.5,1279.5C 308.321,1258.53 320.155,1237.53 332,1216.5C 335.75,1213.26 338.917,1209.59 341.5,1205.5C 363.301,1181.53 384.968,1157.36 406.5,1133C 460.95,1113.47 515.95,1095.64 571.5,1079.5 Z"/></g>
<g><path style="opacity:1" fill="#e7a2fa" d="M 1516.5,1178.5 C 1515.64,1177.47 1514.98,1176.3 1514.5,1175C 1517.79,1158.86 1520.96,1142.69 1524,1126.5C 1534.7,1115.63 1545.53,1104.96 1556.5,1094.5C 1557.27,1093.74 1557.77,1092.74 1558,1091.5C 1573.5,1113 1589,1134.5 1604.5,1156C 1585.83,1156.33 1567.17,1156.67 1548.5,1157C 1537.95,1164.39 1527.29,1171.55 1516.5,1178.5 Z"/></g>
<g><path style="opacity:1" fill="#b7899d" d="M 1336.5,1093.5 C 1336.61,1099.73 1335.95,1105.73 1334.5,1111.5C 1334.52,1105.29 1335.19,1099.29 1336.5,1093.5 Z"/></g>
<g><path style="opacity:1" fill="#edc0f9" d="M 1990.5,1126.5 C 2019.41,1130.82 2048.41,1136.16 2077.5,1142.5C 2078.67,1163.83 2078.83,1185.16 2078,1206.5C 2048.66,1180 2019.5,1153.33 1990.5,1126.5 Z"/></g>
<g><path style="opacity:1" fill="#5eabdf" d="M 1299.5,1090.5 C 1301.52,1116.65 1302.85,1142.98 1303.5,1169.5C 1302.36,1165.03 1301.52,1160.36 1301,1155.5C 1300.33,1133.84 1299.83,1112.17 1299.5,1090.5 Z"/></g>
<g><path style="opacity:1" fill="#e190fa" d="M 1643.5,1204.5 C 1655.5,1204.33 1667.5,1204.5 1679.5,1205C 1698.17,1213 1716.83,1221 1735.5,1229C 1751.48,1230.33 1767.48,1231.33 1783.5,1232C 1772.08,1237.13 1760.25,1240.96 1748,1243.5C 1718.82,1239.79 1689.65,1236.29 1660.5,1233C 1650.89,1247.99 1640.89,1262.32 1630.5,1276C 1634.67,1252.13 1639.01,1228.3 1643.5,1204.5 Z"/></g>
<g><path style="opacity:1" fill="#f97676" d="M 341.5,1205.5 C 338.917,1209.59 335.75,1213.26 332,1216.5C 320.155,1237.53 308.321,1258.53 296.5,1279.5C 281.5,1279.5 266.5,1279.5 251.5,1279.5C 266.293,1262.87 281.293,1246.37 296.5,1230C 311.554,1221.81 326.554,1213.64 341.5,1205.5 Z"/></g>
<g><path style="opacity:1" fill="#edc0f9" d="M 2078.5,1279.5 C 2040.83,1279.5 2003.17,1279.5 1965.5,1279.5C 1950.96,1260.27 1936.3,1241.11 1921.5,1222C 1973.84,1230.17 2026.17,1238.67 2078.5,1247.5C 2078.5,1258.17 2078.5,1268.83 2078.5,1279.5 Z"/></g>
<g><path style="opacity:1" fill="#9896b4" d="M 1309.5,1222.5 C 1311.58,1232.93 1313.08,1243.6 1314,1254.5C 1314.5,1261.16 1314.67,1267.83 1314.5,1274.5C 1312.86,1257.32 1311.2,1239.98 1309.5,1222.5 Z"/></g>
<g><path style="opacity:1" fill="#9795b3" d="M 1337.5,1247.5 C 1339.41,1254.58 1340.41,1261.91 1340.5,1269.5C 1338.87,1262.39 1337.87,1255.05 1337.5,1247.5 Z"/></g>
</svg>
