<?xml version="1.0" encoding="UTF-8"?>
<!DOCTYPE svg PUBLIC "-//W3C//DTD SVG 1.1//EN" "http://www.w3.org/Graphics/SVG/1.1/DTD/svg11.dtd">
<svg xmlns="http://www.w3.org/2000/svg" version="1.1" width="4080px" height="4580px" style="shape-rendering:geometricPrecision; text-rendering:geometricPrecision; image-rendering:optimizeQuality; fill-rule:evenodd; clip-rule:evenodd" xmlns:xlink="http://www.w3.org/1999/xlink">
<g><path style="opacity:1" fill="#ecf996" d="M -0.5,-0.5 C 1123.17,-0.5 2246.83,-0.5 3370.5,-0.5C 3313.15,68.1734 3255.32,136.507 3197,204.5C 3166,266.5 3135,328.5 3104,390.5C 3095.38,503.982 3086.88,617.482 3078.5,731C 3098.64,822.717 3119.8,914.217 3142,1005.5C 3198.06,1091.9 3253.73,1178.56 3309,1265.5C 3369.33,1305.17 3429.67,1344.83 3490,1384.5C 3467.83,1299.84 3445.33,1215.18 3422.5,1130.5C 3422.62,1128.21 3423.46,1126.21 3425,1124.5C 3469.95,1066.09 3514.79,1007.59 3559.5,949C 3593.5,949.151 3627.5,949.817 3661.5,951C 3752.85,953.683 3844.19,956.85 3935.5,960.5C 3982.8,1030.3 4030.3,1099.97 4078,1169.5C 4078.5,1818.5 4078.67,2467.5 4078.5,3116.5C 4058.08,2933.68 4037.92,2750.68 4018,2567.5C 3972.33,2391.48 3926.66,2215.48 3881,2039.5C 3795.03,1901.52 3709.03,1763.52 3623,1625.5C 3620.86,1622.06 3618.36,1618.89 3615.5,1616C 3474.68,1514.42 3333.68,1413.09 3192.5,1312C 2986.83,1145.67 2781.17,979.333 2575.5,813C 2467.17,740 2358.83,667 2250.5,594C 2002.74,560.129 1754.9,526.629 1507,493.5C 1504.75,493.631 1502.58,494.131 1500.5,495C 1344.6,566.119 1188.6,636.953 1032.5,707.5C 1083.74,559.824 1072.58,417.157 999,279.5C 918.996,143.238 801.496,58.0716 646.5,24C 485.594,-4.69006 341.261,31.3099 213.5,132C 75.1589,251.266 13.3256,402.432 28,585.5C 50.8637,752.892 133.364,881.392 275.5,971C 406.985,1046.64 545.985,1064.31 692.5,1024C 723.503,1014.61 753.503,1002.78 782.5,988.5C 740.497,1046.49 697.997,1104.16 655,1161.5C 623.752,1361.15 592.586,1560.81 561.5,1760.5C 428.854,1750.46 296.187,1740.46 163.5,1730.5C 160.044,1730.82 156.711,1731.65 153.5,1733C 102.254,1752.13 50.9209,1770.96 -0.5,1789.5C -0.5,1192.83 -0.5,596.167 -0.5,-0.5 Z"/></g>
<g><path style="opacity:1" fill="#a8daf9" d="M 3370.5,-0.5 C 3606.83,-0.5 3843.17,-0.5 4079.5,-0.5C 4079.5,1041.83 4079.5,2084.17 4079.5,3126.5C 4078.52,3123.38 4078.19,3120.04 4078.5,3116.5C 4078.67,2467.5 4078.5,1818.5 4078,1169.5C 4030.3,1099.97 3982.8,1030.3 3935.5,960.5C 3844.19,956.85 3752.85,953.683 3661.5,951C 3627.5,949.817 3593.5,949.151 3559.5,949C 3514.79,1007.59 3469.95,1066.09 3425,1124.5C 3423.46,1126.21 3422.62,1128.21 3422.5,1130.5C 3445.33,1215.18 3467.83,1299.84 3490,1384.5C 3429.67,1344.83 3369.33,1305.17 3309,1265.5C 3253.73,1178.56 3198.06,1091.9 3142,1005.5C 3119.8,914.217 3098.64,822.717 3078.5,731C 3086.88,617.482 3095.38,503.982 3104,390.5C 3135,328.5 3166,266.5 3197,204.5C 3255.32,136.507 3313.15,68.1734 3370.5,-0.5 Z"/></g>
<g><path style="opacity:1" fill="#f9f9f9" d="M 1032.5,707.5 C 1011.24,717.424 989.905,727.257 968.5,737C 962.628,745.355 956.295,753.188 949.5,760.5C 949.666,756.486 949.499,752.486 949,748.5C 916.536,720.372 884.369,691.872 852.5,663C 846.213,661.893 839.88,661.393 833.5,661.5C 832.155,627.709 829.488,594.042 825.5,560.5C 804.167,560.5 782.833,560.5 761.5,560.5C 761.847,579.552 761.014,598.552 759,617.5C 750.065,601.572 740.731,585.905 731,570.5C 727.5,567 724,563.5 720.5,560C 698.83,559.583 677.164,559.75 655.5,560.5C 652.5,560.5 649.5,560.5 646.5,560.5C 646.172,572.345 646.505,584.012 647.5,595.5C 647.333,618.169 647.5,640.836 648,663.5C 686.13,696.628 723.964,730.128 761.5,764C 779.164,764.5 796.83,764.667 814.5,764.5C 824.167,764.5 833.833,764.5 843.5,764.5C 843.5,762.833 843.5,761.167 843.5,759.5C 843.335,755.818 843.501,752.152 844,748.5C 851.167,753.667 858.333,758.833 865.5,764C 892.868,765.263 920.202,765.43 947.5,764.5C 892.988,839.522 837.988,914.189 782.5,988.5C 753.503,1002.78 723.503,1014.61 692.5,1024C 545.985,1064.31 406.985,1046.64 275.5,971C 133.364,881.392 50.8637,752.892 28,585.5C 13.3256,402.432 75.1589,251.266 213.5,132C 341.261,31.3099 485.594,-4.69006 646.5,24C 801.496,58.0716 918.996,143.238 999,279.5C 1072.58,417.157 1083.74,559.824 1032.5,707.5 Z"/></g>
<g><path style="opacity:1" fill="#070707" d="M 451.5,277.5 C 490.501,277.333 529.501,277.5 568.5,278C 576.667,289.5 584.833,301 593,312.5C 595.883,317.599 598.217,322.933 600,328.5C 600.277,334.26 600.444,339.927 600.5,345.5C 605.447,346.283 610.447,346.783 615.5,347C 624,359.5 632.5,372 641,384.5C 646.875,394.507 649.041,405.174 647.5,416.5C 652.698,417.143 657.865,417.81 663,418.5C 673.333,433.833 683.667,449.167 694,464.5C 694.667,469.5 694.667,474.5 694,479.5C 693.5,481.333 692.333,482.5 690.5,483C 630.167,483.667 569.833,483.667 509.5,483C 472.667,452.833 435.833,422.667 399,392.5C 398.333,390.5 397.667,388.5 397,386.5C 396.5,350.502 396.333,314.502 396.5,278.5C 415.008,278.83 433.341,278.497 451.5,277.5 Z"/></g>
<g><path style="opacity:1" fill="#030303" d="M 277.5,277.5 C 298.503,277.333 319.503,277.5 340.5,278C 341.211,279.255 342.044,280.421 343,281.5C 364.004,343.178 385.004,404.844 406,466.5C 407.325,470.428 407.658,474.428 407,478.5C 406.167,480.667 404.667,482.167 402.5,483C 381.833,483.667 361.167,483.667 340.5,483C 280.99,452.078 221.323,421.411 161.5,391C 160.227,381.927 159.394,372.76 159,363.5C 158.5,335.502 158.333,307.502 158.5,279.5C 185.162,278.602 211.829,278.436 238.5,279C 250,290.5 261.5,302 273,313.5C 274.102,302.222 274.935,290.889 275.5,279.5C 276.522,279.145 277.189,278.478 277.5,277.5 Z"/></g>
<g><path style="opacity:1" fill="#070707" d="M 761.5,313.5 C 762.495,302.346 762.828,291.012 762.5,279.5C 774.678,279.828 786.678,279.495 798.5,278.5C 807.833,278.5 817.167,278.5 826.5,278.5C 827.993,287.779 829.16,297.112 830,306.5C 831.379,330.911 833.046,355.244 835,379.5C 840.417,380.309 845.917,380.809 851.5,381C 853.167,382 854.833,383 856.5,384C 886.757,412.429 917.757,439.929 949.5,466.5C 950.662,471.131 950.828,475.798 950,480.5C 949.5,481.667 948.667,482.5 947.5,483C 920.153,483.77 892.82,483.437 865.5,482C 859.01,476.922 852.344,472.089 845.5,467.5C 844.506,472.456 844.173,477.456 844.5,482.5C 817.16,482.626 789.826,482.793 762.5,483C 742.932,466.367 723.932,449.033 705.5,431C 686.667,414.833 667.833,398.667 649,382.5C 648.167,348.162 648.333,313.828 649.5,279.5C 673.46,278.382 697.46,277.882 721.5,278C 726.415,282.244 730.581,287.077 734,292.5C 743.171,306.837 751.837,321.504 760,336.5C 761.069,328.869 761.569,321.202 761.5,313.5 Z"/></g>
<g><path style="opacity:1" fill="#7b7b7b" d="M 798.5,278.5 C 786.678,279.495 774.678,279.828 762.5,279.5C 762.828,291.012 762.495,302.346 761.5,313.5C 761.5,301.833 761.5,290.167 761.5,278.5C 773.833,278.5 786.167,278.5 798.5,278.5 Z"/></g>
<g><path style="opacity:1" fill="#f200ce" d="M 684.5,461.5 C 667.008,462.497 649.341,462.83 631.5,462.5C 592.499,462.667 553.499,462.5 514.5,462C 479.338,403.351 444.005,344.851 408.5,286.5C 420.833,285.833 433.167,285.167 445.5,284.5C 484.038,284.717 522.538,284.05 561,282.5C 562.559,283.029 564.059,283.696 565.5,284.5C 573.043,295.754 580.71,306.92 588.5,318C 558.829,318.922 529.162,319.922 499.5,321C 503.614,332.232 509.281,342.566 516.5,352C 548.183,352.125 579.85,352.792 611.5,354C 620.324,365.315 628.657,376.981 636.5,389C 605.149,389.247 573.816,390.081 542.5,391.5C 546.088,402.903 551.588,413.236 559,422.5C 592.095,423.33 625.262,423.83 658.5,424C 667.793,436.093 676.46,448.593 684.5,461.5 Z"/></g>
<g><path style="opacity:1" fill="#b0b0b0" d="M 291.5,285.5 C 298.826,284.834 306.326,284.5 314,284.5C 321.864,284.503 329.364,285.169 336.5,286.5C 321.578,285.517 306.578,285.184 291.5,285.5 Z"/></g>
<g><path style="opacity:1" fill="#a7a7a7" d="M 445.5,284.5 C 433.167,285.167 420.833,285.833 408.5,286.5C 407.957,286.44 407.624,286.107 407.5,285.5C 420.149,284.501 432.816,284.168 445.5,284.5 Z"/></g>
<g><path style="opacity:1" fill="#18ebf1" d="M 291.5,285.5 C 306.578,285.184 321.578,285.517 336.5,286.5C 356.894,344.015 376.894,401.682 396.5,459.5C 394.577,460.308 392.577,460.808 390.5,461C 375.156,461.833 359.822,461.666 344.5,460.5C 286.209,402.675 227.876,344.842 169.5,287C 173.749,285.874 178.082,285.208 182.5,285C 199.833,284.333 217.167,284.333 234.5,285C 256.167,306.667 277.833,328.333 299.5,350C 301.81,350.497 304.143,350.663 306.5,350.5C 301.089,328.346 293.422,307.013 283.5,286.5C 286.086,285.52 288.753,285.187 291.5,285.5 Z"/></g>
<g><path style="opacity:1" fill="#f97651" d="M 831.5,459.5 C 828.167,460.167 824.833,460.833 821.5,461.5C 803.164,461.667 784.83,461.5 766.5,461C 735.986,415.163 707.153,368.33 680,320.5C 672.624,308.915 665.124,297.415 657.5,286C 678.167,285.333 698.833,285.333 719.5,286C 733.564,307.309 748.231,328.142 763.5,348.5C 764.833,347.5 766.167,346.5 767.5,345.5C 768.5,325.845 768.833,306.178 768.5,286.5C 786.159,285.252 803.825,285.252 821.5,286.5C 823.629,317.786 825.463,349.119 827,380.5C 828.167,383 830,384.833 832.5,386C 838.167,386.333 843.833,386.667 849.5,387C 878.463,411.627 907.129,436.627 935.5,462C 930.839,463.143 926.005,463.643 921,463.5C 902.825,463.053 884.658,462.386 866.5,461.5C 849.817,443.984 833.317,426.317 817,408.5C 807.612,399.275 797.778,390.609 787.5,382.5C 801.025,408.471 815.692,434.138 831.5,459.5 Z"/></g>
<g><path style="opacity:1" fill="#b5b5b5" d="M 831.5,459.5 C 832.043,459.56 832.376,459.893 832.5,460.5C 828.893,461.489 825.226,461.823 821.5,461.5C 824.833,460.833 828.167,460.167 831.5,459.5 Z"/></g>
<g><path style="opacity:1" fill="#868686" d="M 684.5,461.5 C 685.043,461.56 685.376,461.893 685.5,462.5C 667.338,463.827 649.338,463.827 631.5,462.5C 649.341,462.83 667.008,462.497 684.5,461.5 Z"/></g>
<g><path style="opacity:1" fill="#aff9d9" d="M 4078.5,3116.5 C 4078.19,3120.04 4078.52,3123.38 4079.5,3126.5C 4079.5,3610.83 4079.5,4095.17 4079.5,4579.5C 4079.17,4579.5 4078.83,4579.5 4078.5,4579.5C 4078.5,4283.5 4078.5,3987.5 4078.5,3691.5C 4017.8,3695 3957.13,3699 3896.5,3703.5C 3834.82,3697.11 3773.16,3690.61 3711.5,3684C 3705.69,3683.41 3700.03,3682.24 3694.5,3680.5C 3614.67,3665.83 3535,3650.33 3455.5,3634C 3400.87,3611.74 3346.21,3589.57 3291.5,3567.5C 3289.28,3550.86 3287.28,3534.19 3285.5,3517.5C 3275.92,3435.87 3266.42,3354.2 3257,3272.5C 3256.92,3165.16 3257.92,3057.83 3260,2950.5C 3265.84,2929.81 3271.67,2909.15 3277.5,2888.5C 3290.33,2843.87 3303.16,2799.2 3316,2754.5C 3342.67,2697.17 3369.33,2639.83 3396,2582.5C 3405,2511.17 3414,2439.83 3423,2368.5C 3423.55,2360.77 3423.05,2353.1 3421.5,2345.5C 3414.15,2298.24 3406.98,2250.91 3400,2203.5C 3390.95,2192.63 3382.12,2181.63 3373.5,2170.5C 3414.12,2159.13 3454.96,2148.13 3496,2137.5C 3502.6,2115.2 3509.1,2092.86 3515.5,2070.5C 3496.79,2028.75 3477.29,1987.41 3457,1946.5C 3414.81,1897.28 3372.98,1847.78 3331.5,1798C 3264.83,1756.67 3198.17,1715.33 3131.5,1674C 3057.17,1634.17 2982.83,1594.33 2908.5,1554.5C 2904.03,1557.07 2899.37,1559.07 2894.5,1560.5C 2891.31,1549.43 2887.81,1538.43 2884,1527.5C 2784.4,1532.89 2684.9,1540.72 2585.5,1551C 2588.34,1554.67 2591.34,1558.17 2594.5,1561.5C 2592.08,1561.19 2589.74,1561.53 2587.5,1562.5C 2594.19,1570.19 2600.86,1577.85 2607.5,1585.5C 2569.49,1582.15 2531.49,1578.65 2493.5,1575C 2473.17,1574.5 2452.84,1574.33 2432.5,1574.5C 2428.49,1535.96 2424.33,1497.29 2420,1458.5C 2419.24,1456.69 2418.41,1455.02 2417.5,1453.5C 2411.57,1436.97 2405.07,1420.64 2398,1404.5C 2395.14,1400.1 2392.31,1395.77 2389.5,1391.5C 2385.57,1385.3 2381.9,1378.97 2378.5,1372.5C 2378.1,1366.17 2377.77,1359.84 2377.5,1353.5C 2377.67,1343.83 2377.5,1334.16 2377,1324.5C 2376.28,1325.04 2375.78,1325.71 2375.5,1326.5C 2374.68,1323.36 2374.18,1320.03 2374,1316.5C 2373.28,1317.04 2372.78,1317.71 2372.5,1318.5C 2369.68,1323.47 2366.85,1328.47 2364,1333.5C 2361.92,1326.66 2361.09,1319.66 2361.5,1312.5C 2360.5,1312.5 2359.5,1312.5 2358.5,1312.5C 2358.5,1311.5 2358.5,1310.5 2358.5,1309.5C 2357.83,1305.53 2356.5,1301.86 2354.5,1298.5C 2354.77,1296.9 2354.43,1295.57 2353.5,1294.5C 2353.59,1291.85 2352.92,1289.51 2351.5,1287.5C 2351.77,1285.9 2351.43,1284.57 2350.5,1283.5C 2350.28,1280.93 2349.61,1278.6 2348.5,1276.5C 2348.77,1274.9 2348.43,1273.57 2347.5,1272.5C 2347.77,1270.9 2347.43,1269.57 2346.5,1268.5C 2346.59,1265.85 2345.92,1263.51 2344.5,1261.5C 2344.43,1258.57 2343.77,1255.91 2342.5,1253.5C 2342.59,1250.85 2341.92,1248.51 2340.5,1246.5C 2340.71,1243.5 2340.04,1240.84 2338.5,1238.5C 2338.43,1235.57 2337.77,1232.91 2336.5,1230.5C 2333.44,1216.24 2329.77,1202.24 2325.5,1188.5C 2324.92,1183.19 2323.59,1178.19 2321.5,1173.5C 2321.59,1170.85 2320.92,1168.51 2319.5,1166.5C 2318.67,1163.87 2317.84,1161.2 2317,1158.5C 2302.3,1143.63 2287.47,1128.96 2272.5,1114.5C 2272,1111.51 2271.5,1108.51 2271,1105.5C 2270.8,1103.68 2269.97,1102.35 2268.5,1101.5C 2268.16,1099.15 2267.66,1096.81 2267,1094.5C 2241.97,1064.64 2216.8,1034.98 2191.5,1005.5C 2187.81,1000.81 2184.14,996.148 2180.5,991.5C 2180.94,991.565 2181.27,991.399 2181.5,991C 2173.25,982.59 2165.58,973.757 2158.5,964.5C 2166.87,963.425 2175.21,962.092 2183.5,960.5C 2189.02,939.104 2194.85,917.771 2201,896.5C 2201.96,886.369 2201.46,876.369 2199.5,866.5C 2195.62,839.183 2191.79,811.85 2188,784.5C 2171.35,749.864 2154.68,715.198 2138,680.5C 2101.91,665.537 2065.74,650.704 2029.5,636C 1969.15,638.297 1908.81,641.297 1848.5,645C 1826.67,663.5 1804.83,682 1783,700.5C 1775.55,717.072 1768.38,733.739 1761.5,750.5C 1752.11,770.959 1742.94,791.626 1734,812.5C 1733.67,817.174 1733.83,821.84 1734.5,826.5C 1706.95,831.425 1679.28,835.925 1651.5,840C 1588.66,871.922 1525.66,903.589 1462.5,935C 1451.17,949 1439.83,963 1428.5,977C 1427.5,977.667 1426.5,977.667 1425.5,977C 1416.83,971.333 1408.17,965.667 1399.5,960C 1397.53,959.505 1395.53,959.338 1393.5,959.5C 1348.4,950.882 1303.06,942.882 1257.5,935.5C 1255.14,935.337 1252.81,935.503 1250.5,936C 1214.83,949 1179.17,962 1143.5,975C 1112,1013.17 1080.5,1051.33 1049,1089.5C 1048.01,1142.89 1048.35,1196.22 1050,1249.5C 1067.94,1287.71 1085.61,1326.05 1103,1364.5C 1121.61,1377.22 1140.44,1389.55 1159.5,1401.5C 1127.36,1459.1 1094.7,1516.44 1061.5,1573.5C 988.966,1619.2 916.3,1664.7 843.5,1710C 901.662,1714.24 959.828,1718.4 1018,1722.5C 1020.5,1722.17 1023,1721.83 1025.5,1721.5C 1085.15,1653.35 1144.98,1585.35 1205,1517.5C 1213.5,1488.15 1222,1458.81 1230.5,1429.5C 1231.5,1429.5 1232.5,1429.5 1233.5,1429.5C 1250.32,1432.2 1266.99,1435.53 1283.5,1439.5C 1284.6,1477.86 1285.76,1516.19 1287,1554.5C 1253.8,1645.09 1220.8,1735.76 1188,1826.5C 1138.45,1902.43 1088.29,1977.93 1037.5,2053C 1052.82,2050.22 1068.15,2047.22 1083.5,2044C 1151.37,2028.44 1219.21,2012.94 1287,1997.5C 1326.14,1897.75 1365.47,1798.09 1405,1698.5C 1405.23,1677.65 1406.06,1656.98 1407.5,1636.5C 1413.89,1654.18 1420.39,1671.85 1427,1689.5C 1429.37,1692.04 1431.87,1694.37 1434.5,1696.5C 1435.89,1698.96 1437.06,1701.63 1438,1704.5C 1457.73,1724.73 1477.9,1744.4 1498.5,1763.5C 1498.5,1763.83 1498.5,1764.17 1498.5,1764.5C 1498.33,1829.5 1498.5,1894.5 1499,1959.5C 1499.72,1958.96 1500.22,1958.29 1500.5,1957.5C 1520.93,1913.64 1541.6,1869.98 1562.5,1826.5C 1584.3,1847.13 1605.96,1867.96 1627.5,1889C 1636.49,1889.5 1645.49,1889.67 1654.5,1889.5C 1656.92,1893.42 1659.92,1896.92 1663.5,1900C 1678.16,1903 1692.82,1905.83 1707.5,1908.5C 1731.81,1942.14 1756.48,1975.47 1781.5,2008.5C 1788.58,2018.98 1795.91,2029.31 1803.5,2039.5C 1795.25,2045.58 1787.41,2052.25 1780,2059.5C 1746.67,2123.5 1713.33,2187.5 1680,2251.5C 1607.98,2331.35 1536.15,2411.35 1464.5,2491.5C 1467.18,2496.86 1469.85,2502.19 1472.5,2507.5C 1459.81,2513.17 1446.81,2518.33 1433.5,2523C 1432.54,2526.73 1432.21,2530.56 1432.5,2534.5C 1431.51,2534.33 1430.84,2534.66 1430.5,2535.5C 1421.01,2537.61 1411.84,2540.61 1403,2544.5C 1402.4,2564.89 1401.23,2585.22 1399.5,2605.5C 1397.94,2621.31 1397.28,2637.31 1397.5,2653.5C 1397.5,2653.83 1397.5,2654.17 1397.5,2654.5C 1395.11,2683.97 1393.44,2713.64 1392.5,2743.5C 1392.15,2761.18 1391.48,2778.85 1390.5,2796.5C 1389.47,2806.66 1388.81,2816.99 1388.5,2827.5C 1387.37,2846.82 1386.87,2866.15 1387,2885.5C 1388.4,2891.68 1390.23,2897.68 1392.5,2903.5C 1392.41,2906.15 1393.08,2908.49 1394.5,2910.5C 1406.04,2945 1416.54,2980 1426,3015.5C 1438.16,3049.6 1448.83,3084.27 1458,3119.5C 1459.61,3122.38 1460.94,3125.38 1462,3128.5C 1483.75,3199.15 1504.75,3270.15 1525,3341.5C 1528.3,3349.35 1531.3,3357.35 1534,3365.5C 1584.39,3469.95 1635.06,3574.28 1686,3678.5C 1726.43,3747.69 1766.1,3817.35 1805,3887.5C 1809.42,3893.33 1813.09,3899.67 1816,3906.5C 1851.19,3942.69 1886.69,3978.53 1922.5,4014C 1967.24,4030.41 2011.91,4046.91 2056.5,4063.5C 2031.23,4116.71 2005.39,4169.71 1979,4222.5C 1911.17,4295.67 1843.33,4368.83 1775.5,4442C 1761.35,4448.57 1747.35,4455.41 1733.5,4462.5C 1583.57,4364.53 1433.24,4267.03 1282.5,4170C 1281,4168.5 1279.5,4167 1278,4165.5C 1111.28,3934.45 944.946,3703.11 779,3471.5C 712.863,3299.42 646.53,3127.42 580,2955.5C 573.511,2876.96 566.345,2798.62 558.5,2720.5C 559.483,2718.71 560.816,2717.21 562.5,2716C 622.767,2689.36 682.934,2662.52 743,2635.5C 819.916,2681.04 896.749,2726.71 973.5,2772.5C 973.833,2773.17 974.167,2773.83 974.5,2774.5C 959.421,2882.13 944.921,2989.8 931,3097.5C 1036.39,3022.44 1142.06,2947.78 1248,2873.5C 1248.17,2871.83 1248.33,2870.17 1248.5,2868.5C 1233.94,2705.14 1219.1,2541.81 1204,2378.5C 1131.08,2241.66 1058.41,2104.66 986,1967.5C 875.916,1900.87 765.75,1834.37 655.5,1768C 624.192,1765.17 592.858,1762.67 561.5,1760.5C 592.586,1560.81 623.752,1361.15 655,1161.5C 697.997,1104.16 740.497,1046.49 782.5,988.5C 837.988,914.189 892.988,839.522 947.5,764.5C 948.6,763.395 949.267,762.062 949.5,760.5C 956.295,753.188 962.628,745.355 968.5,737C 989.905,727.257 1011.24,717.424 1032.5,707.5C 1188.6,636.953 1344.6,566.119 1500.5,495C 1502.58,494.131 1504.75,493.631 1507,493.5C 1754.9,526.629 2002.74,560.129 2250.5,594C 2358.83,667 2467.17,740 2575.5,813C 2781.17,979.333 2986.83,1145.67 3192.5,1312C 3333.68,1413.09 3474.68,1514.42 3615.5,1616C 3618.36,1618.89 3620.86,1622.06 3623,1625.5C 3709.03,1763.52 3795.03,1901.52 3881,2039.5C 3926.66,2215.48 3972.33,2391.48 4018,2567.5C 4037.92,2750.68 4058.08,2933.68 4078.5,3116.5 Z"/></g>
<g><path style="opacity:1" fill="#070707" d="M 545.5,558.5 C 553.087,558.186 560.587,558.519 568,559.5C 574.945,570.111 582.278,580.444 590,590.5C 598.252,601.594 601.085,613.927 598.5,627.5C 603.801,628.177 609.134,628.677 614.5,629C 620.966,638.765 627.799,648.265 635,657.5C 638.876,663.919 642.209,670.586 645,677.5C 646.83,684.464 646.997,691.464 645.5,698.5C 650.844,698.334 656.177,698.501 661.5,699C 671.543,714.253 681.709,729.42 692,744.5C 693.57,750.053 693.903,755.719 693,761.5C 691.833,762.667 690.667,763.833 689.5,765C 629.5,765.667 569.5,765.667 509.5,765C 472.333,734.5 435.167,704 398,673.5C 397.333,671.5 396.667,669.5 396,667.5C 395.5,631.502 395.333,595.502 395.5,559.5C 445.669,559.832 495.669,559.499 545.5,558.5 Z"/></g>
<g><path style="opacity:1" fill="#040404" d="M 287.5,559.5 C 303.17,559.333 318.837,559.5 334.5,560C 344.544,574.587 354.71,589.087 365,603.5C 365.869,628.847 367.036,654.18 368.5,679.5C 368.167,682.167 367.833,684.833 367.5,687.5C 365.77,688.026 364.436,689.026 363.5,690.5C 373.161,708.493 383.328,726.16 394,743.5C 394.5,750.826 394.666,758.159 394.5,765.5C 371.498,765.667 348.498,765.5 325.5,765C 298.093,739.589 270.093,714.923 241.5,691C 221.5,690.667 201.5,690.333 181.5,690C 174.303,682.469 166.803,675.302 159,668.5C 158.5,632.835 158.333,597.168 158.5,561.5C 201.668,561.121 244.668,560.454 287.5,559.5 Z"/></g>
<g><path style="opacity:1" fill="#040404" d="M 949.5,760.5 C 949.267,762.062 948.6,763.395 947.5,764.5C 920.202,765.43 892.868,765.263 865.5,764C 858.333,758.833 851.167,753.667 844,748.5C 843.501,752.152 843.335,755.818 843.5,759.5C 842.566,760.568 842.232,761.901 842.5,763.5C 832.985,763.173 823.652,763.506 814.5,764.5C 796.83,764.667 779.164,764.5 761.5,764C 723.964,730.128 686.13,696.628 648,663.5C 647.5,640.836 647.333,618.169 647.5,595.5C 647.5,584.167 647.5,572.833 647.5,561.5C 650.385,561.806 653.052,561.473 655.5,560.5C 677.164,559.75 698.83,559.583 720.5,560C 724,563.5 727.5,567 731,570.5C 740.731,585.905 750.065,601.572 759,617.5C 761.014,598.552 761.847,579.552 761.5,560.5C 782.833,560.5 804.167,560.5 825.5,560.5C 829.488,594.042 832.155,627.709 833.5,661.5C 839.88,661.393 846.213,661.893 852.5,663C 884.369,691.872 916.536,720.372 949,748.5C 949.499,752.486 949.666,756.486 949.5,760.5 Z"/></g>
<g><path style="opacity:1" fill="#6af996" d="M 541.5,564.5 C 549.279,564.068 556.946,564.568 564.5,566C 572.362,577.029 580.029,588.196 587.5,599.5C 558.184,600.918 528.851,601.585 499.5,601.5C 502.616,612.732 507.616,623.066 514.5,632.5C 546.479,634.015 578.479,634.848 610.5,635C 619.46,646.429 627.793,658.263 635.5,670.5C 604.507,671.5 573.507,671.833 542.5,671.5C 542.726,675.292 543.56,678.959 545,682.5C 548.709,690.199 553.209,697.366 558.5,704C 591.505,704.167 624.505,704.667 657.5,705.5C 667.473,717.642 676.473,730.475 684.5,744C 627.161,744.337 569.828,743.837 512.5,742.5C 477.752,684.001 442.752,625.668 407.5,567.5C 452.337,566.841 497.004,565.841 541.5,564.5 Z"/></g>
<g><path style="opacity:1" fill="#f9d96a" d="M 166.5,568.5 C 176.167,567.833 185.833,567.167 195.5,566.5C 240.174,566.024 284.84,565.524 329.5,565C 338.511,576.819 346.844,588.986 354.5,601.5C 337.756,601.393 321.09,602.393 304.5,604.5C 309.124,615.081 314.291,625.414 320,635.5C 337.271,663.767 354.938,691.767 373,719.5C 377.719,726.944 381.886,734.611 385.5,742.5C 367.194,744.023 348.861,744.523 330.5,744C 301.625,697.077 272.125,650.577 242,604.5C 224.574,603.674 207.074,603.174 189.5,603C 181.947,591.385 174.28,579.885 166.5,568.5 Z"/></g>
<g><path style="opacity:1" fill="#b8b8b8" d="M 195.5,566.5 C 185.833,567.167 176.167,567.833 166.5,568.5C 165.957,568.44 165.624,568.107 165.5,567.5C 175.478,566.501 185.478,566.168 195.5,566.5 Z"/></g>
<g><path style="opacity:1" fill="#b8b8b8" d="M 718.5,567.5 C 697.993,567.17 677.66,567.503 657.5,568.5C 656.957,568.44 656.624,568.107 656.5,567.5C 677.329,566.172 697.996,566.172 718.5,567.5 Z"/></g>
<g><path style="opacity:1" fill="#f88f83" d="M 830.5,741.5 C 815.167,742.167 799.833,742.833 784.5,743.5C 778.158,743.666 771.825,743.5 765.5,743C 764.378,740.876 762.878,739.043 761,737.5C 725.987,681.473 691.487,625.139 657.5,568.5C 677.66,567.503 697.993,567.17 718.5,567.5C 732.977,588.434 747.477,609.434 762,630.5C 763.955,629.547 765.622,628.213 767,626.5C 767.5,606.836 767.667,587.169 767.5,567.5C 785.162,566.285 802.829,566.285 820.5,567.5C 821.154,569.115 821.654,570.782 822,572.5C 823.501,602.844 825.167,633.178 827,663.5C 828.543,665.378 830.376,666.878 832.5,668C 838.167,668.333 843.833,668.667 849.5,669C 877.871,694.373 906.537,719.373 935.5,744C 912.145,744.862 888.812,744.528 865.5,743C 845.532,721.364 825.198,700.031 804.5,679C 798.041,674.21 791.874,669.043 786,663.5C 800.019,689.861 814.853,715.861 830.5,741.5 Z"/></g>
<g><path style="opacity:1" fill="#808080" d="M 655.5,560.5 C 653.052,561.473 650.385,561.806 647.5,561.5C 647.5,572.833 647.5,584.167 647.5,595.5C 646.505,584.012 646.172,572.345 646.5,560.5C 649.5,560.5 652.5,560.5 655.5,560.5 Z"/></g>
<g><path style="opacity:1" fill="#f957e1" d="M 2199.5,866.5 C 2171.12,835.428 2142.95,804.095 2115,772.5C 2113.04,769.865 2110.54,768.031 2107.5,767C 2049.2,756.283 1990.87,745.783 1932.5,735.5C 1875.34,741.182 1818.34,746.182 1761.5,750.5C 1768.38,733.739 1775.55,717.072 1783,700.5C 1804.83,682 1826.67,663.5 1848.5,645C 1908.81,641.297 1969.15,638.297 2029.5,636C 2065.74,650.704 2101.91,665.537 2138,680.5C 2154.68,715.198 2171.35,749.864 2188,784.5C 2191.79,811.85 2195.62,839.183 2199.5,866.5 Z"/></g>
<g><path style="opacity:1" fill="#6ac0f9" d="M 2199.5,866.5 C 2201.46,876.369 2201.96,886.369 2201,896.5C 2194.85,917.771 2189.02,939.104 2183.5,960.5C 2175.21,962.092 2166.87,963.425 2158.5,964.5C 2144.74,948.896 2130.74,933.396 2116.5,918C 2112.67,916.254 2109.01,914.254 2105.5,912C 2071,885.59 2036,859.923 2000.5,835C 1946.33,826.792 1892.17,818.625 1838,810.5C 1803.47,815.711 1768.97,821.045 1734.5,826.5C 1733.83,821.84 1733.67,817.174 1734,812.5C 1742.94,791.626 1752.11,770.959 1761.5,750.5C 1818.34,746.182 1875.34,741.182 1932.5,735.5C 1990.87,745.783 2049.2,756.283 2107.5,767C 2110.54,768.031 2113.04,769.865 2115,772.5C 2142.95,804.095 2171.12,835.428 2199.5,866.5 Z"/></g>
<g><path style="opacity:1" fill="#939393" d="M 830.5,741.5 C 831.043,741.56 831.376,741.893 831.5,742.5C 815.848,743.499 800.181,743.833 784.5,743.5C 799.833,742.833 815.167,742.167 830.5,741.5 Z"/></g>
<g><path style="opacity:1" fill="#4c4c4c" d="M 843.5,759.5 C 843.5,761.167 843.5,762.833 843.5,764.5C 833.833,764.5 824.167,764.5 814.5,764.5C 823.652,763.506 832.985,763.173 842.5,763.5C 842.232,761.901 842.566,760.568 843.5,759.5 Z"/></g>
<g><path style="opacity:1" fill="#070608" d="M 2158.5,964.5 C 2165.58,973.757 2173.25,982.59 2181.5,991C 2181.27,991.399 2180.94,991.565 2180.5,991.5C 2162.7,972.195 2145.03,952.695 2127.5,933C 2123.78,931.14 2120.11,929.307 2116.5,927.5C 2082.22,900.73 2047.22,874.896 2011.5,850C 1956.86,841.67 1902.19,833.503 1847.5,825.5C 1785.36,834.911 1723.36,845.078 1661.5,856C 1597.61,887.528 1534.11,919.694 1471,952.5C 1462.02,964.31 1452.86,975.977 1443.5,987.5C 1466.58,1002.59 1489.92,1017.26 1513.5,1031.5C 1518.3,1034.04 1521.46,1038.04 1523,1043.5C 1544.33,1090.83 1565.67,1138.17 1587,1185.5C 1587.67,1189.83 1587.67,1194.17 1587,1198.5C 1580.72,1229.84 1574.55,1261.17 1568.5,1292.5C 1565.16,1306.33 1562,1320.33 1559,1334.5C 1546.08,1354.67 1532.92,1374.67 1519.5,1394.5C 1499.3,1405.1 1478.96,1415.44 1458.5,1425.5C 1449.53,1429.99 1440.53,1434.49 1431.5,1439C 1429.53,1439.5 1427.53,1439.66 1425.5,1439.5C 1454.28,1424.61 1483.28,1409.94 1512.5,1395.5C 1526.2,1375.64 1539.7,1355.64 1553,1335.5C 1563.41,1287.62 1573.24,1239.62 1582.5,1191.5C 1582.41,1189.08 1581.91,1186.74 1581,1184.5C 1558.5,1134.83 1536,1085.17 1513.5,1035.5C 1473.19,1010.5 1433.19,985.168 1393.5,959.5C 1395.53,959.338 1397.53,959.505 1399.5,960C 1408.17,965.667 1416.83,971.333 1425.5,977C 1426.5,977.667 1427.5,977.667 1428.5,977C 1439.83,963 1451.17,949 1462.5,935C 1525.66,903.589 1588.66,871.922 1651.5,840C 1679.28,835.925 1706.95,831.425 1734.5,826.5C 1768.97,821.045 1803.47,815.711 1838,810.5C 1892.17,818.625 1946.33,826.792 2000.5,835C 2036,859.923 2071,885.59 2105.5,912C 2109.01,914.254 2112.67,916.254 2116.5,918C 2130.74,933.396 2144.74,948.896 2158.5,964.5 Z"/></g>
<g><path style="opacity:1" fill="#f951e0" d="M 2116.5,927.5 C 2090.75,917.637 2065.08,907.47 2039.5,897C 2009.5,889 1979.5,881 1949.5,873C 1918.55,871.476 1887.39,869.976 1856,868.5C 1827.79,870.504 1799.63,873.004 1771.5,876C 1740.82,885.336 1710.16,894.669 1679.5,904C 1652.67,921.915 1625.67,939.582 1598.5,957C 1572.17,980.667 1545.83,1004.33 1519.5,1028C 1517.6,1029.42 1515.6,1030.59 1513.5,1031.5C 1489.92,1017.26 1466.58,1002.59 1443.5,987.5C 1452.86,975.977 1462.02,964.31 1471,952.5C 1534.11,919.694 1597.61,887.528 1661.5,856C 1723.36,845.078 1785.36,834.911 1847.5,825.5C 1902.19,833.503 1956.86,841.67 2011.5,850C 2047.22,874.896 2082.22,900.73 2116.5,927.5 Z"/></g>
<g><path style="opacity:1" fill="#f957e0" d="M 2116.5,927.5 C 2120.11,929.307 2123.78,931.14 2127.5,933C 2145.03,952.695 2162.7,972.195 2180.5,991.5C 2184.14,996.148 2187.81,1000.81 2191.5,1005.5C 2167.13,998.99 2142.8,992.324 2118.5,985.5C 2115.46,983.902 2112.13,982.902 2108.5,982.5C 2103.07,984.051 2098.07,986.384 2093.5,989.5C 2041.4,1015.05 1989.4,1040.88 1937.5,1067C 1868.17,1105 1798.83,1143 1729.5,1181C 1683.3,1229.7 1637.3,1278.54 1591.5,1327.5C 1586.17,1332.83 1580.83,1338.17 1575.5,1343.5C 1574.84,1332.18 1574.34,1320.85 1574,1309.5C 1572.05,1303.83 1570.22,1298.16 1568.5,1292.5C 1574.55,1261.17 1580.72,1229.84 1587,1198.5C 1587.67,1194.17 1587.67,1189.83 1587,1185.5C 1565.67,1138.17 1544.33,1090.83 1523,1043.5C 1521.46,1038.04 1518.3,1034.04 1513.5,1031.5C 1515.6,1030.59 1517.6,1029.42 1519.5,1028C 1545.83,1004.33 1572.17,980.667 1598.5,957C 1625.67,939.582 1652.67,921.915 1679.5,904C 1710.16,894.669 1740.82,885.336 1771.5,876C 1799.63,873.004 1827.79,870.504 1856,868.5C 1887.39,869.976 1918.55,871.476 1949.5,873C 1979.5,881 2009.5,889 2039.5,897C 2065.08,907.47 2090.75,917.637 2116.5,927.5 Z"/></g>
<g><path style="opacity:1" fill="#f957e1" d="M 1257.5,935.5 C 1296.96,943.273 1336.63,950.607 1376.5,957.5C 1419.41,1010.96 1462.58,1064.29 1506,1117.5C 1507.87,1119.52 1509.03,1121.85 1509.5,1124.5C 1491.01,1201.31 1472.01,1277.98 1452.5,1354.5C 1406.1,1382.36 1360.1,1410.69 1314.5,1439.5C 1304.17,1439.5 1293.83,1439.5 1283.5,1439.5C 1266.99,1435.53 1250.32,1432.2 1233.5,1429.5C 1218.7,1426.04 1203.7,1422.87 1188.5,1420C 1178.81,1413.82 1169.14,1407.66 1159.5,1401.5C 1140.44,1389.55 1121.61,1377.22 1103,1364.5C 1085.61,1326.05 1067.94,1287.71 1050,1249.5C 1048.35,1196.22 1048.01,1142.89 1049,1089.5C 1080.5,1051.33 1112,1013.17 1143.5,975C 1179.17,962 1214.83,949 1250.5,936C 1252.81,935.503 1255.14,935.337 1257.5,935.5 Z"/></g>
<g><path style="opacity:1" fill="#433f45" d="M 1257.5,935.5 C 1303.06,942.882 1348.4,950.882 1393.5,959.5C 1387.81,959.02 1382.14,958.354 1376.5,957.5C 1336.63,950.607 1296.96,943.273 1257.5,935.5 Z"/></g>
<g><path style="opacity:1" fill="#40aef9" d="M 1376.5,957.5 C 1382.14,958.354 1387.81,959.02 1393.5,959.5C 1433.19,985.168 1473.19,1010.5 1513.5,1035.5C 1536,1085.17 1558.5,1134.83 1581,1184.5C 1581.91,1186.74 1582.41,1189.08 1582.5,1191.5C 1573.24,1239.62 1563.41,1287.62 1553,1335.5C 1539.7,1355.64 1526.2,1375.64 1512.5,1395.5C 1483.28,1409.94 1454.28,1424.61 1425.5,1439.5C 1421.5,1439.5 1417.5,1439.5 1413.5,1439.5C 1380.5,1439.5 1347.5,1439.5 1314.5,1439.5C 1360.1,1410.69 1406.1,1382.36 1452.5,1354.5C 1472.01,1277.98 1491.01,1201.31 1509.5,1124.5C 1509.03,1121.85 1507.87,1119.52 1506,1117.5C 1462.58,1064.29 1419.41,1010.96 1376.5,957.5 Z"/></g>
<g><path style="opacity:1" fill="#faadf8" d="M 2118.5,985.5 C 2110.28,987.342 2101.95,988.675 2093.5,989.5C 2098.07,986.384 2103.07,984.051 2108.5,982.5C 2112.13,982.902 2115.46,983.902 2118.5,985.5 Z"/></g>
<g><path style="opacity:1" fill="#f9d3f9" d="M 2118.5,985.5 C 2142.8,992.324 2167.13,998.99 2191.5,1005.5C 2216.8,1034.98 2241.97,1064.64 2267,1094.5C 2267.66,1096.81 2268.16,1099.15 2268.5,1101.5C 2269.14,1104.46 2269.64,1107.46 2270,1110.5C 2270.2,1112.32 2271.03,1113.65 2272.5,1114.5C 2287.47,1128.96 2302.3,1143.63 2317,1158.5C 2317.84,1161.2 2318.67,1163.87 2319.5,1166.5C 2319.17,1169.23 2319.84,1171.56 2321.5,1173.5C 2322.08,1178.81 2323.41,1183.81 2325.5,1188.5C 2325.5,1189.5 2325.5,1190.5 2325.5,1191.5C 2315.53,1193.11 2305.53,1194.61 2295.5,1196C 2281.75,1201.14 2268.09,1206.47 2254.5,1212C 2243.3,1221.71 2232.3,1231.54 2221.5,1241.5C 2222.94,1252.79 2223.94,1264.13 2224.5,1275.5C 2228.23,1275.32 2231.9,1275.66 2235.5,1276.5C 2237.1,1315.14 2237.93,1353.81 2238,1392.5C 2238.17,1386.32 2238.67,1380.32 2239.5,1374.5C 2239.17,1387.01 2239.5,1399.34 2240.5,1411.5C 2242.35,1424.08 2244.68,1436.58 2247.5,1449C 2247.08,1451.5 2246.75,1454 2246.5,1456.5C 2244.52,1454.86 2242.52,1453.19 2240.5,1451.5C 2239.35,1454.11 2239.18,1456.77 2240,1459.5C 2249.46,1467.3 2258.63,1475.46 2267.5,1484C 2295.19,1505.83 2323.52,1526.66 2352.5,1546.5C 2336.12,1558.45 2319.96,1570.79 2304,1583.5C 2297.39,1593.78 2290.39,1603.78 2283,1613.5C 2282.33,1615.17 2282.33,1616.83 2283,1618.5C 2285.11,1621.73 2286.95,1625.06 2288.5,1628.5C 2286.06,1630.23 2283.39,1631.73 2280.5,1633C 2283.17,1633.67 2285.83,1633.67 2288.5,1633C 2316.71,1618.73 2345.04,1604.73 2373.5,1591C 2374.59,1588.94 2374.76,1586.77 2374,1584.5C 2370.53,1571.76 2366.87,1559.1 2363,1546.5C 2333.04,1526.43 2303.87,1505.27 2275.5,1483C 2269.37,1477.94 2263.71,1472.44 2258.5,1466.5C 2268.59,1470.04 2278.59,1473.88 2288.5,1478C 2303.23,1477.7 2317.9,1476.36 2332.5,1474C 2334.14,1472.87 2335.14,1471.37 2335.5,1469.5C 2342.34,1472.17 2348.84,1475.5 2355,1479.5C 2355.33,1474.77 2354.83,1470.1 2353.5,1465.5C 2350.65,1463.57 2347.98,1461.41 2345.5,1459C 2349.7,1455.97 2354.03,1453.14 2358.5,1450.5C 2363.14,1453.3 2367.64,1456.3 2372,1459.5C 2372.7,1456.07 2372.37,1452.74 2371,1449.5C 2367.52,1447.85 2364.35,1445.85 2361.5,1443.5C 2365.46,1439.04 2369.63,1434.7 2374,1430.5C 2374.79,1429.26 2375.29,1427.92 2375.5,1426.5C 2378.01,1426.84 2380.34,1426.84 2382.5,1426.5C 2380.9,1424.3 2379.57,1421.97 2378.5,1419.5C 2382.16,1410.2 2385.83,1400.86 2389.5,1391.5C 2392.31,1395.77 2395.14,1400.1 2398,1404.5C 2405.07,1420.64 2411.57,1436.97 2417.5,1453.5C 2427.09,1529.84 2432.76,1606.5 2434.5,1683.5C 2431.85,1708.51 2429.02,1733.51 2426,1758.5C 2416.26,1785.9 2406.42,1813.23 2396.5,1840.5C 2395.85,1839.91 2395.18,1839.24 2394.5,1838.5C 2376.38,1860.57 2358.38,1882.74 2340.5,1905C 2313.17,1904.8 2285.83,1904.14 2258.5,1903C 2207.53,1899.64 2156.53,1896.81 2105.5,1894.5C 2105.5,1893.83 2105.17,1893.5 2104.5,1893.5C 2103.24,1872.18 2102.08,1850.84 2101,1829.5C 2097.41,1827.47 2093.58,1826.14 2089.5,1825.5C 2089.5,1819.17 2089.5,1812.83 2089.5,1806.5C 2071.47,1801.43 2053.8,1795.27 2036.5,1788C 2035.06,1787.22 2033.72,1787.39 2032.5,1788.5C 2021.69,1817.61 2010.69,1846.61 1999.5,1875.5C 1956.74,1856.29 1914.07,1836.79 1871.5,1817C 1831.33,1780.83 1791.17,1744.67 1751,1708.5C 1721,1671.83 1691,1635.17 1661,1598.5C 1641.38,1551.11 1621.88,1503.77 1602.5,1456.5C 1594.73,1435.53 1587.73,1414.2 1581.5,1392.5C 1584.58,1370.78 1587.91,1349.11 1591.5,1327.5C 1637.3,1278.54 1683.3,1229.7 1729.5,1181C 1798.83,1143 1868.17,1105 1937.5,1067C 1989.4,1040.88 2041.4,1015.05 2093.5,989.5C 2101.95,988.675 2110.28,987.342 2118.5,985.5 Z"/></g>
<g><path style="opacity:1" fill="#3a4040" d="M 2268.5,1101.5 C 2269.97,1102.35 2270.8,1103.68 2271,1105.5C 2271.5,1108.51 2272,1111.51 2272.5,1114.5C 2271.03,1113.65 2270.2,1112.32 2270,1110.5C 2269.64,1107.46 2269.14,1104.46 2268.5,1101.5 Z"/></g>
<g><path style="opacity:1" fill="#66656b" d="M 2319.5,1166.5 C 2320.92,1168.51 2321.59,1170.85 2321.5,1173.5C 2319.84,1171.56 2319.17,1169.23 2319.5,1166.5 Z"/></g>
<g><path style="opacity:1" fill="#485551" d="M 2321.5,1173.5 C 2323.59,1178.19 2324.92,1183.19 2325.5,1188.5C 2323.41,1183.81 2322.08,1178.81 2321.5,1173.5 Z"/></g>
<g><path style="opacity:1" fill="#030303" d="M 2325.5,1188.5 C 2329.77,1202.24 2333.44,1216.24 2336.5,1230.5C 2335.08,1228.49 2334.41,1226.15 2334.5,1223.5C 2325.16,1223.33 2315.83,1223.5 2306.5,1224C 2297.61,1228.27 2288.95,1232.77 2280.5,1237.5C 2272.32,1240.78 2264.32,1244.45 2256.5,1248.5C 2251.25,1257.34 2246.25,1266.34 2241.5,1275.5C 2239.6,1276.47 2237.6,1276.8 2235.5,1276.5C 2231.9,1275.66 2228.23,1275.32 2224.5,1275.5C 2223.94,1264.13 2222.94,1252.79 2221.5,1241.5C 2232.3,1231.54 2243.3,1221.71 2254.5,1212C 2268.09,1206.47 2281.75,1201.14 2295.5,1196C 2305.53,1194.61 2315.53,1193.11 2325.5,1191.5C 2325.5,1190.5 2325.5,1189.5 2325.5,1188.5 Z"/></g>
<g><path style="opacity:1" fill="#f3cef3" d="M 2336.5,1230.5 C 2337.77,1232.91 2338.43,1235.57 2338.5,1238.5C 2338.57,1241.43 2339.23,1244.09 2340.5,1246.5C 2340.41,1249.15 2341.08,1251.49 2342.5,1253.5C 2343.77,1255.91 2344.43,1258.57 2344.5,1261.5C 2344.41,1264.15 2345.08,1266.49 2346.5,1268.5C 2347.43,1269.57 2347.77,1270.9 2347.5,1272.5C 2336.96,1261.31 2326.3,1250.15 2315.5,1239C 2303.86,1237.9 2292.19,1237.4 2280.5,1237.5C 2288.95,1232.77 2297.61,1228.27 2306.5,1224C 2315.83,1223.5 2325.16,1223.33 2334.5,1223.5C 2334.41,1226.15 2335.08,1228.49 2336.5,1230.5 Z"/></g>
<g><path style="opacity:1" fill="#f8aef8" d="M 2280.5,1237.5 C 2292.19,1237.4 2303.86,1237.9 2315.5,1239C 2326.3,1250.15 2336.96,1261.31 2347.5,1272.5C 2348.43,1273.57 2348.77,1274.9 2348.5,1276.5C 2348.17,1279.23 2348.84,1281.56 2350.5,1283.5C 2351.43,1284.57 2351.77,1285.9 2351.5,1287.5C 2351.17,1290.23 2351.84,1292.56 2353.5,1294.5C 2354.43,1295.57 2354.77,1296.9 2354.5,1298.5C 2354.7,1301.52 2355.04,1304.52 2355.5,1307.5C 2352.17,1312.16 2348.51,1316.49 2344.5,1320.5C 2340.5,1321.67 2336.5,1322.83 2332.5,1324C 2328.48,1324.5 2324.48,1324.33 2320.5,1323.5C 2321.69,1318.43 2323.19,1313.43 2325,1308.5C 2325.82,1305.12 2325.66,1301.78 2324.5,1298.5C 2312.75,1309.42 2300.25,1319.42 2287,1328.5C 2287.13,1323.05 2288.13,1317.71 2290,1312.5C 2290.67,1308.83 2290.67,1305.17 2290,1301.5C 2281.09,1314.33 2272.42,1327.33 2264,1340.5C 2253.62,1350.27 2245.45,1361.61 2239.5,1374.5C 2238.67,1380.32 2238.17,1386.32 2238,1392.5C 2237.93,1353.81 2237.1,1315.14 2235.5,1276.5C 2237.6,1276.8 2239.6,1276.47 2241.5,1275.5C 2246.25,1266.34 2251.25,1257.34 2256.5,1248.5C 2264.32,1244.45 2272.32,1240.78 2280.5,1237.5 Z"/></g>
<g><path style="opacity:1" fill="#4a5351" d="M 2338.5,1238.5 C 2340.04,1240.84 2340.71,1243.5 2340.5,1246.5C 2339.23,1244.09 2338.57,1241.43 2338.5,1238.5 Z"/></g>
<g><path style="opacity:1" fill="#424c4b" d="M 2340.5,1246.5 C 2341.92,1248.51 2342.59,1250.85 2342.5,1253.5C 2341.08,1251.49 2340.41,1249.15 2340.5,1246.5 Z"/></g>
<g><path style="opacity:1" fill="#4e5555" d="M 2344.5,1261.5 C 2345.92,1263.51 2346.59,1265.85 2346.5,1268.5C 2345.08,1266.49 2344.41,1264.15 2344.5,1261.5 Z"/></g>
<g><path style="opacity:1" fill="#736575" d="M 2348.5,1276.5 C 2349.61,1278.6 2350.28,1280.93 2350.5,1283.5C 2348.84,1281.56 2348.17,1279.23 2348.5,1276.5 Z"/></g>
<g><path style="opacity:1" fill="#010101" d="M 2008.5,1340.5 C 1991.58,1334.28 1974.08,1330.28 1956,1328.5C 1925.17,1331.74 1894.34,1334.91 1863.5,1338C 1854.33,1340.7 1845.33,1343.53 1836.5,1346.5C 1818.08,1351.22 1799.74,1356.39 1781.5,1362C 1772.01,1369.58 1762.35,1376.91 1752.5,1384C 1746.22,1386.32 1739.89,1388.49 1733.5,1390.5C 1731.7,1385.69 1730.53,1380.69 1730,1375.5C 1728.78,1367.85 1728.11,1360.18 1728,1352.5C 1754.96,1336.94 1782.12,1321.77 1809.5,1307C 1832.47,1301.51 1855.47,1296.17 1878.5,1291C 1896.64,1288.34 1914.81,1285.84 1933,1283.5C 1958.38,1287.54 1983.55,1292.54 2008.5,1298.5C 2009.92,1312.83 2011.25,1327.16 2012.5,1341.5C 2011.04,1341.57 2009.71,1341.23 2008.5,1340.5 Z"/></g>
<g><path style="opacity:1" fill="#5a5b60" d="M 2351.5,1287.5 C 2352.92,1289.51 2353.59,1291.85 2353.5,1294.5C 2351.84,1292.56 2351.17,1290.23 2351.5,1287.5 Z"/></g>
<g><path style="opacity:1" fill="#70c0f9" d="M 1568.5,1292.5 C 1570.22,1298.16 1572.05,1303.83 1574,1309.5C 1574.34,1320.85 1574.84,1332.18 1575.5,1343.5C 1575.93,1357.33 1576.59,1371 1577.5,1384.5C 1582.18,1506.68 1587.18,1628.84 1592.5,1751C 1592.33,1754.83 1592.17,1758.67 1592,1762.5C 1581.88,1783.75 1572.04,1805.08 1562.5,1826.5C 1541.6,1869.98 1520.93,1913.64 1500.5,1957.5C 1499.5,1893.34 1499.17,1829 1499.5,1764.5C 1499.67,1694.17 1499.5,1623.83 1499,1553.5C 1485.49,1510.8 1471.99,1468.13 1458.5,1425.5C 1478.96,1415.44 1499.3,1405.1 1519.5,1394.5C 1532.92,1374.67 1546.08,1354.67 1559,1334.5C 1562,1320.33 1565.16,1306.33 1568.5,1292.5 Z"/></g>
<g><path style="opacity:1" fill="#060507" d="M 2355.5,1307.5 C 2356.22,1307.08 2356.72,1306.42 2357,1305.5C 2357.21,1307.06 2357.71,1308.39 2358.5,1309.5C 2358.5,1310.5 2358.5,1311.5 2358.5,1312.5C 2359.5,1312.5 2360.5,1312.5 2361.5,1312.5C 2361.09,1319.66 2361.92,1326.66 2364,1333.5C 2366.85,1328.47 2369.68,1323.47 2372.5,1318.5C 2373.32,1321.98 2373.82,1325.64 2374,1329.5C 2374.51,1328.47 2375.01,1327.47 2375.5,1326.5C 2376.17,1335.5 2376.83,1344.5 2377.5,1353.5C 2377.77,1359.84 2378.1,1366.17 2378.5,1372.5C 2377.11,1370.95 2376.44,1371.28 2376.5,1373.5C 2378.65,1382.07 2379.82,1390.74 2380,1399.5C 2376.64,1404.03 2373.47,1408.7 2370.5,1413.5C 2373.59,1415.03 2376.26,1417.03 2378.5,1419.5C 2379.57,1421.97 2380.9,1424.3 2382.5,1426.5C 2380.34,1426.84 2378.01,1426.84 2375.5,1426.5C 2372.21,1425.1 2368.87,1424.77 2365.5,1425.5C 2362.29,1430.75 2358.96,1435.92 2355.5,1441C 2357.41,1442.12 2359.41,1442.96 2361.5,1443.5C 2364.35,1445.85 2367.52,1447.85 2371,1449.5C 2372.37,1452.74 2372.7,1456.07 2372,1459.5C 2367.64,1456.3 2363.14,1453.3 2358.5,1450.5C 2354.03,1453.14 2349.7,1455.97 2345.5,1459C 2347.98,1461.41 2350.65,1463.57 2353.5,1465.5C 2354.83,1470.1 2355.33,1474.77 2355,1479.5C 2348.84,1475.5 2342.34,1472.17 2335.5,1469.5C 2323.18,1471.23 2310.85,1472.9 2298.5,1474.5C 2294.2,1473.02 2290.2,1471.02 2286.5,1468.5C 2285.03,1467.93 2283.69,1467.09 2282.5,1466C 2295.33,1465.87 2307.67,1463.37 2319.5,1458.5C 2331.32,1455.19 2340.82,1448.52 2348,1438.5C 2350.78,1433.94 2353.28,1429.27 2355.5,1424.5C 2358.97,1420.83 2361.47,1416.5 2363,1411.5C 2367.77,1397.22 2369.77,1382.55 2369,1367.5C 2367.33,1362.5 2365.67,1357.5 2364,1352.5C 2359.5,1348.67 2355,1344.83 2350.5,1341C 2343.73,1339.31 2337.06,1337.31 2330.5,1335C 2324.17,1334.33 2317.83,1334.33 2311.5,1335C 2303.12,1337.18 2294.79,1339.51 2286.5,1342C 2284.96,1343.37 2283.63,1344.87 2282.5,1346.5C 2272.52,1352.98 2264.35,1361.31 2258,1371.5C 2254.73,1378.49 2251.56,1385.49 2248.5,1392.5C 2245.56,1398.71 2242.89,1405.05 2240.5,1411.5C 2239.5,1399.34 2239.17,1387.01 2239.5,1374.5C 2245.45,1361.61 2253.62,1350.27 2264,1340.5C 2272.42,1327.33 2281.09,1314.33 2290,1301.5C 2290.67,1305.17 2290.67,1308.83 2290,1312.5C 2288.13,1317.71 2287.13,1323.05 2287,1328.5C 2300.25,1319.42 2312.75,1309.42 2324.5,1298.5C 2325.66,1301.78 2325.82,1305.12 2325,1308.5C 2323.19,1313.43 2321.69,1318.43 2320.5,1323.5C 2324.48,1324.33 2328.48,1324.5 2332.5,1324C 2336.5,1322.83 2340.5,1321.67 2344.5,1320.5C 2348.51,1316.49 2352.17,1312.16 2355.5,1307.5 Z"/></g>
<g><path style="opacity:1" fill="#55545a" d="M 2354.5,1298.5 C 2356.5,1301.86 2357.83,1305.53 2358.5,1309.5C 2357.71,1308.39 2357.21,1307.06 2357,1305.5C 2356.72,1306.42 2356.22,1307.08 2355.5,1307.5C 2355.04,1304.52 2354.7,1301.52 2354.5,1298.5 Z"/></g>
<g><path style="opacity:1" fill="#f1aaf0" d="M 2357.5,1316.5 C 2358.69,1316.97 2359.36,1317.97 2359.5,1319.5C 2360.44,1324.68 2361.44,1329.85 2362.5,1335C 2362.51,1337.16 2361.51,1338.66 2359.5,1339.5C 2355.69,1336.86 2352.02,1334.02 2348.5,1331C 2351.9,1326.36 2354.9,1321.53 2357.5,1316.5 Z"/></g>
<g><path style="opacity:1" fill="#6a9081" d="M 2375.5,1326.5 C 2375.01,1327.47 2374.51,1328.47 2374,1329.5C 2373.82,1325.64 2373.32,1321.98 2372.5,1318.5C 2372.78,1317.71 2373.28,1317.04 2374,1316.5C 2374.18,1320.03 2374.68,1323.36 2375.5,1326.5 Z"/></g>
<g><path style="opacity:1" fill="#f7aff9" d="M 1591.5,1327.5 C 1587.91,1349.11 1584.58,1370.78 1581.5,1392.5C 1580.47,1389.1 1579.14,1386.44 1577.5,1384.5C 1576.59,1371 1575.93,1357.33 1575.5,1343.5C 1580.83,1338.17 1586.17,1332.83 1591.5,1327.5 Z"/></g>
<g><path style="opacity:1" fill="#f8aef8" d="M 2008.5,1340.5 C 2016.83,1360.49 2025.16,1380.49 2033.5,1400.5C 2048.99,1408.75 2064.33,1417.25 2079.5,1426C 2093.16,1428.08 2106.82,1430.08 2120.5,1432C 2128.33,1440.5 2136.17,1449 2144,1457.5C 2149.64,1468.61 2155.14,1479.77 2160.5,1491C 2157.62,1501.07 2155.12,1511.24 2153,1521.5C 2141.08,1529.54 2129.25,1537.71 2117.5,1546C 2105.14,1551.85 2092.81,1557.68 2080.5,1563.5C 2078.46,1562.97 2076.79,1561.8 2075.5,1560C 2069.09,1558.32 2062.76,1556.48 2056.5,1554.5C 2063.6,1544.89 2072.6,1537.72 2083.5,1533C 2093.71,1532.98 2103.88,1533.81 2114,1535.5C 2115.17,1535.17 2116.33,1534.83 2117.5,1534.5C 2116.69,1532.08 2115.69,1529.75 2114.5,1527.5C 2103.44,1526.95 2092.44,1525.95 2081.5,1524.5C 2084.27,1518.67 2086.94,1512.84 2089.5,1507C 2088.06,1503.52 2086.73,1500.02 2085.5,1496.5C 2085.66,1493.48 2085.5,1490.48 2085,1487.5C 2079.84,1472.83 2074,1458.49 2067.5,1444.5C 2062.15,1434.31 2056.15,1424.47 2049.5,1415C 2043.8,1413.82 2038.13,1412.49 2032.5,1411C 2025.05,1405.19 2017.89,1399.02 2011,1392.5C 2005,1383.17 1999,1373.83 1993,1364.5C 1991.16,1368.01 1990.16,1371.68 1990,1375.5C 1997.74,1386.07 2004.57,1396.74 2010.5,1407.5C 2004.2,1405.23 1997.87,1403.07 1991.5,1401C 1976.99,1393.24 1962.32,1385.74 1947.5,1378.5C 1947.93,1383.5 1949.26,1388.5 1951.5,1393.5C 1934.17,1394.67 1916.84,1395.67 1899.5,1396.5C 1900.33,1400.83 1901.67,1405 1903.5,1409C 1910.83,1409.33 1918.17,1409.67 1925.5,1410C 1914.86,1415.32 1904.2,1420.65 1893.5,1426C 1878.82,1425.11 1864.15,1424.11 1849.5,1423C 1850.79,1425.76 1852.46,1428.26 1854.5,1430.5C 1862.98,1433.91 1871.31,1437.58 1879.5,1441.5C 1873.01,1447.82 1866.34,1453.99 1859.5,1460C 1849.53,1461.83 1839.53,1463.33 1829.5,1464.5C 1826.06,1454.79 1823.06,1444.96 1820.5,1435C 1825.78,1405.48 1831.11,1375.98 1836.5,1346.5C 1845.33,1343.53 1854.33,1340.7 1863.5,1338C 1894.34,1334.91 1925.17,1331.74 1956,1328.5C 1974.08,1330.28 1991.58,1334.28 2008.5,1340.5 Z"/></g>
<g><path style="opacity:1" fill="#f7f7f7" d="M 2355.5,1424.5 C 2355.66,1422.14 2355.5,1419.81 2355,1417.5C 2347.1,1398.45 2336.93,1380.79 2324.5,1364.5C 2311.29,1356.21 2297.29,1350.21 2282.5,1346.5C 2283.63,1344.87 2284.96,1343.37 2286.5,1342C 2294.79,1339.51 2303.12,1337.18 2311.5,1335C 2317.83,1334.33 2324.17,1334.33 2330.5,1335C 2337.06,1337.31 2343.73,1339.31 2350.5,1341C 2355,1344.83 2359.5,1348.67 2364,1352.5C 2365.67,1357.5 2367.33,1362.5 2369,1367.5C 2369.77,1382.55 2367.77,1397.22 2363,1411.5C 2361.47,1416.5 2358.97,1420.83 2355.5,1424.5 Z"/></g>
<g><path style="opacity:1" fill="#699884" d="M 2377.5,1353.5 C 2376.83,1344.5 2376.17,1335.5 2375.5,1326.5C 2375.78,1325.71 2376.28,1325.04 2377,1324.5C 2377.5,1334.16 2377.67,1343.83 2377.5,1353.5 Z"/></g>
<g><path style="opacity:1" fill="#52f8f9" d="M 2282.5,1346.5 C 2297.29,1350.21 2311.29,1356.21 2324.5,1364.5C 2336.93,1380.79 2347.1,1398.45 2355,1417.5C 2355.5,1419.81 2355.66,1422.14 2355.5,1424.5C 2353.28,1429.27 2350.78,1433.94 2348,1438.5C 2340.82,1448.52 2331.32,1455.19 2319.5,1458.5C 2317.3,1445.71 2314.47,1433.04 2311,1420.5C 2306.17,1415.67 2301.33,1410.83 2296.5,1406C 2285.09,1401.86 2273.76,1397.53 2262.5,1393C 2257.85,1392.5 2253.18,1392.33 2248.5,1392.5C 2251.56,1385.49 2254.73,1378.49 2258,1371.5C 2264.35,1361.31 2272.52,1352.98 2282.5,1346.5 Z"/></g>
<g><path style="opacity:1" fill="#050405" d="M 2067.5,1444.5 C 2057.4,1439.95 2047.4,1435.12 2037.5,1430C 2026.81,1428.61 2016.14,1427.11 2005.5,1425.5C 1988.54,1422.91 1971.54,1423.08 1954.5,1426C 1931.06,1437.46 1909.23,1451.29 1889,1467.5C 1886.67,1471.32 1884.17,1474.99 1881.5,1478.5C 1871.96,1489.88 1865.12,1502.88 1861,1517.5C 1858.74,1529.65 1856.57,1541.82 1854.5,1554C 1855.6,1561.22 1856.93,1568.39 1858.5,1575.5C 1876.57,1579.18 1894.57,1583.18 1912.5,1587.5C 1941.4,1583.85 1970.4,1581.35 1999.5,1580C 2001.07,1579.39 2002.4,1578.56 2003.5,1577.5C 2012.94,1572.95 2022.27,1568.11 2031.5,1563C 2040.33,1556 2048.66,1548.5 2056.5,1540.5C 2062.07,1536.78 2067.23,1532.44 2072,1527.5C 2075.08,1520.35 2078.41,1513.35 2082,1506.5C 2082.33,1501.83 2082.67,1497.17 2083,1492.5C 2083.93,1493.86 2084.77,1495.19 2085.5,1496.5C 2086.73,1500.02 2088.06,1503.52 2089.5,1507C 2086.94,1512.84 2084.27,1518.67 2081.5,1524.5C 2092.44,1525.95 2103.44,1526.95 2114.5,1527.5C 2115.69,1529.75 2116.69,1532.08 2117.5,1534.5C 2116.33,1534.83 2115.17,1535.17 2114,1535.5C 2103.88,1533.81 2093.71,1532.98 2083.5,1533C 2072.6,1537.72 2063.6,1544.89 2056.5,1554.5C 2062.76,1556.48 2069.09,1558.32 2075.5,1560C 2076.79,1561.8 2078.46,1562.97 2080.5,1563.5C 2082.96,1566.46 2085.63,1569.3 2088.5,1572C 2085.18,1573.54 2081.68,1574.71 2078,1575.5C 2075.01,1573.35 2072.18,1571.01 2069.5,1568.5C 2068.75,1566.75 2067.42,1565.75 2065.5,1565.5C 2055.8,1567.14 2046.13,1568.97 2036.5,1571C 2028.01,1575.08 2019.68,1579.41 2011.5,1584C 2014.37,1587.04 2017.37,1589.87 2020.5,1592.5C 2027.96,1597.07 2030.8,1603.74 2029,1612.5C 2022.38,1605.04 2014.55,1599.37 2005.5,1595.5C 2004.08,1595.29 2002.74,1594.79 2001.5,1594C 1991.5,1593.33 1981.5,1593.33 1971.5,1594C 1969.34,1594.91 1967.34,1596.08 1965.5,1597.5C 1967.19,1599.85 1969.19,1601.85 1971.5,1603.5C 1973.46,1605.96 1975.63,1608.3 1978,1610.5C 1978.67,1616.17 1978.67,1621.83 1978,1627.5C 1972.96,1620.07 1967.46,1613.07 1961.5,1606.5C 1961.63,1605.62 1961.3,1604.96 1960.5,1604.5C 1955.5,1602.33 1950.5,1600.17 1945.5,1598C 1930.51,1598.4 1915.51,1598.4 1900.5,1598C 1878.64,1592.72 1857.14,1586.22 1836,1578.5C 1829.18,1581.24 1822.52,1584.24 1816,1587.5C 1811.83,1586.06 1807.67,1584.72 1803.5,1583.5C 1803.5,1583.17 1803.5,1582.83 1803.5,1582.5C 1816.89,1573.39 1830.39,1564.39 1844,1555.5C 1845.08,1550.53 1845.41,1545.53 1845,1540.5C 1840.13,1545.7 1834.97,1550.53 1829.5,1555C 1822.57,1556.98 1815.57,1558.32 1808.5,1559C 1819.63,1549.54 1830.47,1539.7 1841,1529.5C 1845.67,1520.83 1850.33,1512.17 1855,1503.5C 1855.37,1501.3 1855.87,1499.14 1856.5,1497C 1856.17,1496.5 1855.83,1496 1855.5,1495.5C 1851.41,1497.55 1847.41,1499.55 1843.5,1501.5C 1840.73,1502.63 1837.9,1503.63 1835,1504.5C 1826.01,1502.71 1817.17,1500.54 1808.5,1498C 1818.46,1494.79 1828.46,1491.79 1838.5,1489C 1839.06,1488.62 1839.39,1488.12 1839.5,1487.5C 1844.53,1482.81 1849.53,1478.14 1854.5,1473.5C 1855.04,1473.44 1855.38,1473.11 1855.5,1472.5C 1850.35,1471.19 1845.35,1471.19 1840.5,1472.5C 1838.17,1472.5 1835.83,1472.5 1833.5,1472.5C 1827.16,1472.67 1820.82,1472.5 1814.5,1472C 1813.17,1470.67 1811.83,1469.33 1810.5,1468C 1816.8,1466.62 1823.14,1465.45 1829.5,1464.5C 1839.53,1463.33 1849.53,1461.83 1859.5,1460C 1866.34,1453.99 1873.01,1447.82 1879.5,1441.5C 1871.31,1437.58 1862.98,1433.91 1854.5,1430.5C 1852.46,1428.26 1850.79,1425.76 1849.5,1423C 1864.15,1424.11 1878.82,1425.11 1893.5,1426C 1904.2,1420.65 1914.86,1415.32 1925.5,1410C 1918.17,1409.67 1910.83,1409.33 1903.5,1409C 1901.67,1405 1900.33,1400.83 1899.5,1396.5C 1916.84,1395.67 1934.17,1394.67 1951.5,1393.5C 1949.26,1388.5 1947.93,1383.5 1947.5,1378.5C 1962.32,1385.74 1976.99,1393.24 1991.5,1401C 1997.87,1403.07 2004.2,1405.23 2010.5,1407.5C 2004.57,1396.74 1997.74,1386.07 1990,1375.5C 1990.16,1371.68 1991.16,1368.01 1993,1364.5C 1999,1373.83 2005,1383.17 2011,1392.5C 2017.89,1399.02 2025.05,1405.19 2032.5,1411C 2038.13,1412.49 2043.8,1413.82 2049.5,1415C 2056.15,1424.47 2062.15,1434.31 2067.5,1444.5 Z"/></g>
<g><path style="opacity:1" fill="#f2acf2" d="M 2378.5,1372.5 C 2381.9,1378.97 2385.57,1385.3 2389.5,1391.5C 2385.83,1400.86 2382.16,1410.2 2378.5,1419.5C 2376.26,1417.03 2373.59,1415.03 2370.5,1413.5C 2373.47,1408.7 2376.64,1404.03 2380,1399.5C 2379.82,1390.74 2378.65,1382.07 2376.5,1373.5C 2376.44,1371.28 2377.11,1370.95 2378.5,1372.5 Z"/></g>
<g><path style="opacity:1" fill="#f957e0" d="M 1581.5,1392.5 C 1587.73,1414.2 1594.73,1435.53 1602.5,1456.5C 1613.82,1493.64 1625.66,1530.64 1638,1567.5C 1682.02,1644.89 1726.52,1721.89 1771.5,1798.5C 1771.71,1799.92 1772.21,1801.26 1773,1802.5C 1806.36,1841.36 1839.86,1880.03 1873.5,1918.5C 1876.43,1922.61 1879.6,1926.61 1883,1930.5C 1883.19,1932.06 1882.35,1932.73 1880.5,1932.5C 1807.79,1919.66 1735.12,1906.49 1662.5,1893C 1660.88,1892.38 1659.55,1891.38 1658.5,1890C 1657.21,1889.51 1655.87,1889.34 1654.5,1889.5C 1645.49,1889.67 1636.49,1889.5 1627.5,1889C 1605.96,1867.96 1584.3,1847.13 1562.5,1826.5C 1572.04,1805.08 1581.88,1783.75 1592,1762.5C 1592.17,1758.67 1592.33,1754.83 1592.5,1751C 1587.18,1628.84 1582.18,1506.68 1577.5,1384.5C 1579.14,1386.44 1580.47,1389.1 1581.5,1392.5 Z"/></g>
<g><path style="opacity:1" fill="#f139f9" d="M 2248.5,1392.5 C 2253.18,1392.33 2257.85,1392.5 2262.5,1393C 2273.76,1397.53 2285.09,1401.86 2296.5,1406C 2301.33,1410.83 2306.17,1415.67 2311,1420.5C 2314.47,1433.04 2317.3,1445.71 2319.5,1458.5C 2307.67,1463.37 2295.33,1465.87 2282.5,1466C 2283.69,1467.09 2285.03,1467.93 2286.5,1468.5C 2284.03,1469.63 2281.37,1469.8 2278.5,1469C 2270.86,1467.28 2263.2,1465.78 2255.5,1464.5C 2252.47,1461.8 2249.47,1459.14 2246.5,1456.5C 2246.75,1454 2247.08,1451.5 2247.5,1449C 2244.68,1436.58 2242.35,1424.08 2240.5,1411.5C 2242.89,1405.05 2245.56,1398.71 2248.5,1392.5 Z"/></g>
<g><path style="opacity:1" fill="#70c1f9" d="M 1159.5,1401.5 C 1169.14,1407.66 1178.81,1413.82 1188.5,1420C 1203.7,1422.87 1218.7,1426.04 1233.5,1429.5C 1232.5,1429.5 1231.5,1429.5 1230.5,1429.5C 1222,1458.81 1213.5,1488.15 1205,1517.5C 1144.98,1585.35 1085.15,1653.35 1025.5,1721.5C 1023,1721.83 1020.5,1722.17 1018,1722.5C 959.828,1718.4 901.662,1714.24 843.5,1710C 916.3,1664.7 988.966,1619.2 1061.5,1573.5C 1094.7,1516.44 1127.36,1459.1 1159.5,1401.5 Z"/></g>
<g><path style="opacity:1" fill="#51f9f9" d="M 2005.5,1425.5 C 2011.86,1431.35 2018.69,1436.68 2026,1441.5C 2034.19,1458.41 2042.19,1475.41 2050,1492.5C 2052.33,1502.5 2054.67,1512.5 2057,1522.5C 2057.7,1528.54 2057.53,1534.54 2056.5,1540.5C 2048.66,1548.5 2040.33,1556 2031.5,1563C 2022.27,1568.11 2012.94,1572.95 2003.5,1577.5C 2003.18,1569.83 2002.68,1562.16 2002,1554.5C 1998,1545.83 1994,1537.17 1990,1528.5C 1981.21,1517.37 1972.04,1506.54 1962.5,1496C 1944.16,1489.66 1925.82,1483.33 1907.5,1477C 1898.8,1476.84 1890.14,1477.34 1881.5,1478.5C 1884.17,1474.99 1886.67,1471.32 1889,1467.5C 1909.23,1451.29 1931.06,1437.46 1954.5,1426C 1971.54,1423.08 1988.54,1422.91 2005.5,1425.5 Z"/></g>
<g><path style="opacity:1" fill="#f1aaf1" d="M 2375.5,1426.5 C 2375.29,1427.92 2374.79,1429.26 2374,1430.5C 2369.63,1434.7 2365.46,1439.04 2361.5,1443.5C 2359.41,1442.96 2357.41,1442.12 2355.5,1441C 2358.96,1435.92 2362.29,1430.75 2365.5,1425.5C 2368.87,1424.77 2372.21,1425.1 2375.5,1426.5 Z"/></g>
<g><path style="opacity:1" fill="#f858e1" d="M 1458.5,1425.5 C 1471.99,1468.13 1485.49,1510.8 1499,1553.5C 1499.5,1623.83 1499.67,1694.17 1499.5,1764.5C 1499.17,1764.5 1498.83,1764.5 1498.5,1764.5C 1498.5,1764.17 1498.5,1763.83 1498.5,1763.5C 1498.67,1739.5 1498.5,1715.5 1498,1691.5C 1475.94,1643.71 1453.61,1596.05 1431,1548.5C 1424.82,1520.28 1419.16,1491.94 1414,1463.5C 1413.79,1465.06 1413.29,1466.39 1412.5,1467.5C 1412.48,1458.15 1412.82,1448.82 1413.5,1439.5C 1417.5,1439.5 1421.5,1439.5 1425.5,1439.5C 1427.53,1439.66 1429.53,1439.5 1431.5,1439C 1440.53,1434.49 1449.53,1429.99 1458.5,1425.5 Z"/></g>
<g><path style="opacity:1" fill="#f8f8f8" d="M 2005.5,1425.5 C 2016.14,1427.11 2026.81,1428.61 2037.5,1430C 2047.4,1435.12 2057.4,1439.95 2067.5,1444.5C 2074,1458.49 2079.84,1472.83 2085,1487.5C 2085.5,1490.48 2085.66,1493.48 2085.5,1496.5C 2084.77,1495.19 2083.93,1493.86 2083,1492.5C 2082.67,1497.17 2082.33,1501.83 2082,1506.5C 2078.41,1513.35 2075.08,1520.35 2072,1527.5C 2067.23,1532.44 2062.07,1536.78 2056.5,1540.5C 2057.53,1534.54 2057.7,1528.54 2057,1522.5C 2054.67,1512.5 2052.33,1502.5 2050,1492.5C 2042.19,1475.41 2034.19,1458.41 2026,1441.5C 2018.69,1436.68 2011.86,1431.35 2005.5,1425.5 Z"/></g>
<g><path style="opacity:1" fill="#70c1f9" d="M 1283.5,1439.5 C 1293.83,1439.5 1304.17,1439.5 1314.5,1439.5C 1347.5,1439.5 1380.5,1439.5 1413.5,1439.5C 1412.82,1448.82 1412.48,1458.15 1412.5,1467.5C 1410.6,1519.82 1408.93,1572.16 1407.5,1624.5C 1407.5,1628.5 1407.5,1632.5 1407.5,1636.5C 1406.06,1656.98 1405.23,1677.65 1405,1698.5C 1365.47,1798.09 1326.14,1897.75 1287,1997.5C 1219.21,2012.94 1151.37,2028.44 1083.5,2044C 1068.15,2047.22 1052.82,2050.22 1037.5,2053C 1088.29,1977.93 1138.45,1902.43 1188,1826.5C 1220.8,1735.76 1253.8,1645.09 1287,1554.5C 1285.76,1516.19 1284.6,1477.86 1283.5,1439.5 Z"/></g>
<g><path style="opacity:1" fill="#0e0c0e" d="M 2246.5,1456.5 C 2249.47,1459.14 2252.47,1461.8 2255.5,1464.5C 2255.97,1465.91 2256.97,1466.57 2258.5,1466.5C 2263.71,1472.44 2269.37,1477.94 2275.5,1483C 2303.87,1505.27 2333.04,1526.43 2363,1546.5C 2366.87,1559.1 2370.53,1571.76 2374,1584.5C 2374.76,1586.77 2374.59,1588.94 2373.5,1591C 2345.04,1604.73 2316.71,1618.73 2288.5,1633C 2285.83,1633.67 2283.17,1633.67 2280.5,1633C 2283.39,1631.73 2286.06,1630.23 2288.5,1628.5C 2300.5,1622.83 2312.5,1617.17 2324.5,1611.5C 2337.81,1604.85 2351.14,1598.18 2364.5,1591.5C 2365.79,1589.36 2365.79,1587.36 2364.5,1585.5C 2361.65,1573.44 2358.48,1561.44 2355,1549.5C 2354.76,1547.88 2353.93,1546.88 2352.5,1546.5C 2323.52,1526.66 2295.19,1505.83 2267.5,1484C 2258.63,1475.46 2249.46,1467.3 2240,1459.5C 2239.18,1456.77 2239.35,1454.11 2240.5,1451.5C 2242.52,1453.19 2244.52,1454.86 2246.5,1456.5 Z"/></g>
<g><path style="opacity:1" fill="#f951e1" d="M 1498.5,1763.5 C 1477.9,1744.4 1457.73,1724.73 1438,1704.5C 1437.06,1701.63 1435.89,1698.96 1434.5,1696.5C 1426.02,1672.22 1417.02,1648.22 1407.5,1624.5C 1408.93,1572.16 1410.6,1519.82 1412.5,1467.5C 1413.29,1466.39 1413.79,1465.06 1414,1463.5C 1419.16,1491.94 1424.82,1520.28 1431,1548.5C 1453.61,1596.05 1475.94,1643.71 1498,1691.5C 1498.5,1715.5 1498.67,1739.5 1498.5,1763.5 Z"/></g>
<g><path style="opacity:1" fill="#f3abf3" d="M 2255.5,1464.5 C 2263.2,1465.78 2270.86,1467.28 2278.5,1469C 2281.37,1469.8 2284.03,1469.63 2286.5,1468.5C 2290.2,1471.02 2294.2,1473.02 2298.5,1474.5C 2310.85,1472.9 2323.18,1471.23 2335.5,1469.5C 2335.14,1471.37 2334.14,1472.87 2332.5,1474C 2317.9,1476.36 2303.23,1477.7 2288.5,1478C 2278.59,1473.88 2268.59,1470.04 2258.5,1466.5C 2256.97,1466.57 2255.97,1465.91 2255.5,1464.5 Z"/></g>
<g><path style="opacity:1" fill="#f9aef9" d="M 1602.5,1456.5 C 1621.88,1503.77 1641.38,1551.11 1661,1598.5C 1691,1635.17 1721,1671.83 1751,1708.5C 1791.17,1744.67 1831.33,1780.83 1871.5,1817C 1914.07,1836.79 1956.74,1856.29 1999.5,1875.5C 1990.13,1901.11 1980.46,1926.61 1970.5,1952C 1946.2,1947.05 1922.03,1941.22 1898,1934.5C 1897,1934.83 1896,1935.17 1895,1935.5C 1890.05,1934.37 1885.22,1933.37 1880.5,1932.5C 1882.35,1932.73 1883.19,1932.06 1883,1930.5C 1879.6,1926.61 1876.43,1922.61 1873.5,1918.5C 1873.94,1918.57 1874.27,1918.4 1874.5,1918C 1839.93,1878.27 1805.59,1838.44 1771.5,1798.5C 1726.52,1721.89 1682.02,1644.89 1638,1567.5C 1625.66,1530.64 1613.82,1493.64 1602.5,1456.5 Z"/></g>
<g><path style="opacity:1" fill="#5c435b" d="M 1840.5,1472.5 C 1845.35,1471.19 1850.35,1471.19 1855.5,1472.5C 1855.38,1473.11 1855.04,1473.44 1854.5,1473.5C 1850.03,1472.51 1845.36,1472.18 1840.5,1472.5 Z"/></g>
<g><path style="opacity:1" fill="#f5adf5" d="M 1833.5,1472.5 C 1835.83,1472.5 1838.17,1472.5 1840.5,1472.5C 1845.36,1472.18 1850.03,1472.51 1854.5,1473.5C 1849.53,1478.14 1844.53,1482.81 1839.5,1487.5C 1838.88,1487.39 1838.38,1487.06 1838,1486.5C 1836.39,1481.83 1834.89,1477.17 1833.5,1472.5 Z"/></g>
<g><path style="opacity:1" fill="#f138f9" d="M 2003.5,1577.5 C 2002.4,1578.56 2001.07,1579.39 1999.5,1580C 1970.4,1581.35 1941.4,1583.85 1912.5,1587.5C 1894.57,1583.18 1876.57,1579.18 1858.5,1575.5C 1856.93,1568.39 1855.6,1561.22 1854.5,1554C 1856.57,1541.82 1858.74,1529.65 1861,1517.5C 1865.12,1502.88 1871.96,1489.88 1881.5,1478.5C 1890.14,1477.34 1898.8,1476.84 1907.5,1477C 1925.82,1483.33 1944.16,1489.66 1962.5,1496C 1972.04,1506.54 1981.21,1517.37 1990,1528.5C 1994,1537.17 1998,1545.83 2002,1554.5C 2002.68,1562.16 2003.18,1569.83 2003.5,1577.5 Z"/></g>
<g><path style="opacity:1" fill="#f5acf4" d="M 1803.5,1582.5 C 1801.83,1579.45 1801.33,1576.11 1802,1572.5C 1805,1561.49 1808,1550.49 1811,1539.5C 1821.64,1527.86 1832.64,1516.53 1844,1505.5C 1844.58,1504.07 1844.41,1502.74 1843.5,1501.5C 1847.41,1499.55 1851.41,1497.55 1855.5,1495.5C 1855.83,1496 1856.17,1496.5 1856.5,1497C 1855.87,1499.14 1855.37,1501.3 1855,1503.5C 1850.33,1512.17 1845.67,1520.83 1841,1529.5C 1830.47,1539.7 1819.63,1549.54 1808.5,1559C 1815.57,1558.32 1822.57,1556.98 1829.5,1555C 1834.97,1550.53 1840.13,1545.7 1845,1540.5C 1845.41,1545.53 1845.08,1550.53 1844,1555.5C 1830.39,1564.39 1816.89,1573.39 1803.5,1582.5 Z"/></g>
<g><path style="opacity:1" fill="#f9d3f9" d="M 3373.5,2170.5 C 3352.4,2145.16 3331.4,2119.66 3310.5,2094C 3271.55,2066.05 3232.89,2037.72 3194.5,2009C 3191.96,2007.91 3189.29,2007.24 3186.5,2007C 3146.32,2003.82 3106.32,2000.32 3066.5,1996.5C 3067.57,1995.75 3067.74,1994.75 3067,1993.5C 3061.86,1979.75 3056.53,1966.09 3051,1952.5C 3003.22,1889.71 2955.05,1827.21 2906.5,1765C 2895.28,1757.61 2883.95,1750.44 2872.5,1743.5C 2875.89,1741.39 2879.39,1739.39 2883,1737.5C 2892.55,1695.46 2901.39,1653.29 2909.5,1611C 2909.53,1607.41 2909.03,1603.91 2908,1600.5C 2898.35,1642.09 2889.01,1683.76 2880,1725.5C 2854.94,1738.45 2829.44,1750.45 2803.5,1761.5C 2801,1799.16 2798.5,1836.83 2796,1874.5C 2784.33,1891.17 2772.67,1907.83 2761,1924.5C 2761.17,1928.85 2761.83,1933.19 2763,1937.5C 2775.25,1920.68 2787.25,1903.68 2799,1886.5C 2801.29,1849.14 2803.95,1811.81 2807,1774.5C 2822.78,1766.69 2838.62,1759.02 2854.5,1751.5C 2857.91,1781.8 2861.08,1812.13 2864,1842.5C 2888.09,1889.68 2911.92,1937.01 2935.5,1984.5C 2937.29,1985.17 2938.96,1985.84 2940.5,1986.5C 2860.13,1980.48 2779.8,1973.98 2699.5,1967C 2689.97,1953.32 2680.3,1939.82 2670.5,1926.5C 2667.22,1921.38 2663.72,1916.38 2660,1911.5C 2655.73,1874.16 2651.39,1836.83 2647,1799.5C 2645.85,1796.23 2645.02,1792.9 2644.5,1789.5C 2664.17,1788.6 2683.83,1787.6 2703.5,1786.5C 2706.17,1786.83 2708.83,1787.17 2711.5,1787.5C 2722.94,1813.38 2734.11,1839.38 2745,1865.5C 2745.58,1862.74 2745.25,1860.08 2744,1857.5C 2731.89,1830.28 2720.06,1802.95 2708.5,1775.5C 2706,1775.17 2703.5,1774.83 2701,1774.5C 2676.85,1776.08 2652.69,1777.08 2628.5,1777.5C 2624.23,1761.41 2620.4,1745.07 2617,1728.5C 2614.95,1722.72 2612.11,1717.39 2608.5,1712.5C 2602.68,1711.83 2597.01,1711.17 2591.5,1710.5C 2592.24,1710.63 2592.91,1710.46 2593.5,1710C 2592.17,1709 2592.17,1708 2593.5,1707C 2599.59,1704.29 2605.26,1701.13 2610.5,1697.5C 2608.61,1689.34 2606.61,1681.34 2604.5,1673.5C 2603.73,1669.86 2603.06,1666.19 2602.5,1662.5C 2553.34,1666.14 2504.17,1669.81 2455,1673.5C 2451.83,1673.33 2448.67,1673.17 2445.5,1673C 2442.69,1671.26 2439.69,1670.09 2436.5,1669.5C 2434.63,1637.86 2433.3,1606.19 2432.5,1574.5C 2452.84,1574.33 2473.17,1574.5 2493.5,1575C 2531.49,1578.65 2569.49,1582.15 2607.5,1585.5C 2609.92,1585.81 2612.26,1585.47 2614.5,1584.5C 2607.81,1576.81 2601.14,1569.15 2594.5,1561.5C 2591.34,1558.17 2588.34,1554.67 2585.5,1551C 2684.9,1540.72 2784.4,1532.89 2884,1527.5C 2887.81,1538.43 2891.31,1549.43 2894.5,1560.5C 2899.37,1559.07 2904.03,1557.07 2908.5,1554.5C 2982.83,1594.33 3057.17,1634.17 3131.5,1674C 3198.17,1715.33 3264.83,1756.67 3331.5,1798C 3372.98,1847.78 3414.81,1897.28 3457,1946.5C 3477.29,1987.41 3496.79,2028.75 3515.5,2070.5C 3509.1,2092.86 3502.6,2115.2 3496,2137.5C 3454.96,2148.13 3414.12,2159.13 3373.5,2170.5 Z"/></g>
<g><path style="opacity:1" fill="#070607" d="M 2417.5,1453.5 C 2418.41,1455.02 2419.24,1456.69 2420,1458.5C 2424.33,1497.29 2428.49,1535.96 2432.5,1574.5C 2433.3,1606.19 2434.63,1637.86 2436.5,1669.5C 2439.69,1670.09 2442.69,1671.26 2445.5,1673C 2448.67,1673.17 2451.83,1673.33 2455,1673.5C 2504.17,1669.81 2553.34,1666.14 2602.5,1662.5C 2603.06,1666.19 2603.73,1669.86 2604.5,1673.5C 2555.18,1677.87 2505.68,1681.87 2456,1685.5C 2453.5,1685.33 2451,1685.17 2448.5,1685C 2445.03,1682.93 2441.36,1681.43 2437.5,1680.5C 2437.7,1691.9 2437.03,1703.23 2435.5,1714.5C 2433.15,1732.48 2430.65,1750.48 2428,1768.5C 2406.25,1830.49 2384.08,1892.33 2361.5,1954C 2347.78,1962.7 2333.78,1971.04 2319.5,1979C 2309.51,1980.02 2299.51,1980.85 2289.5,1981.5C 2282.81,1981.45 2276.14,1981.79 2269.5,1982.5C 2256.64,1982.44 2243.97,1983.11 2231.5,1984.5C 2189.82,1986.44 2148.16,1988.61 2106.5,1991C 2091.73,2019.37 2076.56,2047.54 2061,2075.5C 2059.87,2077.35 2059.37,2079.35 2059.5,2081.5C 2075.91,2086.69 2092.24,2092.19 2108.5,2098C 2127.52,2099 2146.52,2100.34 2165.5,2102C 2167.41,2103.12 2169.41,2103.96 2171.5,2104.5C 2186.54,2112.02 2201.87,2119.02 2217.5,2125.5C 2217.33,2130.18 2217.5,2134.85 2218,2139.5C 2224.39,2142.46 2230.89,2145.13 2237.5,2147.5C 2237.13,2163.04 2237.8,2178.37 2239.5,2193.5C 2239.5,2199.5 2239.5,2205.5 2239.5,2211.5C 2239.73,2223.35 2240.4,2235.01 2241.5,2246.5C 2241.5,2252.17 2241.5,2257.83 2241.5,2263.5C 2241.77,2272.72 2242.77,2281.72 2244.5,2290.5C 2245.17,2296.83 2245.83,2303.17 2246.5,2309.5C 2247.57,2325.17 2248.74,2340.83 2250,2356.5C 2260.33,2379.99 2270.16,2403.65 2279.5,2427.5C 2274.84,2426.94 2270.5,2425.61 2266.5,2423.5C 2263.72,2422.07 2260.72,2420.9 2257.5,2420C 2256.93,2419.01 2256.27,2418.17 2255.5,2417.5C 2246.63,2394.08 2237.46,2370.75 2228,2347.5C 2225.08,2313.19 2222.41,2278.85 2220,2244.5C 2218.64,2209.16 2217.14,2173.83 2215.5,2138.5C 2198.5,2130.67 2181.5,2122.83 2164.5,2115C 2145.52,2113.34 2126.52,2112 2107.5,2111C 2085.01,2103.45 2062.68,2095.62 2040.5,2087.5C 2058.67,2051.17 2076.83,2014.83 2095,1978.5C 2095.67,1969.5 2095.67,1960.5 2095,1951.5C 2092.77,1907.5 2090.61,1863.5 2088.5,1819.5C 2070.49,1814.41 2052.82,1808.24 2035.5,1801C 2034.06,1800.22 2032.72,1800.39 2031.5,1801.5C 2009,1861.01 1986.33,1920.34 1963.5,1979.5C 1963.24,1972.97 1964.57,1966.81 1967.5,1961C 1967.36,1960.23 1967.02,1959.56 1966.5,1959C 1944.73,1953.26 1922.89,1947.76 1901,1942.5C 1900,1942.83 1899,1943.17 1898,1943.5C 1834.56,1931.38 1771.06,1919.71 1707.5,1908.5C 1692.82,1905.83 1678.16,1903 1663.5,1900C 1659.92,1896.92 1656.92,1893.42 1654.5,1889.5C 1655.87,1889.34 1657.21,1889.51 1658.5,1890C 1659.55,1891.38 1660.88,1892.38 1662.5,1893C 1735.12,1906.49 1807.79,1919.66 1880.5,1932.5C 1885.22,1933.37 1890.05,1934.37 1895,1935.5C 1896,1935.17 1897,1934.83 1898,1934.5C 1922.03,1941.22 1946.2,1947.05 1970.5,1952C 1980.46,1926.61 1990.13,1901.11 1999.5,1875.5C 2010.69,1846.61 2021.69,1817.61 2032.5,1788.5C 2033.72,1787.39 2035.06,1787.22 2036.5,1788C 2053.8,1795.27 2071.47,1801.43 2089.5,1806.5C 2089.5,1812.83 2089.5,1819.17 2089.5,1825.5C 2093.58,1826.14 2097.41,1827.47 2101,1829.5C 2102.08,1850.84 2103.24,1872.18 2104.5,1893.5C 2104.96,1909.69 2105.96,1925.69 2107.5,1941.5C 2107.64,1955.17 2107.97,1968.84 2108.5,1982.5C 2113.69,1982.82 2118.69,1982.49 2123.5,1981.5C 2185.83,1978.41 2248.17,1975.24 2310.5,1972C 2313.29,1971.76 2315.96,1971.09 2318.5,1970C 2332,1962.42 2345.33,1954.59 2358.5,1946.5C 2371.37,1911.22 2384.04,1875.89 2396.5,1840.5C 2406.42,1813.23 2416.26,1785.9 2426,1758.5C 2429.02,1733.51 2431.85,1708.51 2434.5,1683.5C 2432.76,1606.5 2427.09,1529.84 2417.5,1453.5 Z"/></g>
<g><path style="opacity:1" fill="#f9a7f8" d="M 2352.5,1546.5 C 2353.93,1546.88 2354.76,1547.88 2355,1549.5C 2358.48,1561.44 2361.65,1573.44 2364.5,1585.5C 2351.73,1593.73 2338.73,1601.73 2325.5,1609.5C 2324.7,1609.96 2324.37,1610.62 2324.5,1611.5C 2312.5,1617.17 2300.5,1622.83 2288.5,1628.5C 2286.95,1625.06 2285.11,1621.73 2283,1618.5C 2282.33,1616.83 2282.33,1615.17 2283,1613.5C 2290.39,1603.78 2297.39,1593.78 2304,1583.5C 2319.96,1570.79 2336.12,1558.45 2352.5,1546.5 Z"/></g>
<g><path style="opacity:1" fill="#0e100f" d="M 2594.5,1561.5 C 2601.14,1569.15 2607.81,1576.81 2614.5,1584.5C 2612.26,1585.47 2609.92,1585.81 2607.5,1585.5C 2600.86,1577.85 2594.19,1570.19 2587.5,1562.5C 2589.74,1561.53 2592.08,1561.19 2594.5,1561.5 Z"/></g>
<g><path style="opacity:1" fill="#f3abf3" d="M 2069.5,1568.5 C 2053.53,1575.49 2037.53,1582.49 2021.5,1589.5C 2020.61,1590.32 2020.28,1591.32 2020.5,1592.5C 2017.37,1589.87 2014.37,1587.04 2011.5,1584C 2019.68,1579.41 2028.01,1575.08 2036.5,1571C 2046.13,1568.97 2055.8,1567.14 2065.5,1565.5C 2067.42,1565.75 2068.75,1566.75 2069.5,1568.5 Z"/></g>
<g><path style="opacity:1" fill="#f7adf6" d="M 1961.5,1606.5 C 1952.46,1607.67 1943.46,1609.17 1934.5,1611C 1931.83,1611.67 1929.17,1611.67 1926.5,1611C 1907.65,1605.08 1888.81,1599.25 1870,1593.5C 1859.5,1594.67 1849,1595.83 1838.5,1597C 1829.3,1599.47 1819.97,1601.63 1810.5,1603.5C 1808.17,1596.83 1805.83,1590.16 1803.5,1583.5C 1807.67,1584.72 1811.83,1586.06 1816,1587.5C 1822.52,1584.24 1829.18,1581.24 1836,1578.5C 1857.14,1586.22 1878.64,1592.72 1900.5,1598C 1915.51,1598.4 1930.51,1598.4 1945.5,1598C 1950.5,1600.17 1955.5,1602.33 1960.5,1604.5C 1961.3,1604.96 1961.63,1605.62 1961.5,1606.5 Z"/></g>
<g><path style="opacity:1" fill="#e9c3e9" d="M 2364.5,1585.5 C 2365.79,1587.36 2365.79,1589.36 2364.5,1591.5C 2351.14,1598.18 2337.81,1604.85 2324.5,1611.5C 2324.37,1610.62 2324.7,1609.96 2325.5,1609.5C 2338.73,1601.73 2351.73,1593.73 2364.5,1585.5 Z"/></g>
<g><path style="opacity:1" fill="#f6adf6" d="M 2005.5,1595.5 C 2003.33,1597.51 2000.67,1598.68 1997.5,1599C 1988.81,1600.44 1980.14,1601.94 1971.5,1603.5C 1969.19,1601.85 1967.19,1599.85 1965.5,1597.5C 1967.34,1596.08 1969.34,1594.91 1971.5,1594C 1981.5,1593.33 1991.5,1593.33 2001.5,1594C 2002.74,1594.79 2004.08,1595.29 2005.5,1595.5 Z"/></g>
<g><path style="opacity:1" fill="#0a090a" d="M 2872.5,1743.5 C 2866.5,1746.17 2860.5,1748.84 2854.5,1751.5C 2838.62,1759.02 2822.78,1766.69 2807,1774.5C 2803.95,1811.81 2801.29,1849.14 2799,1886.5C 2787.25,1903.68 2775.25,1920.68 2763,1937.5C 2761.83,1933.19 2761.17,1928.85 2761,1924.5C 2772.67,1907.83 2784.33,1891.17 2796,1874.5C 2798.5,1836.83 2801,1799.16 2803.5,1761.5C 2829.44,1750.45 2854.94,1738.45 2880,1725.5C 2889.01,1683.76 2898.35,1642.09 2908,1600.5C 2909.03,1603.91 2909.53,1607.41 2909.5,1611C 2901.39,1653.29 2892.55,1695.46 2883,1737.5C 2879.39,1739.39 2875.89,1741.39 2872.5,1743.5 Z"/></g>
<g><path style="opacity:1" fill="#100d0f" d="M 1407.5,1624.5 C 1417.02,1648.22 1426.02,1672.22 1434.5,1696.5C 1431.87,1694.37 1429.37,1692.04 1427,1689.5C 1420.39,1671.85 1413.89,1654.18 1407.5,1636.5C 1407.5,1632.5 1407.5,1628.5 1407.5,1624.5 Z"/></g>
<g><path style="opacity:1" fill="#faaffa" d="M 2346.5,1632.5 C 2347.12,1632.61 2347.62,1632.94 2348,1633.5C 2350.33,1644.83 2352.67,1656.17 2355,1667.5C 2355.34,1680.14 2353.5,1692.48 2349.5,1704.5C 2343.92,1701.87 2338.25,1699.54 2332.5,1697.5C 2328.97,1681.07 2324.97,1664.73 2320.5,1648.5C 2326.47,1647.67 2332.47,1647.17 2338.5,1647C 2341.57,1642.35 2344.24,1637.52 2346.5,1632.5 Z"/></g>
<g><path style="opacity:1" fill="#aef7d9" d="M 2604.5,1673.5 C 2606.61,1681.34 2608.61,1689.34 2610.5,1697.5C 2605.26,1701.13 2599.59,1704.29 2593.5,1707C 2592.17,1708 2592.17,1709 2593.5,1710C 2592.91,1710.46 2592.24,1710.63 2591.5,1710.5C 2550.83,1709.61 2510.16,1708.77 2469.5,1708C 2458.19,1710.36 2446.85,1712.53 2435.5,1714.5C 2437.03,1703.23 2437.7,1691.9 2437.5,1680.5C 2441.36,1681.43 2445.03,1682.93 2448.5,1685C 2451,1685.17 2453.5,1685.33 2456,1685.5C 2505.68,1681.87 2555.18,1677.87 2604.5,1673.5 Z"/></g>
<g><path style="opacity:1" fill="#f61d1e" d="M 2383.5,1722.5 C 2374.85,1721.53 2366.19,1721.37 2357.5,1722C 2348.01,1728.91 2338.34,1735.58 2328.5,1742C 2304.27,1761.07 2279.94,1779.91 2255.5,1798.5C 2277.66,1775.51 2299.66,1752.34 2321.5,1729C 2327.78,1725.05 2333.78,1720.72 2339.5,1716C 2345.8,1716.48 2352.13,1716.48 2358.5,1716C 2362.36,1712.64 2366.36,1709.48 2370.5,1706.5C 2375.61,1711.27 2379.94,1716.6 2383.5,1722.5 Z"/></g>
<g><path style="opacity:1" fill="#5c75f9" d="M 2591.5,1710.5 C 2597.01,1711.17 2602.68,1711.83 2608.5,1712.5C 2612.11,1717.39 2614.95,1722.72 2617,1728.5C 2620.4,1745.07 2624.23,1761.41 2628.5,1777.5C 2629.55,1781.43 2630.22,1785.43 2630.5,1789.5C 2635.17,1789.5 2639.83,1789.5 2644.5,1789.5C 2645.02,1792.9 2645.85,1796.23 2647,1799.5C 2651.39,1836.83 2655.73,1874.16 2660,1911.5C 2663.72,1916.38 2667.22,1921.38 2670.5,1926.5C 2670.41,1929.71 2670.74,1932.88 2671.5,1936C 2671.56,1937.71 2670.89,1939.04 2669.5,1940C 2586.56,1993.27 2503.9,2046.94 2421.5,2101C 2420.55,2101.48 2419.55,2101.65 2418.5,2101.5C 2409.17,2091.5 2399.5,2081.83 2389.5,2072.5C 2361.69,2048.2 2333.69,2024.03 2305.5,2000C 2299.96,1993.96 2294.62,1987.79 2289.5,1981.5C 2299.51,1980.85 2309.51,1980.02 2319.5,1979C 2333.78,1971.04 2347.78,1962.7 2361.5,1954C 2384.08,1892.33 2406.25,1830.49 2428,1768.5C 2430.65,1750.48 2433.15,1732.48 2435.5,1714.5C 2446.85,1712.53 2458.19,1710.36 2469.5,1708C 2510.16,1708.77 2550.83,1709.61 2591.5,1710.5 Z"/></g>
<g><path style="opacity:1" fill="#080201" d="M 2383.5,1722.5 C 2384.5,1722.5 2385.5,1722.5 2386.5,1722.5C 2387.07,1726.33 2386.4,1729.66 2384.5,1732.5C 2381.74,1731.34 2378.74,1730.68 2375.5,1730.5C 2367.07,1731.89 2358.74,1733.72 2350.5,1736C 2334.13,1750.71 2317.46,1765.04 2300.5,1779C 2287.66,1792.67 2274.66,1806.17 2261.5,1819.5C 2260.14,1821.93 2258.48,1823.26 2256.5,1823.5C 2255.83,1815.52 2255.5,1807.52 2255.5,1799.5C 2255.5,1799.17 2255.5,1798.83 2255.5,1798.5C 2279.94,1779.91 2304.27,1761.07 2328.5,1742C 2338.34,1735.58 2348.01,1728.91 2357.5,1722C 2366.19,1721.37 2374.85,1721.53 2383.5,1722.5 Z"/></g>
<g><path style="opacity:1" fill="#a8daf9" d="M 561.5,1760.5 C 592.858,1762.67 624.192,1765.17 655.5,1768C 765.75,1834.37 875.916,1900.87 986,1967.5C 1058.41,2104.66 1131.08,2241.66 1204,2378.5C 1219.1,2541.81 1233.94,2705.14 1248.5,2868.5C 1248.33,2870.17 1248.17,2871.83 1248,2873.5C 1142.06,2947.78 1036.39,3022.44 931,3097.5C 944.921,2989.8 959.421,2882.13 974.5,2774.5C 974.167,2773.83 973.833,2773.17 973.5,2772.5C 896.749,2726.71 819.916,2681.04 743,2635.5C 682.934,2662.52 622.767,2689.36 562.5,2716C 560.816,2717.21 559.483,2718.71 558.5,2720.5C 505.677,2798.14 452.843,2875.8 400,2953.5C 402.817,3114.51 406.484,3275.51 411,3436.5C 527.921,3648.67 644.587,3861.01 761,4073.5C 905.126,4193.96 1048.96,4314.79 1192.5,4436C 1268.34,4483.7 1344.01,4531.53 1419.5,4579.5C 946.167,4579.5 472.833,4579.5 -0.5,4579.5C -0.5,3649.5 -0.5,2719.5 -0.5,1789.5C 50.9209,1770.96 102.254,1752.13 153.5,1733C 156.711,1731.65 160.044,1730.82 163.5,1730.5C 296.187,1740.46 428.854,1750.46 561.5,1760.5 Z"/></g>
<g><path style="opacity:1" fill="#f71b1b" d="M 2384.5,1732.5 C 2378.21,1741.57 2371.54,1750.41 2364.5,1759C 2331.1,1780.7 2296.76,1800.87 2261.5,1819.5C 2274.66,1806.17 2287.66,1792.67 2300.5,1779C 2317.46,1765.04 2334.13,1750.71 2350.5,1736C 2358.74,1733.72 2367.07,1731.89 2375.5,1730.5C 2378.74,1730.68 2381.74,1731.34 2384.5,1732.5 Z"/></g>
<g><path style="opacity:1" fill="#f9aff9" d="M 2872.5,1743.5 C 2883.95,1750.44 2895.28,1757.61 2906.5,1765C 2955.05,1827.21 3003.22,1889.71 3051,1952.5C 3056.53,1966.09 3061.86,1979.75 3067,1993.5C 3067.74,1994.75 3067.57,1995.75 3066.5,1996.5C 3024.46,1993.52 2982.46,1990.19 2940.5,1986.5C 2938.96,1985.84 2937.29,1985.17 2935.5,1984.5C 2911.92,1937.01 2888.09,1889.68 2864,1842.5C 2861.08,1812.13 2857.91,1781.8 2854.5,1751.5C 2860.5,1748.84 2866.5,1746.17 2872.5,1743.5 Z"/></g>
<g><path style="opacity:1" fill="#8fe0ed" d="M 1498.5,1764.5 C 1498.83,1764.5 1499.17,1764.5 1499.5,1764.5C 1499.17,1829 1499.5,1893.34 1500.5,1957.5C 1500.22,1958.29 1499.72,1958.96 1499,1959.5C 1498.5,1894.5 1498.33,1829.5 1498.5,1764.5 Z"/></g>
<g><path style="opacity:1" fill="#0a090a" d="M 2644.5,1789.5 C 2639.83,1789.5 2635.17,1789.5 2630.5,1789.5C 2630.22,1785.43 2629.55,1781.43 2628.5,1777.5C 2652.69,1777.08 2676.85,1776.08 2701,1774.5C 2703.5,1774.83 2706,1775.17 2708.5,1775.5C 2720.06,1802.95 2731.89,1830.28 2744,1857.5C 2745.25,1860.08 2745.58,1862.74 2745,1865.5C 2734.11,1839.38 2722.94,1813.38 2711.5,1787.5C 2708.83,1787.17 2706.17,1786.83 2703.5,1786.5C 2683.83,1787.6 2664.17,1788.6 2644.5,1789.5 Z"/></g>
<g><path style="opacity:1" fill="#faaffa" d="M 2384.5,1788.5 C 2385.5,1788.5 2386.5,1788.5 2387.5,1788.5C 2388.17,1795.86 2388.17,1803.2 2387.5,1810.5C 2367.73,1825.65 2349.23,1842.32 2332,1860.5C 2331.33,1849.5 2331.33,1838.5 2332,1827.5C 2343.47,1817.03 2354.64,1806.2 2365.5,1795C 2371.93,1792.77 2378.26,1790.6 2384.5,1788.5 Z"/></g>
<g><path style="opacity:1" fill="#f9d3f9" d="M 2255.5,2417.5 C 2255.26,2418.1 2254.76,2418.43 2254,2418.5C 2236.85,2412.73 2219.68,2407.06 2202.5,2401.5C 2196.45,2399.71 2190.45,2397.71 2184.5,2395.5C 2179.15,2378.73 2173.81,2362.06 2168.5,2345.5C 2164.65,2331.43 2160.48,2317.43 2156,2303.5C 2151.08,2343.84 2146.08,2384.18 2141,2424.5C 2136.92,2446.88 2132.59,2469.22 2128,2491.5C 2113.67,2507.17 2099.33,2522.83 2085,2538.5C 2084.33,2574.17 2084.33,2609.83 2085,2645.5C 2093.02,2675.6 2101.36,2705.6 2110,2735.5C 2160.27,2847.05 2210.27,2958.72 2260,3070.5C 2303.49,3152.15 2347.49,3233.49 2392,3314.5C 2413,3378.83 2434,3443.17 2455,3507.5C 2455.17,3509.83 2455.33,3512.17 2455.5,3514.5C 2450.1,3588.48 2444.93,3662.48 2440,3736.5C 2423.74,3803.4 2407.91,3870.4 2392.5,3937.5C 2386.1,3943.22 2379.43,3948.72 2372.5,3954C 2312.66,3997.76 2252.99,4041.76 2193.5,4086C 2190.5,4086.67 2187.5,4086.67 2184.5,4086C 2144.12,4078.59 2103.78,4070.92 2063.5,4063C 2015.5,4044.33 1967.5,4025.67 1919.5,4007C 1886.33,3971.17 1853.17,3935.33 1820,3899.5C 1778.67,3822.17 1737.33,3744.83 1696,3667.5C 1648,3562.17 1600,3456.83 1552,3351.5C 1508.21,3194.9 1463.55,3038.57 1418,2882.5C 1416.45,2871.22 1416.12,2859.88 1417,2848.5C 1421.77,2747 1426.6,2645.5 1431.5,2544C 1431.5,2540.98 1431.16,2538.15 1430.5,2535.5C 1430.84,2534.66 1431.51,2534.33 1432.5,2534.5C 1432.56,2535.04 1432.89,2535.38 1433.5,2535.5C 1454.13,2527.57 1474.79,2519.74 1495.5,2512C 1542.82,2507.86 1590.16,2504.19 1637.5,2501C 1713.24,2528.14 1788.91,2555.47 1864.5,2583C 1865.5,2583.67 1866.5,2583.67 1867.5,2583C 1842.21,2543.58 1817.04,2504.08 1792,2464.5C 1791.33,2426.17 1791.33,2387.83 1792,2349.5C 1799.24,2297.26 1805.74,2244.93 1811.5,2192.5C 1811.5,2192.17 1811.5,2191.83 1811.5,2191.5C 1826.41,2161.31 1841.24,2130.98 1856,2100.5C 1886.32,2087.95 1916.82,2075.78 1947.5,2064C 1949.02,2057.57 1950.35,2051.07 1951.5,2044.5C 1956.39,2023.13 1960.39,2001.46 1963.5,1979.5C 1986.33,1920.34 2009,1861.01 2031.5,1801.5C 2032.72,1800.39 2034.06,1800.22 2035.5,1801C 2052.82,1808.24 2070.49,1814.41 2088.5,1819.5C 2090.61,1863.5 2092.77,1907.5 2095,1951.5C 2095.67,1960.5 2095.67,1969.5 2095,1978.5C 2076.83,2014.83 2058.67,2051.17 2040.5,2087.5C 2062.68,2095.62 2085.01,2103.45 2107.5,2111C 2126.52,2112 2145.52,2113.34 2164.5,2115C 2181.5,2122.83 2198.5,2130.67 2215.5,2138.5C 2217.14,2173.83 2218.64,2209.16 2220,2244.5C 2222.41,2278.85 2225.08,2313.19 2228,2347.5C 2237.46,2370.75 2246.63,2394.08 2255.5,2417.5 Z"/></g>
<g><path style="opacity:1" fill="#e32d2e" d="M 2255.5,1799.5 C 2255.5,1807.52 2255.83,1815.52 2256.5,1823.5C 2255.42,1823.54 2254.42,1823.87 2253.5,1824.5C 2253.17,1823.17 2252.83,1821.83 2252.5,1820.5C 2252.97,1813.28 2253.97,1806.28 2255.5,1799.5 Z"/></g>
<g><path style="opacity:1" fill="#f9aef9" d="M 2396.5,1840.5 C 2384.04,1875.89 2371.37,1911.22 2358.5,1946.5C 2345.33,1954.59 2332,1962.42 2318.5,1970C 2315.96,1971.09 2313.29,1971.76 2310.5,1972C 2248.17,1975.24 2185.83,1978.41 2123.5,1981.5C 2119.17,1981.5 2114.83,1981.5 2110.5,1981.5C 2109.57,1968.02 2108.57,1954.68 2107.5,1941.5C 2107.39,1925.81 2106.72,1910.14 2105.5,1894.5C 2156.53,1896.81 2207.53,1899.64 2258.5,1903C 2285.83,1904.14 2313.17,1904.8 2340.5,1905C 2358.38,1882.74 2376.38,1860.57 2394.5,1838.5C 2395.18,1839.24 2395.85,1839.91 2396.5,1840.5 Z"/></g>
<g><path style="opacity:1" fill="#271a26" d="M 1771.5,1798.5 C 1805.59,1838.44 1839.93,1878.27 1874.5,1918C 1874.27,1918.4 1873.94,1918.57 1873.5,1918.5C 1839.86,1880.03 1806.36,1841.36 1773,1802.5C 1772.21,1801.26 1771.71,1799.92 1771.5,1798.5 Z"/></g>
<g><path style="opacity:1" fill="#f9aef9" d="M 1707.5,1908.5 C 1771.06,1919.71 1834.56,1931.38 1898,1943.5C 1899,1943.17 1900,1942.83 1901,1942.5C 1922.89,1947.76 1944.73,1953.26 1966.5,1959C 1967.02,1959.56 1967.36,1960.23 1967.5,1961C 1964.57,1966.81 1963.24,1972.97 1963.5,1979.5C 1958.55,2000.25 1954.22,2021.25 1950.5,2042.5C 1950.38,2045.48 1949.71,2048.31 1948.5,2051C 1940.34,2054.66 1932,2057.83 1923.5,2060.5C 1876.45,2042.59 1829.12,2025.26 1781.5,2008.5C 1756.48,1975.47 1731.81,1942.14 1707.5,1908.5 Z"/></g>
<g><path style="opacity:1" fill="#a0709e" d="M 2104.5,1893.5 C 2105.17,1893.5 2105.5,1893.83 2105.5,1894.5C 2106.72,1910.14 2107.39,1925.81 2107.5,1941.5C 2105.96,1925.69 2104.96,1909.69 2104.5,1893.5 Z"/></g>
<g><path style="opacity:1" fill="#9baef9" d="M 2670.5,1926.5 C 2680.3,1939.82 2689.97,1953.32 2699.5,1967C 2779.8,1973.98 2860.13,1980.48 2940.5,1986.5C 2982.46,1990.19 3024.46,1993.52 3066.5,1996.5C 3106.32,2000.32 3146.32,2003.82 3186.5,2007C 3189.29,2007.24 3191.96,2007.91 3194.5,2009C 3232.89,2037.72 3271.55,2066.05 3310.5,2094C 3331.4,2119.66 3352.4,2145.16 3373.5,2170.5C 3382.12,2181.63 3390.95,2192.63 3400,2203.5C 3406.98,2250.91 3414.15,2298.24 3421.5,2345.5C 3384.6,2453.7 3347.77,2562.03 3311,2670.5C 3255.42,2583 3200.08,2495.34 3145,2407.5C 3121.75,2396.87 3098.25,2387.03 3074.5,2378C 3111.31,2423.78 3148.47,2469.28 3186,2514.5C 3210.72,2572.95 3235.72,2631.28 3261,2689.5C 3263.67,2738.14 3265.33,2786.81 3266,2835.5C 3208.36,2911.98 3150.53,2988.31 3092.5,3064.5C 3050.69,3097.81 3009.02,3131.31 2967.5,3165C 2892.45,3185.54 2817.45,3206.21 2742.5,3227C 2675.38,3233.53 2608.21,3239.69 2541,3245.5C 2536.44,3245.47 2531.94,3244.97 2527.5,3244C 2469.65,3228.54 2411.65,3213.7 2353.5,3199.5C 2332.26,3162.41 2310.76,3125.41 2289,3088.5C 2240.39,2986.95 2192.06,2885.29 2144,2783.5C 2137.26,2769.68 2130.26,2756.01 2123,2742.5C 2114.89,2712.3 2106.23,2682.3 2097,2652.5C 2096.17,2617 2096.34,2581.66 2097.5,2546.5C 2097.5,2550.17 2097.5,2553.83 2097.5,2557.5C 2112.24,2555.12 2126.74,2551.79 2141,2547.5C 2162.28,2499.96 2183.78,2452.62 2205.5,2405.5C 2225.84,2411.5 2246.17,2417.5 2266.5,2423.5C 2270.5,2425.61 2274.84,2426.94 2279.5,2427.5C 2270.16,2403.65 2260.33,2379.99 2250,2356.5C 2248.74,2340.83 2247.57,2325.17 2246.5,2309.5C 2284.17,2309.67 2321.83,2309.5 2359.5,2309C 2386,2288.5 2412.5,2268 2439,2247.5C 2451.89,2218.83 2464.39,2190 2476.5,2161C 2457.34,2141.01 2438.01,2121.17 2418.5,2101.5C 2419.55,2101.65 2420.55,2101.48 2421.5,2101C 2503.9,2046.94 2586.56,1993.27 2669.5,1940C 2670.89,1939.04 2671.56,1937.71 2671.5,1936C 2670.74,1932.88 2670.41,1929.71 2670.5,1926.5 Z"/></g>
<g><path style="opacity:1" fill="#8e658c" d="M 2107.5,1941.5 C 2108.57,1954.68 2109.57,1968.02 2110.5,1981.5C 2114.83,1981.5 2119.17,1981.5 2123.5,1981.5C 2118.69,1982.49 2113.69,1982.82 2108.5,1982.5C 2107.97,1968.84 2107.64,1955.17 2107.5,1941.5 Z"/></g>
<g><path style="opacity:1" fill="#f9aef9" d="M 2289.5,1981.5 C 2294.62,1987.79 2299.96,1993.96 2305.5,2000C 2333.69,2024.03 2361.69,2048.2 2389.5,2072.5C 2389.21,2073.65 2388.38,2074.32 2387,2074.5C 2343.19,2086.08 2299.35,2097.58 2255.5,2109C 2248.17,2109.67 2240.83,2109.67 2233.5,2109C 2212.84,2107.32 2192.17,2105.82 2171.5,2104.5C 2169.41,2103.96 2167.41,2103.12 2165.5,2102C 2146.52,2100.34 2127.52,2099 2108.5,2098C 2092.24,2092.19 2075.91,2086.69 2059.5,2081.5C 2059.37,2079.35 2059.87,2077.35 2061,2075.5C 2076.56,2047.54 2091.73,2019.37 2106.5,1991C 2148.16,1988.61 2189.82,1986.44 2231.5,1984.5C 2244.36,1984.56 2257.03,1983.89 2269.5,1982.5C 2276.14,1981.79 2282.81,1981.45 2289.5,1981.5 Z"/></g>
<g><path style="opacity:1" fill="#b780b4" d="M 2269.5,1982.5 C 2257.03,1983.89 2244.36,1984.56 2231.5,1984.5C 2243.97,1983.11 2256.64,1982.44 2269.5,1982.5 Z"/></g>
<g><path style="opacity:1" fill="#f9d3fa" d="M 3061.5,2391.5 C 3062.72,2390.84 3064.05,2390.17 3065.5,2389.5C 3040.96,2354.25 3016.29,2319.08 2991.5,2284C 2916.06,2241.44 2839.73,2200.11 2762.5,2160C 2742.93,2120.36 2723.77,2080.53 2705,2040.5C 2695,2056.5 2685,2072.5 2675,2088.5C 2677.72,2126.19 2681.06,2163.86 2685,2201.5C 2685.67,2206.5 2685.67,2211.5 2685,2216.5C 2654.44,2258.68 2624.44,2301.01 2595,2343.5C 2625.07,2317.55 2655.24,2291.71 2685.5,2266C 2724.17,2265.33 2762.83,2265.33 2801.5,2266C 2858.09,2288.53 2914.75,2310.86 2971.5,2333C 3000.41,2352.28 3029.07,2371.78 3057.5,2391.5C 3021.13,2395.07 2984.79,2398.9 2948.5,2403C 2912.88,2431.62 2877.54,2460.62 2842.5,2490C 2774.75,2516.47 2707.09,2543.14 2639.5,2570C 2634.03,2570.63 2628.69,2569.97 2623.5,2568C 2585.21,2557.51 2546.88,2547.18 2508.5,2537C 2504.34,2536.18 2500.51,2534.68 2497,2532.5C 2466.67,2500.17 2436.33,2467.83 2406,2435.5C 2405.33,2434.17 2405.33,2432.83 2406,2431.5C 2424.45,2390.81 2443.28,2350.31 2462.5,2310C 2526.25,2276.37 2590.09,2242.87 2654,2209.5C 2654.67,2208.17 2654.67,2206.83 2654,2205.5C 2637.73,2152.86 2621.56,2100.19 2605.5,2047.5C 2606.73,2044.7 2608.73,2042.53 2611.5,2041C 2632.34,2026.15 2653.18,2011.32 2674,1996.5C 2713.9,2017.53 2753.73,2038.7 2793.5,2060C 2842.54,2103.37 2891.87,2146.37 2941.5,2189C 2947.37,2194.53 2952.87,2200.36 2958,2206.5C 2992.09,2249.02 3026.43,2291.35 3061,2333.5C 3065.74,2352.39 3069.91,2371.39 3073.5,2390.5C 3069.48,2390.65 3065.48,2390.98 3061.5,2391.5 Z"/></g>
<g><path style="opacity:1" fill="#2f292f" d="M 1963.5,1979.5 C 1960.39,2001.46 1956.39,2023.13 1951.5,2044.5C 1951.67,2043.51 1951.34,2042.84 1950.5,2042.5C 1954.22,2021.25 1958.55,2000.25 1963.5,1979.5 Z"/></g>
<g><path style="opacity:1" fill="#f9d3f9" d="M 1781.5,2008.5 C 1829.12,2025.26 1876.45,2042.59 1923.5,2060.5C 1901.72,2069.6 1879.72,2078.43 1857.5,2087C 1855.6,2090.64 1853.6,2094.14 1851.5,2097.5C 1832.89,2080.23 1816.89,2060.9 1803.5,2039.5C 1795.91,2029.31 1788.58,2018.98 1781.5,2008.5 Z"/></g>
<g><path style="opacity:1" fill="#5c75f9" d="M 1803.5,2039.5 C 1816.89,2060.9 1832.89,2080.23 1851.5,2097.5C 1839.21,2124.75 1826.37,2151.75 1813,2178.5C 1812.42,2182.83 1811.92,2187.17 1811.5,2191.5C 1811.5,2191.83 1811.5,2192.17 1811.5,2192.5C 1810.1,2195.14 1808.6,2197.81 1807,2200.5C 1803.95,2225.67 1800.78,2250.67 1797.5,2275.5C 1796.73,2276.26 1796.23,2277.26 1796,2278.5C 1794.9,2288.15 1794.07,2297.82 1793.5,2307.5C 1792.73,2308.26 1792.23,2309.26 1792,2310.5C 1791.25,2318.18 1790.41,2325.85 1789.5,2333.5C 1788.5,2340.13 1787.67,2346.8 1787,2353.5C 1786.33,2393.5 1786.33,2433.5 1787,2473.5C 1806.42,2502.67 1826.09,2531.67 1846,2560.5C 1846.59,2561.48 1846.26,2562.15 1845,2562.5C 1776.22,2537.53 1707.39,2512.69 1638.5,2488C 1634.17,2487.33 1629.83,2487.33 1625.5,2488C 1582.53,2491.9 1539.53,2495.57 1496.5,2499C 1488.77,2502.7 1480.77,2505.53 1472.5,2507.5C 1469.85,2502.19 1467.18,2496.86 1464.5,2491.5C 1536.15,2411.35 1607.98,2331.35 1680,2251.5C 1713.33,2187.5 1746.67,2123.5 1780,2059.5C 1787.41,2052.25 1795.25,2045.58 1803.5,2039.5 Z"/></g>
<g><path style="opacity:1" fill="#faaffa" d="M 3061.5,2391.5 C 3060.17,2391.5 3058.83,2391.5 3057.5,2391.5C 3029.07,2371.78 3000.41,2352.28 2971.5,2333C 2914.75,2310.86 2858.09,2288.53 2801.5,2266C 2762.83,2265.33 2724.17,2265.33 2685.5,2266C 2655.24,2291.71 2625.07,2317.55 2595,2343.5C 2624.44,2301.01 2654.44,2258.68 2685,2216.5C 2685.67,2211.5 2685.67,2206.5 2685,2201.5C 2681.06,2163.86 2677.72,2126.19 2675,2088.5C 2685,2072.5 2695,2056.5 2705,2040.5C 2723.77,2080.53 2742.93,2120.36 2762.5,2160C 2839.73,2200.11 2916.06,2241.44 2991.5,2284C 3016.29,2319.08 3040.96,2354.25 3065.5,2389.5C 3064.05,2390.17 3062.72,2390.84 3061.5,2391.5 Z"/></g>
<g><path style="opacity:1" fill="#070608" d="M 1950.5,2042.5 C 1951.34,2042.84 1951.67,2043.51 1951.5,2044.5C 1950.35,2051.07 1949.02,2057.57 1947.5,2064C 1916.82,2075.78 1886.32,2087.95 1856,2100.5C 1841.24,2130.98 1826.41,2161.31 1811.5,2191.5C 1811.92,2187.17 1812.42,2182.83 1813,2178.5C 1826.37,2151.75 1839.21,2124.75 1851.5,2097.5C 1853.6,2094.14 1855.6,2090.64 1857.5,2087C 1879.72,2078.43 1901.72,2069.6 1923.5,2060.5C 1932,2057.83 1940.34,2054.66 1948.5,2051C 1949.71,2048.31 1950.38,2045.48 1950.5,2042.5 Z"/></g>
<g><path style="opacity:1" fill="#f9d3f9" d="M 2389.5,2072.5 C 2399.5,2081.83 2409.17,2091.5 2418.5,2101.5C 2438.01,2121.17 2457.34,2141.01 2476.5,2161C 2464.39,2190 2451.89,2218.83 2439,2247.5C 2412.5,2268 2386,2288.5 2359.5,2309C 2321.83,2309.5 2284.17,2309.67 2246.5,2309.5C 2245.83,2303.17 2245.17,2296.83 2244.5,2290.5C 2244.51,2281.25 2243.51,2272.25 2241.5,2263.5C 2241.5,2257.83 2241.5,2252.17 2241.5,2246.5C 2241.89,2234.62 2241.23,2222.95 2239.5,2211.5C 2239.5,2205.5 2239.5,2199.5 2239.5,2193.5C 2239.6,2177.98 2238.93,2162.64 2237.5,2147.5C 2230.89,2145.13 2224.39,2142.46 2218,2139.5C 2217.5,2134.85 2217.33,2130.18 2217.5,2125.5C 2201.87,2119.02 2186.54,2112.02 2171.5,2104.5C 2192.17,2105.82 2212.84,2107.32 2233.5,2109C 2240.83,2109.67 2248.17,2109.67 2255.5,2109C 2299.35,2097.58 2343.19,2086.08 2387,2074.5C 2388.38,2074.32 2389.21,2073.65 2389.5,2072.5 Z"/></g>
<g><path style="opacity:1" fill="#a489a2" d="M 2237.5,2147.5 C 2238.93,2162.64 2239.6,2177.98 2239.5,2193.5C 2237.8,2178.37 2237.13,2163.04 2237.5,2147.5 Z"/></g>
<g><path style="opacity:1" fill="#060608" d="M 1811.5,2192.5 C 1805.74,2244.93 1799.24,2297.26 1792,2349.5C 1791.33,2387.83 1791.33,2426.17 1792,2464.5C 1817.04,2504.08 1842.21,2543.58 1867.5,2583C 1866.5,2583.67 1865.5,2583.67 1864.5,2583C 1788.91,2555.47 1713.24,2528.14 1637.5,2501C 1590.16,2504.19 1542.82,2507.86 1495.5,2512C 1474.79,2519.74 1454.13,2527.57 1433.5,2535.5C 1432.89,2535.38 1432.56,2535.04 1432.5,2534.5C 1432.21,2530.56 1432.54,2526.73 1433.5,2523C 1446.81,2518.33 1459.81,2513.17 1472.5,2507.5C 1480.77,2505.53 1488.77,2502.7 1496.5,2499C 1539.53,2495.57 1582.53,2491.9 1625.5,2488C 1629.83,2487.33 1634.17,2487.33 1638.5,2488C 1707.39,2512.69 1776.22,2537.53 1845,2562.5C 1846.26,2562.15 1846.59,2561.48 1846,2560.5C 1826.09,2531.67 1806.42,2502.67 1787,2473.5C 1786.33,2433.5 1786.33,2393.5 1787,2353.5C 1787.67,2346.8 1788.5,2340.13 1789.5,2333.5C 1791.75,2325.11 1793.08,2316.44 1793.5,2307.5C 1795.47,2297.05 1796.81,2286.38 1797.5,2275.5C 1800.78,2250.67 1803.95,2225.67 1807,2200.5C 1808.6,2197.81 1810.1,2195.14 1811.5,2192.5 Z"/></g>
<g><path style="opacity:1" fill="#a58aa2" d="M 2239.5,2211.5 C 2241.23,2222.95 2241.89,2234.62 2241.5,2246.5C 2240.4,2235.01 2239.73,2223.35 2239.5,2211.5 Z"/></g>
<g><path style="opacity:1" fill="#5b4c5a" d="M 2241.5,2263.5 C 2243.51,2272.25 2244.51,2281.25 2244.5,2290.5C 2242.77,2281.72 2241.77,2272.72 2241.5,2263.5 Z"/></g>
<g><path style="opacity:1" fill="#374495" d="M 1797.5,2275.5 C 1796.81,2286.38 1795.47,2297.05 1793.5,2307.5C 1794.07,2297.82 1794.9,2288.15 1796,2278.5C 1796.23,2277.26 1796.73,2276.26 1797.5,2275.5 Z"/></g>
<g><path style="opacity:1" fill="#030304" d="M 2168.5,2345.5 C 2166.17,2362.79 2164.17,2380.13 2162.5,2397.5C 2160.08,2405.19 2158.75,2413.19 2158.5,2421.5C 2158.5,2421.83 2158.5,2422.17 2158.5,2422.5C 2157.11,2427.27 2156.44,2432.27 2156.5,2437.5C 2152.02,2458.09 2147.85,2478.75 2144,2499.5C 2128.24,2515.09 2112.74,2530.76 2097.5,2546.5C 2096.34,2581.66 2096.17,2617 2097,2652.5C 2106.23,2682.3 2114.89,2712.3 2123,2742.5C 2130.26,2756.01 2137.26,2769.68 2144,2783.5C 2192.06,2885.29 2240.39,2986.95 2289,3088.5C 2310.76,3125.41 2332.26,3162.41 2353.5,3199.5C 2377.63,3240.92 2401.63,3282.42 2425.5,3324C 2447.1,3386.92 2468.77,3449.75 2490.5,3512.5C 2491.29,3518.13 2491.63,3523.8 2491.5,3529.5C 2491.77,3534.26 2491.44,3538.93 2490.5,3543.5C 2488.99,3556.31 2487.99,3569.31 2487.5,3582.5C 2487.5,3583.5 2487.5,3584.5 2487.5,3585.5C 2486.37,3593.31 2485.7,3601.31 2485.5,3609.5C 2482.36,3649.82 2479.36,3690.15 2476.5,3730.5C 2475.72,3737.07 2474.72,3743.73 2473.5,3750.5C 2457.39,3815.8 2441.05,3881.13 2424.5,3946.5C 2354.03,3995.14 2283.7,4043.97 2213.5,4093C 2206.48,4092.89 2199.48,4092.22 2192.5,4091C 2153.25,4083.57 2113.91,4076.57 2074.5,4070C 2068.59,4067.53 2062.59,4065.36 2056.5,4063.5C 2011.91,4046.91 1967.24,4030.41 1922.5,4014C 1886.69,3978.53 1851.19,3942.69 1816,3906.5C 1813.09,3899.67 1809.42,3893.33 1805,3887.5C 1766.1,3817.35 1726.43,3747.69 1686,3678.5C 1635.06,3574.28 1584.39,3469.95 1534,3365.5C 1531.3,3357.35 1528.3,3349.35 1525,3341.5C 1504.75,3270.15 1483.75,3199.15 1462,3128.5C 1460.94,3125.38 1459.61,3122.38 1458,3119.5C 1448.83,3084.27 1438.16,3049.6 1426,3015.5C 1416.54,2980 1406.04,2945 1394.5,2910.5C 1394.59,2907.85 1393.92,2905.51 1392.5,2903.5C 1390.23,2897.68 1388.4,2891.68 1387,2885.5C 1386.87,2866.15 1387.37,2846.82 1388.5,2827.5C 1389.31,2825.37 1389.81,2823.04 1390,2820.5C 1390.5,2812.51 1390.67,2804.51 1390.5,2796.5C 1391.48,2778.85 1392.15,2761.18 1392.5,2743.5C 1393.32,2741.03 1393.82,2738.36 1394,2735.5C 1395.15,2708.5 1396.32,2681.5 1397.5,2654.5C 1397.5,2654.17 1397.5,2653.83 1397.5,2653.5C 1398.72,2637.68 1399.39,2621.68 1399.5,2605.5C 1401.23,2585.22 1402.4,2564.89 1403,2544.5C 1411.84,2540.61 1421.01,2537.61 1430.5,2535.5C 1431.16,2538.15 1431.5,2540.98 1431.5,2544C 1426.6,2645.5 1421.77,2747 1417,2848.5C 1416.12,2859.88 1416.45,2871.22 1418,2882.5C 1463.55,3038.57 1508.21,3194.9 1552,3351.5C 1600,3456.83 1648,3562.17 1696,3667.5C 1737.33,3744.83 1778.67,3822.17 1820,3899.5C 1853.17,3935.33 1886.33,3971.17 1919.5,4007C 1967.5,4025.67 2015.5,4044.33 2063.5,4063C 2103.78,4070.92 2144.12,4078.59 2184.5,4086C 2187.5,4086.67 2190.5,4086.67 2193.5,4086C 2252.99,4041.76 2312.66,3997.76 2372.5,3954C 2379.43,3948.72 2386.1,3943.22 2392.5,3937.5C 2407.91,3870.4 2423.74,3803.4 2440,3736.5C 2444.93,3662.48 2450.1,3588.48 2455.5,3514.5C 2455.33,3512.17 2455.17,3509.83 2455,3507.5C 2434,3443.17 2413,3378.83 2392,3314.5C 2347.49,3233.49 2303.49,3152.15 2260,3070.5C 2210.27,2958.72 2160.27,2847.05 2110,2735.5C 2101.36,2705.6 2093.02,2675.6 2085,2645.5C 2084.33,2609.83 2084.33,2574.17 2085,2538.5C 2099.33,2522.83 2113.67,2507.17 2128,2491.5C 2132.59,2469.22 2136.92,2446.88 2141,2424.5C 2146.08,2384.18 2151.08,2343.84 2156,2303.5C 2160.48,2317.43 2164.65,2331.43 2168.5,2345.5 Z"/></g>
<g><path style="opacity:1" fill="#2a3574" d="M 1793.5,2307.5 C 1793.08,2316.44 1791.75,2325.11 1789.5,2333.5C 1790.41,2325.85 1791.25,2318.18 1792,2310.5C 1792.23,2309.26 1792.73,2308.26 1793.5,2307.5 Z"/></g>
<g><path style="opacity:1" fill="#5d76f9" d="M 3421.5,2345.5 C 3423.05,2353.1 3423.55,2360.77 3423,2368.5C 3414,2439.83 3405,2511.17 3396,2582.5C 3369.33,2639.83 3342.67,2697.17 3316,2754.5C 3303.16,2799.2 3290.33,2843.87 3277.5,2888.5C 3273.8,2888.92 3270.13,2889.59 3266.5,2890.5C 3251.81,2907.35 3237.31,2924.35 3223,2941.5C 3196,2995.17 3169,3048.83 3142,3102.5C 3073.14,3171.03 3004.64,3239.86 2936.5,3309C 2842.66,3371.09 2748.99,3433.42 2655.5,3496C 2599.81,3524.85 2544.14,3553.68 2488.5,3582.5C 2490.03,3569.55 2490.7,3556.55 2490.5,3543.5C 2491.44,3538.93 2491.77,3534.26 2491.5,3529.5C 2492.16,3527.36 2492.5,3525.03 2492.5,3522.5C 2492.69,3518.86 2492.02,3515.53 2490.5,3512.5C 2468.77,3449.75 2447.1,3386.92 2425.5,3324C 2401.63,3282.42 2377.63,3240.92 2353.5,3199.5C 2411.65,3213.7 2469.65,3228.54 2527.5,3244C 2531.94,3244.97 2536.44,3245.47 2541,3245.5C 2608.21,3239.69 2675.38,3233.53 2742.5,3227C 2817.45,3206.21 2892.45,3185.54 2967.5,3165C 3009.02,3131.31 3050.69,3097.81 3092.5,3064.5C 3150.53,2988.31 3208.36,2911.98 3266,2835.5C 3265.33,2786.81 3263.67,2738.14 3261,2689.5C 3235.72,2631.28 3210.72,2572.95 3186,2514.5C 3148.47,2469.28 3111.31,2423.78 3074.5,2378C 3098.25,2387.03 3121.75,2396.87 3145,2407.5C 3200.08,2495.34 3255.42,2583 3311,2670.5C 3347.77,2562.03 3384.6,2453.7 3421.5,2345.5 Z"/></g>
<g><path style="opacity:1" fill="#5c75f7" d="M 2168.5,2345.5 C 2173.81,2362.06 2179.15,2378.73 2184.5,2395.5C 2190.45,2397.71 2196.45,2399.71 2202.5,2401.5C 2202.77,2403.43 2203.77,2404.76 2205.5,2405.5C 2183.78,2452.62 2162.28,2499.96 2141,2547.5C 2126.74,2551.79 2112.24,2555.12 2097.5,2557.5C 2097.5,2553.83 2097.5,2550.17 2097.5,2546.5C 2112.74,2530.76 2128.24,2515.09 2144,2499.5C 2147.85,2478.75 2152.02,2458.09 2156.5,2437.5C 2158.14,2432.77 2158.81,2427.77 2158.5,2422.5C 2158.5,2422.17 2158.5,2421.83 2158.5,2421.5C 2160.22,2413.7 2161.56,2405.7 2162.5,2397.5C 2164.17,2380.13 2166.17,2362.79 2168.5,2345.5 Z"/></g>
<g><path style="opacity:1" fill="#2a3373" d="M 2162.5,2397.5 C 2161.56,2405.7 2160.22,2413.7 2158.5,2421.5C 2158.75,2413.19 2160.08,2405.19 2162.5,2397.5 Z"/></g>
<g><path style="opacity:1" fill="#2b2e3f" d="M 2202.5,2401.5 C 2219.68,2407.06 2236.85,2412.73 2254,2418.5C 2254.76,2418.43 2255.26,2418.1 2255.5,2417.5C 2256.27,2418.17 2256.93,2419.01 2257.5,2420C 2260.72,2420.9 2263.72,2422.07 2266.5,2423.5C 2246.17,2417.5 2225.84,2411.5 2205.5,2405.5C 2203.77,2404.76 2202.77,2403.43 2202.5,2401.5 Z"/></g>
<g><path style="opacity:1" fill="#2e397c" d="M 2158.5,2422.5 C 2158.81,2427.77 2158.14,2432.77 2156.5,2437.5C 2156.44,2432.27 2157.11,2427.27 2158.5,2422.5 Z"/></g>
<g><path style="opacity:1" fill="#7eb6a0" d="M 1399.5,2605.5 C 1399.39,2621.68 1398.72,2637.68 1397.5,2653.5C 1397.28,2637.31 1397.94,2621.31 1399.5,2605.5 Z"/></g>
<g><path style="opacity:1" fill="#fa96f3" d="M 1854.5,2628.5 C 1859.66,2887.04 1866.16,3145.7 1874,3404.5C 1878.03,3470.83 1882.03,3537.16 1886,3603.5C 1886.17,3608.5 1887.5,3613.17 1890,3617.5C 1911.95,3662.07 1933.29,3706.73 1954,3751.5C 1925.29,3726.46 1896.29,3701.79 1867,3677.5C 1846.67,3630.5 1826.33,3583.5 1806,3536.5C 1808.59,3483.12 1812.26,3429.79 1817,3376.5C 1829.33,3333.83 1841.67,3291.17 1854,3248.5C 1854.67,3240.83 1854.67,3233.17 1854,3225.5C 1846.07,3081.67 1838.24,2937.84 1830.5,2794C 1837.68,2738.73 1845.68,2683.56 1854.5,2628.5 Z"/></g>
<g><path style="opacity:1" fill="#70a28d" d="M 1397.5,2654.5 C 1396.32,2681.5 1395.15,2708.5 1394,2735.5C 1393.82,2738.36 1393.32,2741.03 1392.5,2743.5C 1393.44,2713.64 1395.11,2683.97 1397.5,2654.5 Z"/></g>
<g><path style="opacity:1" fill="#ecf996" d="M 558.5,2720.5 C 566.345,2798.62 573.511,2876.96 580,2955.5C 646.53,3127.42 712.863,3299.42 779,3471.5C 944.946,3703.11 1111.28,3934.45 1278,4165.5C 1279.5,4167 1281,4168.5 1282.5,4170C 1433.24,4267.03 1583.57,4364.53 1733.5,4462.5C 1674.24,4491.09 1614.91,4519.59 1555.5,4548C 1535.45,4558.02 1515.79,4568.52 1496.5,4579.5C 1470.83,4579.5 1445.17,4579.5 1419.5,4579.5C 1344.01,4531.53 1268.34,4483.7 1192.5,4436C 1048.96,4314.79 905.126,4193.96 761,4073.5C 644.587,3861.01 527.921,3648.67 411,3436.5C 406.484,3275.51 402.817,3114.51 400,2953.5C 452.843,2875.8 505.677,2798.14 558.5,2720.5 Z"/></g>
<g><path style="opacity:1" fill="#395247" d="M 1390.5,2796.5 C 1390.67,2804.51 1390.5,2812.51 1390,2820.5C 1389.81,2823.04 1389.31,2825.37 1388.5,2827.5C 1388.81,2816.99 1389.47,2806.66 1390.5,2796.5 Z"/></g>
<g><path style="opacity:1" fill="#9baef9" d="M 3277.5,2888.5 C 3271.67,2909.15 3265.84,2929.81 3260,2950.5C 3257.92,3057.83 3256.92,3165.16 3257,3272.5C 3266.42,3354.2 3275.92,3435.87 3285.5,3517.5C 3280.35,3516.93 3275.52,3517.59 3271,3519.5C 3219.06,3645.72 3167.39,3772.05 3116,3898.5C 3034.87,3972.63 2954.03,4047.13 2873.5,4122C 2920.14,4118.41 2966.81,4114.74 3013.5,4111C 3110.07,4102.35 3206.74,4093.68 3303.5,4085C 3384.7,4007.47 3466.2,3930.3 3548,3853.5C 3597.17,3796.33 3646.33,3739.17 3695.5,3682C 3694.94,3681.62 3694.61,3681.12 3694.5,3680.5C 3700.03,3682.24 3705.69,3683.41 3711.5,3684C 3773.16,3690.61 3834.82,3697.11 3896.5,3703.5C 3957.13,3699 4017.8,3695 4078.5,3691.5C 4078.5,3987.5 4078.5,4283.5 4078.5,4579.5C 3217.83,4579.5 2357.17,4579.5 1496.5,4579.5C 1515.79,4568.52 1535.45,4558.02 1555.5,4548C 1614.91,4519.59 1674.24,4491.09 1733.5,4462.5C 1747.35,4455.41 1761.35,4448.57 1775.5,4442C 1843.33,4368.83 1911.17,4295.67 1979,4222.5C 2005.39,4169.71 2031.23,4116.71 2056.5,4063.5C 2062.59,4065.36 2068.59,4067.53 2074.5,4070C 2113.91,4076.57 2153.25,4083.57 2192.5,4091C 2199.48,4092.22 2206.48,4092.89 2213.5,4093C 2283.7,4043.97 2354.03,3995.14 2424.5,3946.5C 2441.05,3881.13 2457.39,3815.8 2473.5,3750.5C 2474.78,3748.44 2475.61,3746.1 2476,3743.5C 2476.5,3739.18 2476.67,3734.85 2476.5,3730.5C 2479.36,3690.15 2482.36,3649.82 2485.5,3609.5C 2487.27,3601.74 2487.94,3593.74 2487.5,3585.5C 2487.5,3584.5 2487.5,3583.5 2487.5,3582.5C 2487.83,3582.5 2488.17,3582.5 2488.5,3582.5C 2544.14,3553.68 2599.81,3524.85 2655.5,3496C 2748.99,3433.42 2842.66,3371.09 2936.5,3309C 3004.64,3239.86 3073.14,3171.03 3142,3102.5C 3169,3048.83 3196,2995.17 3223,2941.5C 3237.31,2924.35 3251.81,2907.35 3266.5,2890.5C 3270.13,2889.59 3273.8,2888.92 3277.5,2888.5 Z"/></g>
<g><path style="opacity:1" fill="#4e7164" d="M 1392.5,2903.5 C 1393.92,2905.51 1394.59,2907.85 1394.5,2910.5C 1393.08,2908.49 1392.41,2906.15 1392.5,2903.5 Z"/></g>
<g><path style="opacity:1" fill="#243066" d="M 2490.5,3512.5 C 2492.02,3515.53 2492.69,3518.86 2492.5,3522.5C 2492.5,3525.03 2492.16,3527.36 2491.5,3529.5C 2491.63,3523.8 2491.29,3518.13 2490.5,3512.5 Z"/></g>
<g><path style="opacity:1" fill="#5d76f9" d="M 3285.5,3517.5 C 3287.28,3534.19 3289.28,3550.86 3291.5,3567.5C 3346.21,3589.57 3400.87,3611.74 3455.5,3634C 3535,3650.33 3614.67,3665.83 3694.5,3680.5C 3694.61,3681.12 3694.94,3681.62 3695.5,3682C 3646.33,3739.17 3597.17,3796.33 3548,3853.5C 3466.2,3930.3 3384.7,4007.47 3303.5,4085C 3206.74,4093.68 3110.07,4102.35 3013.5,4111C 2966.81,4114.74 2920.14,4118.41 2873.5,4122C 2954.03,4047.13 3034.87,3972.63 3116,3898.5C 3167.39,3772.05 3219.06,3645.72 3271,3519.5C 3275.52,3517.59 3280.35,3516.93 3285.5,3517.5 Z"/></g>
<g><path style="opacity:1" fill="#364392" d="M 2490.5,3543.5 C 2490.7,3556.55 2490.03,3569.55 2488.5,3582.5C 2488.17,3582.5 2487.83,3582.5 2487.5,3582.5C 2487.99,3569.31 2488.99,3556.31 2490.5,3543.5 Z"/></g>
<g><path style="opacity:1" fill="#5f6b9b" d="M 2487.5,3585.5 C 2487.94,3593.74 2487.27,3601.74 2485.5,3609.5C 2485.7,3601.31 2486.37,3593.31 2487.5,3585.5 Z"/></g>
<g><path style="opacity:1" fill="#4a5379" d="M 2476.5,3730.5 C 2476.67,3734.85 2476.5,3739.18 2476,3743.5C 2475.61,3746.1 2474.78,3748.44 2473.5,3750.5C 2474.72,3743.73 2475.72,3737.07 2476.5,3730.5 Z"/></g>
</svg>
